<?xml version='1.0' encoding='UTF-8'?>
<svg xmlns="http://www.w3.org/2000/svg" xmlns:xlink="http://www.w3.org/1999/xlink" viewBox="175 150 780 490" width="780" height="490"><path transform="matrix(1,0,0,-1,596.7892,334.9071)" d="M0 0C5.476 10.976 12.408 19.747 22.238 25.824 30.511 30.94 39.344 34.782 49.294 35.121 53.548 35.266 54.721 34.05 54.869 29.835 55.506 11.704 45.885-3.42 28.819-11.066 26.044-12.309 23.207-13.416 20.424-14.643 13.132-17.858 7.167-40.696 4.176-48.338 3.436-50.229 2.563-51.685-.069-51.618-2.438-51.557-3.589-50.693-4.613-48.718-8.56-41.11-14.503-17.89-22.439-14.751-33.883-10.223-43.965-4.052-49.903 7.38-53.393 14.1-55.307 21.125-55.165 28.712-55.06 34.34-53.207 35.861-47.359 34.794-36.916 32.888-27.357 28.816-18.751 22.628-10.79 16.903-4.568 9.625 0 0" fill="#ffffff"/>
<path transform="matrix(1,0,0,-1,580.0049,229.53565)" d="M0 0C.097 8.297 2.178 14.104 6.174 19.177 10.472 24.635 15.154 24.769 19.438 19.386 25.04 12.347 27.272 4.342 25.416-4.614 25.067-6.296 24.405-7.86 23.524-9.337 18.316-18.06 8.039-18.049 2.864-9.298 .844-5.882-.097-2.177 0 0" fill="#ffffff"/>
<path transform="matrix(1,0,0,-1,301.7565,440.6051)" d="M0 0C0 0 98.875 21.475 130.026-67.448L134.272-77.529 111.106-82.926C111.106-82.926 88.603-5.833 5.832-20.111Z" fill="#ffffff"/>
<path transform="matrix(1,0,0,-1,296.4734,477.28404)" d="M0 0C0 0 81.403 19.276 108.537-53.697L112.204-61.958 93.136-66.777C93.136-66.777 73.336-3.442 5.133-16.522Z" fill="#ffffff"/>
<path transform="matrix(1,0,0,-1,718.2013,497.33064)" d="M0 0C0 14.534 2.926 26.556 8.797 36.054 14.669 45.542 22.218 53.111 31.435 58.751 40.662 64.39 50.858 68.323 62.042 70.55 73.216 72.776 84.12 73.889 94.745 73.889H120.319C120.039 79.221 118.641 83.674 116.125 87.236 113.608 90.798 110.393 93.533 106.479 95.473 102.564 97.402 98.24 98.738 93.487 99.48 88.734 100.211 83.841 100.593 78.818 100.593 72.107 100.593 64.278 99.766 55.331 98.144 46.384 96.511 37.167 93.914 27.661 90.352 25.154 95.398 22.977 99.989 21.17 104.155 19.342 108.3 17.954 112.53 16.976 116.834 15.987 121.138 15.298 125.579 14.879 130.191 14.459 134.781 14.25 140.05 14.25 145.986 27.661 150.725 41.011 154.287 54.283 156.672 67.564 159.036 79.507 160.234 90.132 160.234 104.661 160.234 117.802 158.368 129.546 154.668 141.279 150.948 151.275 145.244 159.513 137.527 167.761 129.809 174.122 119.95 178.596 107.929 183.06 95.918 185.296 81.596 185.296 64.984V-65.419C174.672-68.694 161.82-71.949 146.731-75.214 131.633-78.479 115.705-80.112 98.939-80.112 84.4-80.112 71.059-78.702 58.896-75.882 46.743-73.062 36.328-68.535 27.661-62.302 19.003-56.079 12.222-47.842 7.33-37.602 2.437-27.372 0-14.841 0 0M98.939-24.923C101.456-24.923 105.08-24.626 109.834-24.032 114.587-23.439 118.082-22.845 120.319-22.251V26.704H96.423C86.637 26.704 78.398 24.478 71.688 20.036 64.978 15.584 61.622 9.35 61.622 1.336 61.622-4.601 62.881-9.276 65.397-12.679 67.913-16.092 71.059-18.69 74.833-20.47 78.608-22.251 82.652-23.439 86.986-24.032 91.32-24.626 95.304-24.923 98.939-24.923" fill="#ffffff"/>
<path transform="matrix(1,0,0,-1,384.0354,558.1464)" d="M0 0H-1.967-3.65C-28.933 .843-52.245 11.521-69.942 30.06-88.762 49.436-98.874 75-98.874 102.524-98.874 129.774-88.762 155.339-69.942 174.714-52.245 193.253-28.933 203.931-3.65 204.774H0C24.999 203.931 48.315 193.253 66.292 174.714 84.831 155.339 94.944 129.774 94.944 102.524 94.944 75 84.831 49.436 66.292 30.06 48.315 11.521 24.999 .843 0 0M-1.967 192.129C-48.593 191.012-85.952 151.123-85.952 102.524-85.952 53.651-48.593 13.762-1.967 12.638 44.662 13.762 82.302 53.651 82.302 102.524 82.302 151.123 44.662 191.012-1.967 192.129" fill="#ffffff"/>
<path transform="matrix(1,0,0,-1,384.0354,558.1464)" stroke-width="40.243" stroke-linecap="butt" stroke-miterlimit="10" stroke-linejoin="miter" fill="none" stroke="#ffffff" d="M0 0H-1.967-3.65C-28.933 .843-52.245 11.521-69.942 30.06-88.762 49.436-98.874 75-98.874 102.524-98.874 129.774-88.762 155.339-69.942 174.714-52.245 193.253-28.933 203.931-3.65 204.774H0C24.999 203.931 48.315 193.253 66.292 174.714 84.831 155.339 94.944 129.774 94.944 102.524 94.944 75 84.831 49.436 66.292 30.06 48.315 11.521 24.999 .843 0 0ZM-1.967 192.129C-48.593 191.012-85.952 151.123-85.952 102.524-85.952 53.651-48.593 13.762-1.967 12.638 44.662 13.762 82.302 53.651 82.302 102.524 82.302 151.123 44.662 191.012-1.967 192.129Z"/>
<path transform="matrix(1,0,0,-1,604.9591,491.9859)" d="M0 0V-63.154H-12.974V0L-92.563 139.851H-77.57L-6.631 15.282 64.304 139.851H79.586Z" fill="#ffffff"/>
<path transform="matrix(1,0,0,-1,604.9591,491.9859)" stroke-width="42.255" stroke-linecap="round" stroke-linejoin="round" fill="none" stroke="#ffffff" d="M0 0V-63.154H-12.974V0L-92.563 139.851H-77.57L-6.631 15.282 64.304 139.851H79.586L0 0Z"/>
<path transform="matrix(1,0,0,-1,593.8485,281.3081)" d="M0 0C2.172 3.968 4.162 7.504 6.634 10.723 15.491 22.255 26.802 29.661 41.487 31.226 45.987 31.706 47.335 30.443 47.287 25.983 47.124 11.004 40.741-.53 27.791-8.198 23.787-10.57 19.495-12.451 15.422-14.713 10.618-17.381 6.923-21.161 4.327-26.071 2.148-30.191-1.011-30.262-3.59-26.292-7.527-20.233-12.744-15.795-19.406-12.965-29.817-8.543-38.333-1.992-43.351 8.51-46.143 14.352-47.207 20.464-46.815 26.869-46.586 30.602-45.481 31.673-41.676 31.235-28.813 29.755-18.303 23.644-9.451 14.434-5.54 10.364-2.326 5.801 0 0" fill="#ffffff"/>
</svg>
