<?xml version='1.0' encoding='UTF-8'?>
<svg xmlns="http://www.w3.org/2000/svg" xmlns:xlink="http://www.w3.org/1999/xlink" viewBox="956.84 622.69 126.63 66.79" width="127" height="67"><path transform="matrix(1,0,0,-1,983.1665,659.6345)" d="M0 0C-.049 0-.098 .006-.148 .019-.455 .101-.639 .416-.557 .723 1.311 7.794 .591 14.744-2.427 18.992-7.279 17.605-12.094 12.832-15.069 6.429-15.51 5.49-15.921 4.483-16.29 3.435-16.64 2.436-16.942 1.428-17.186 .438-17.263 .129-17.573-.06-17.884 .017-18.193 .093-18.381 .406-18.305 .714-18.052 1.74-17.739 2.783-17.377 3.817-16.995 4.902-16.569 5.945-16.113 6.917-12.921 13.789-7.641 18.883-2.336 20.209-2.113 20.265-1.877 20.182-1.738 19.999 1.681 15.508 2.56 8.009 .557 .429 .488 .171 .255 0 0 0" fill="#4d4d4f"/>
<path transform="matrix(1,0,0,-1,973.9916,659.4013)" d="M0 0C-.06 0-.121 .009-.18 .029-.483 .129-.647 .454-.547 .756-.219 1.754 .186 2.898 .656 4.156 1.674 6.887 2.7 9.364 2.895 9.832 2.9 9.845 2.912 9.872 2.918 9.883 3.06 10.168 3.407 10.287 3.693 10.145 3.974 10.005 4.092 9.67 3.958 9.388 3.742 8.869 2.735 6.435 1.735 3.754 1.271 2.509 .871 1.379 .547 .396 .467 .154 .242 0 0 0" fill="#4d4d4f"/>
<path transform="matrix(1,0,0,-1,975.1865,656.0228)" d="M0 0C-.151 0-.301 .059-.414 .175-.482 .245-2.075 1.903-2.775 3.615-2.896 3.909-2.755 4.246-2.461 4.366-2.166 4.486-1.83 4.346-1.709 4.051-1.094 2.548 .399 .992 .414 .976 .635 .748 .629 .383 .4 .162 .288 .054 .144 0 0 0" fill="#4d4d4f"/>
<path transform="matrix(1,0,0,-1,974.1335,659.403)" d="M0 0C-.051 0-.102 0-.154 .001-.472 .007-.725 .269-.72 .587-.715 .905-.448 1.159-.134 1.153 1.705 1.11 3.309 1.725 3.917 1.985 4.21 2.11 4.548 1.975 4.673 1.683 4.799 1.39 4.663 1.052 4.371 .926 3.712 .644 1.989 0 0 0" fill="#4d4d4f"/>
<path transform="matrix(1,0,0,-1,1051.9672,632.344)" d="M0 0C-.284 0-.525 .219-.548 .507-.887 4.826 .626 6.053 .8 6.179 1.046 6.357 1.39 6.302 1.568 6.056 1.744 5.813 1.693 5.476 1.456 5.295 1.413 5.258 .264 4.229 .549 .593 .573 .29 .346 .026 .044 .002 .029 .001 .014 0 0 0" fill="#4d4d4f"/>
<path transform="matrix(1,0,0,-1,1047.8724,642.3183)" d="M0 0C-.114 0-.228 .035-.326 .108-.571 .288-.623 .633-.442 .877 .438 2.069 .796 3.587 .539 5.041L.51 5.202C.274 6.542 .584 7.887 1.384 8.988 2.184 10.089 3.368 10.799 4.719 10.988 7.333 11.353 9.847 9.488 10.317 6.826L10.326 6.771C10.619 5.116 11.673 3.696 13.219 2.877 13.457 2.75 13.694 2.614 13.924 2.471 14.182 2.31 14.261 1.971 14.1 1.713 13.94 1.455 13.6 1.376 13.343 1.537 13.134 1.667 12.919 1.79 12.703 1.905 10.856 2.884 9.594 4.588 9.243 6.58L9.233 6.635C8.865 8.72 6.908 10.184 4.871 9.899 3.819 9.751 2.897 9.198 2.275 8.341 1.651 7.484 1.41 6.437 1.594 5.393L1.623 5.232C1.932 3.482 1.502 1.657 .443 .223 .335 .077 .168 0 0 0" fill="#4d4d4f"/>
<path transform="matrix(1,0,0,-1,1027.4052,657.6952)" d="M0 0C-.115 0-.231 .036-.331 .11-1.276 .822-2.091 1.694-2.754 2.703-5.305 5.975-5.825 9.758-4.109 12.581-2.629 15.016 .141 16.163 3.36 15.698 4.427 18.073 6.798 19.896 9.274 20.198 11.84 20.51 14.272 19.196 16.121 16.496 16.292 16.245 16.228 15.902 15.977 15.731 15.727 15.559 15.384 15.623 15.212 15.874 13.584 18.252 11.577 19.37 9.407 19.105 6.921 18.803 4.915 16.756 4.217 14.891 4.123 14.641 3.862 14.494 3.6 14.543 .662 15.095-1.869 14.148-3.169 12.009-4.644 9.583-4.148 6.269-1.873 3.363-1.863 3.35-1.854 3.338-1.845 3.325-1.25 2.414-.518 1.629 .331 .99 .574 .807 .623 .462 .44 .219 .332 .076 .167 0 0 0" fill="#4d4d4f"/>
<path transform="matrix(1,0,0,-1,1031.1073,643.1615)" d="M0 0C-.18 0-.356 .088-.461 .249-3.392 4.733-2.495 6.929-2.383 7.165-2.253 7.44-1.925 7.556-1.65 7.426-1.379 7.297-1.261 6.975-1.385 6.702-1.406 6.648-2.107 4.779 .46 .851 .626 .597 .555 .256 .301 .09 .208 .029 .103 0 0 0" fill="#4d4d4f"/>
<path transform="matrix(1,0,0,-1,1030.8605,645.42556)" d="M0 0C-.069 0-.139 .013-.206 .041-.486 .155-.622 .471-.51 .752-.483 .819 .174 2.414 2.549 3.925 2.805 4.088 3.145 4.012 3.308 3.756 3.471 3.5 3.396 3.16 3.139 2.996 1.09 1.693 .516 .354 .51 .341 .422 .129 .217 0 0 0" fill="#4d4d4f"/>
<path transform="matrix(1,0,0,-1,1054.8549,657.60317)" d="M0 0C-.302 0-.547 .243-.55 .546-.569 2.898-1.241 6.327-2.182 8.885-3.608 12.755-6.414 17-11.686 15.242-13.081 14.777-15.984 13.809-16.733 9.615-17.268 6.621-17.555 3.351-17.503 .867-17.497 .563-17.738 .311-18.042 .305-18.345 .295-18.597 .54-18.603 .844-18.657 3.396-18.363 6.747-17.817 9.809-16.953 14.646-13.506 15.795-12.033 16.286-7.268 17.875-3.403 15.381-1.15 9.265-.169 6.602 .53 3.02 .551 .555 .553 .251 .309 .003 .005 0Z" fill="#4d4d4f"/>
<path transform="matrix(1,0,0,-1,1043.8983,652.8379)" d="M0 0C-.074 0-.147 .029-.201 .087-.305 .198-.299 .372-.189 .475-.149 .513 .806 1.391 1.916 .898 2.055 .836 2.118 .673 2.056 .534 1.994 .396 1.832 .333 1.693 .395 .92 .738 .217 .1 .187 .073 .134 .024 .067 0 0 0" fill="#4d4d4f"/>
<path transform="matrix(1,0,0,-1,1039.6505,647.7417)" d="M0 0C-.073 0-.146 .029-.201 .087-.305 .198-.299 .372-.188 .476-.148 .513 .806 1.392 1.917 .898 2.056 .836 2.118 .674 2.057 .535 1.995 .396 1.833 .334 1.694 .395 .914 .742 .195 .081 .188 .074 .135 .025 .068 0 0 0" fill="#4d4d4f"/>
<path transform="matrix(1,0,0,-1,1047.6676,647.3164)" d="M0 0C-.074 0-.147 .029-.201 .087-.305 .198-.299 .372-.188 .475-.148 .513 .806 1.391 1.917 .898 2.055 .836 2.118 .673 2.056 .535 1.994 .396 1.832 .333 1.693 .395 .92 .738 .217 .101 .187 .073 .134 .024 .067 0 0 0" fill="#4d4d4f"/>
<path transform="matrix(1,0,0,-1,1050.5875,653.8466)" d="M0 0C-.074 0-.147 .029-.201 .088-.305 .198-.299 .372-.188 .475-.148 .513 .806 1.391 1.917 .898 2.055 .836 2.118 .673 2.056 .534 1.994 .396 1.832 .333 1.693 .395 .92 .739 .217 .1 .187 .073 .134 .024 .067 0 0 0" fill="#4d4d4f"/>
<path transform="matrix(1,0,0,-1,1039.8632,657.6691)" d="M0 0C-.074 0-.147 .029-.201 .087-.304 .198-.299 .372-.188 .475-.148 .513 .806 1.391 1.917 .898 2.055 .836 2.118 .673 2.056 .534 1.995 .396 1.832 .333 1.693 .395 .92 .738 .217 .101 .187 .073 .134 .024 .067 0 0 0" fill="#4d4d4f"/>
<path transform="matrix(1,0,0,-1,1057.3952,657.5927)" d="M0 0C-.048 0-.097 .006-.146 .02-.439 .1-.611 .403-.531 .696L4.026 17.31C4.032 17.331 4.039 17.352 4.047 17.372 4.834 19.3 7.042 20.229 8.97 19.443L15.236 16.888C17.164 16.102 18.093 13.893 17.307 11.965 17.299 11.944 17.289 11.924 17.278 11.904L10.804 .347C10.655 .082 10.321-.013 10.055 .136 9.79 .284 9.695 .62 9.844 .885L16.3 12.411C16.835 13.77 16.177 15.316 14.821 15.869L8.555 18.424C7.198 18.977 5.646 18.332 5.079 16.986L.531 .405C.463 .16 .242 0 0 0" fill="#4d4d4f"/>
<path transform="matrix(1,0,0,-1,1068.973,640.01736)" d="M0 0C-.021 0-.043 .001-.065 .004-.367 .039-.583 .313-.547 .614L.692 11.156C.728 11.458 1.001 11.674 1.303 11.638 1.604 11.603 1.821 11.329 1.785 11.027L.546 .486C.513 .206 .275 0 0 0" fill="#4d4d4f"/>
<path transform="matrix(1,0,0,-1,1070.3102,640.90316)" d="M0 0C-.092 0-.186 .023-.271 .072-.536 .222-.628 .558-.478 .822L3.13 7.169C3.28 7.433 3.615 7.526 3.88 7.375 4.144 7.225 4.237 6.889 4.086 6.625L.479 .278C.377 .1 .191 0 0 0" fill="#4d4d4f"/>
<path transform="matrix(1,0,0,-1,1073.6222,630.69717)" d="M0 0C-.069 0-.139 .013-.208 .041-.489 .156-.624 .477-.509 .758L.798 3.964C.913 4.245 1.234 4.381 1.515 4.266 1.797 4.151 1.932 3.83 1.817 3.549L.51 .343C.423 .129 .217 0 0 0" fill="#4d4d4f"/>
<path transform="matrix(1,0,0,-1,1064.7816,645.16287)" d="M0 0C-.069 0-.139 .013-.208 .041L-2.083 .806C-2.365 .92-2.5 1.242-2.385 1.523-2.27 1.804-1.949 1.94-1.668 1.825L.208 1.06C.49 .945 .625 .624 .51 .343 .423 .129 .217 0 0 0" fill="#4d4d4f"/>
<path transform="matrix(1,0,0,-1,1068.3939,652.5546)" d="M0 0C-.069 0-.139 .013-.208 .041L-2.083 .806C-2.364 .92-2.5 1.242-2.385 1.523-2.27 1.804-1.949 1.939-1.667 1.825L.208 1.06C.489 .945 .624 .624 .51 .343 .423 .129 .217 0 0 0" fill="#4d4d4f"/>
<path transform="matrix(1,0,0,-1,1073.7394,645.5987)" d="M0 0C-.069 0-.139 .013-.208 .041L-2.083 .806C-2.365 .92-2.5 1.242-2.385 1.523-2.27 1.804-1.949 1.94-1.668 1.825L.208 1.06C.49 .945 .625 .624 .51 .343 .423 .129 .217 0 0 0" fill="#4d4d4f"/>
<path transform="matrix(1,0,0,-1,1061.889,655.8853)" d="M0 0C-.069 0-.139 .013-.208 .041L-2.083 .806C-2.365 .92-2.5 1.242-2.385 1.523-2.27 1.804-1.949 1.94-1.667 1.825L.208 1.06C.489 .945 .624 .624 .51 .343 .423 .129 .217 0 0 0" fill="#4d4d4f"/>
<path transform="matrix(1,0,0,-1,1072.4577,672.81936)" d="M0 0H-49.824C-50.128 0-50.375 .246-50.375 .55V15.635C-50.375 15.938-50.128 16.185-49.824 16.185H0C.304 16.185 .55 15.938 .55 15.635V.55C.55 .246 .304 0 0 0M-49.274 1.1H-.54999926V15.084001H-49.274Z" fill="#4d4d4f"/>
<path transform="matrix(1,0,0,-1,1026.7184,663.0487)" d="M0 0C-1.007 0-1.826 .819-1.826 1.826-1.826 2.833-1.007 3.653 0 3.653 1.007 3.653 1.826 2.833 1.826 1.826 1.826 .819 1.007 0 0 0M0 2.552C-.4 2.552-.726 2.227-.726 1.826-.726 1.426-.4 1.1 0 1.1 .4 1.1 .726 1.426 .726 1.826 .726 2.227 .4 2.552 0 2.552" fill="#4d4d4f"/>
<path transform="matrix(1,0,0,-1,1026.7184,670.0576)" d="M0 0C-1.007 0-1.826 .819-1.826 1.826-1.826 2.833-1.007 3.653 0 3.653 1.007 3.653 1.826 2.833 1.826 1.826 1.826 .819 1.007 0 0 0M0 2.552C-.4 2.552-.726 2.227-.726 1.826-.726 1.426-.4 1.101 0 1.101 .4 1.101 .726 1.426 .726 1.826 .726 2.227 .4 2.552 0 2.552" fill="#4d4d4f"/>
<path transform="matrix(1,0,0,-1,1068.3722,663.0487)" d="M0 0C-1.007 0-1.826 .819-1.826 1.826-1.826 2.833-1.007 3.653 0 3.653 1.007 3.653 1.826 2.833 1.826 1.826 1.826 .819 1.007 0 0 0M0 2.552C-.4 2.552-.726 2.227-.726 1.826-.726 1.426-.4 1.1 0 1.1 .4 1.1 .726 1.426 .726 1.826 .726 2.227 .4 2.552 0 2.552" fill="#4d4d4f"/>
<path transform="matrix(1,0,0,-1,1068.3722,670.0576)" d="M0 0C-1.007 0-1.826 .819-1.826 1.826-1.826 2.833-1.007 3.653 0 3.653 1.007 3.653 1.826 2.833 1.826 1.826 1.826 .819 1.007 0 0 0M0 2.552C-.4 2.552-.726 2.227-.726 1.826-.726 1.426-.4 1.101 0 1.101 .4 1.101 .726 1.426 .726 1.826 .726 2.227 .4 2.552 0 2.552" fill="#4d4d4f"/>
<path transform="matrix(1,0,0,-1,1073.9816,687.9038)" d="M0 0H-49.825C-50.129 0-50.375 .246-50.375 .55V15.635C-50.375 15.939-50.129 16.185-49.825 16.185H0C.304 16.185 .55 15.939 .55 15.635V.55C.55 .246 .304 0 0 0M-49.274 1.101H-.54999926V15.085H-49.274Z" fill="#4d4d4f"/>
<path transform="matrix(1,0,0,-1,1028.2421,678.1332)" d="M0 0C-1.007 0-1.826 .819-1.826 1.826-1.826 2.833-1.007 3.653 0 3.653 1.007 3.653 1.826 2.833 1.826 1.826 1.826 .819 1.007 0 0 0M0 2.552C-.4 2.552-.726 2.227-.726 1.826-.726 1.426-.4 1.101 0 1.101 .4 1.101 .726 1.426 .726 1.826 .726 2.227 .4 2.552 0 2.552" fill="#4d4d4f"/>
<path transform="matrix(1,0,0,-1,1028.2421,685.1421)" d="M0 0C-1.007 0-1.826 .819-1.826 1.826-1.826 2.833-1.007 3.653 0 3.653 1.007 3.653 1.826 2.833 1.826 1.826 1.826 .819 1.007 0 0 0M0 2.552C-.4 2.552-.726 2.227-.726 1.826-.726 1.426-.4 1.1 0 1.1 .4 1.1 .726 1.426 .726 1.826 .726 2.227 .4 2.552 0 2.552" fill="#4d4d4f"/>
<path transform="matrix(1,0,0,-1,1069.8961,678.1332)" d="M0 0C-1.007 0-1.826 .819-1.826 1.826-1.826 2.833-1.007 3.653 0 3.653 1.007 3.653 1.826 2.833 1.826 1.826 1.826 .819 1.007 0 0 0M0 2.552C-.4 2.552-.726 2.227-.726 1.826-.726 1.426-.4 1.101 0 1.101 .4 1.101 .726 1.426 .726 1.826 .726 2.227 .4 2.552 0 2.552" fill="#4d4d4f"/>
<path transform="matrix(1,0,0,-1,1069.8961,685.1421)" d="M0 0C-1.007 0-1.826 .819-1.826 1.826-1.826 2.833-1.007 3.653 0 3.653 1.007 3.653 1.826 2.833 1.826 1.826 1.826 .819 1.007 0 0 0M0 2.552C-.4 2.552-.726 2.227-.726 1.826-.726 1.426-.4 1.1 0 1.1 .4 1.1 .726 1.426 .726 1.826 .726 2.227 .4 2.552 0 2.552" fill="#4d4d4f"/>
<path transform="matrix(1,0,0,-1,1023.7318,641.5166)" d="M0 0C-.238 0-.49 .012-.758 .037-3.693 .312-4.626 2.347-4.709 3.385-4.728 3.62-4.594 3.841-4.377 3.935-4.22 4.002-.482 5.55 3.486 2.547 3.674 2.405 3.75 2.158 3.676 1.934 3.647 1.85 2.993 0 0 0M-3.515 3.065C-3.304 2.443-2.65 1.319-.655 1.132 1.236 .955 2.076 1.554 2.42 1.956-.176 3.71-2.564 3.329-3.515 3.065M-4.16 3.429H-4.158Z" fill="#4d4d4f"/>
</svg>
