<?xml version='1.0' encoding='UTF-8'?>
<svg xmlns="http://www.w3.org/2000/svg" xmlns:xlink="http://www.w3.org/1999/xlink" viewBox="611.98 680.82 49.96 79.96" width="50" height="80"><path transform="matrix(1,0,0,-1,619.9845,706.1557)" d="M0 0V0C0-9.388 7.61-16.998 16.998-16.998 16.998-7.61 9.388 0 0 0" fill="#f5855c"/>
<path transform="matrix(1,0,0,-1,636.9487,723.1535)" d="M0 0V0C0 9.388 7.61 16.998 16.998 16.998 16.998 7.61 9.388 0 0 0" fill="#f5855c"/>
<path transform="matrix(1,0,0,-1,619.9845,720.9757)" d="M0 0V0C0-9.388 7.61-16.998 16.998-16.998 16.998-7.61 9.388 0 0 0" fill="#f5855c"/>
<path transform="matrix(1,0,0,-1,636.9487,737.97366)" d="M0 0V0C0 9.388 7.61 16.998 16.998 16.998 16.998 7.61 9.388 0 0 0" fill="#f5855c"/>
<path transform="matrix(1,0,0,-1,619.9845,735.7957)" d="M0 0V0C0-9.388 7.61-16.998 16.998-16.998 16.998-7.61 9.388 0 0 0" fill="#f5855c"/>
<path transform="matrix(1,0,0,-1,636.9487,752.79367)" d="M0 0V0C0 9.388 7.61 16.998 16.998 16.998 16.998 7.61 9.388 0 0 0" fill="#f5855c"/>
<path transform="matrix(1,0,0,-1,636.8033,712.8657)" d="M0 0V0C-6.657 6.619-6.689 17.381-.07 24.038 6.587 17.42 6.619 6.657 0 0" fill="#f5855c"/>
</svg>
