<?xml version='1.0' encoding='UTF-8'?>
<svg xmlns="http://www.w3.org/2000/svg" xmlns:xlink="http://www.w3.org/1999/xlink" viewBox="127.44 570.26 88.88 62.96" width="89" height="63"><path transform="matrix(1,0,0,-1,208.2527,585.0432)" d="M0 0C-.098 .474-.305 .89-.62 1.25-.929 1.596-1.301 1.846-1.734 1.996-3.719 2.848-5.819 3.407-7.927 3.824-9.916 4.219-11.913 4.56-13.902 4.95-15.801 5.347-17.667 5.885-19.453 6.661-19.635 6.74-19.841 6.775-20.05 6.775-20.383 6.775-20.725 6.686-20.998 6.542-21.457 6.301-21.812 5.878-21.977 5.377-22.147 4.86-22.104 4.284-21.861 3.798-21.608 3.296-21.214 3.016-20.721 2.797-18.053 1.616-15.23 .82-12.422 .072-11.602-.147-10.786-.38-9.973-.623-12.576-1.508-15.167-2.426-17.731-3.424-21.769-4.997-25.743-6.741-29.642-8.647-33.58-10.572-37.44-12.667-41.223-14.893-45.039-17.137-48.727-19.596-52.342-22.161-56.234-24.925-60.006-27.867-63.749-30.835-65.682-32.369-67.611-33.91-69.532-35.46-70.073-35.896-70.585-36.364-71.09-36.843-71.287-36.882-71.485-36.97-71.604-37.112-71.913-37.481-72.232-37.844-72.53-38.222-72.837-38.608-72.916-39.088-72.701-39.551-72.49-40.001-71.937-40.277-71.461-40.156-71.025-40.045-70.686-39.711-70.348-39.425-69.825-38.986-69.337-38.5-68.823-38.049-68.19-37.497-67.512-37.001-66.849-36.489-65.94-35.788-65.03-35.086-64.119-34.386-60.619-31.7-57.095-29.046-53.496-26.499-50.719-24.547-47.907-22.647-45.033-20.848-42.036-18.971-38.964-17.229-35.842-15.581-29.611-12.289-23.164-9.397-16.551-7.003-13.78-6.015-10.98-5.111-8.149-4.326-9.011-5.623-9.89-6.908-10.785-8.182-11.849-9.695-12.953-11.175-14.098-12.624-14.636-13.305-15.181-13.98-15.728-14.653-16.315-15.376-16.92-16.089-17.434-16.87-17.986-17.709-17.886-18.871-17.227-19.617-16.844-20.05-16.3-20.32-15.73-20.356-15.533-20.342-15.337-20.328-15.14-20.313-14.751-20.229-14.408-20.051-14.112-19.78-13.43-19.27-12.83-18.665-12.242-18.048-11.586-17.361-10.958-16.641-10.343-15.913-9.067-14.404-7.829-12.86-6.632-11.283-5.515-9.813-4.456-8.298-3.417-6.771-2.36-5.218-1.316-3.646-.374-2.017-.014-1.395 .147-.721 0 0" fill="#4d4d4f"/>
</svg>
