<?xml version='1.0' encoding='UTF-8'?>
<svg xmlns="http://www.w3.org/2000/svg" xmlns:xlink="http://www.w3.org/1999/xlink" viewBox="379.05 679.15 80.14 80.83" width="80" height="81"><path transform="matrix(1,0,0,-1,387.0485,719.893)" d="M0 0V0C0-17.729 14.372-32.101 32.101-32.101 32.101-14.372 17.729 0 0 0" fill="#b5c757"/>
<path transform="matrix(1,0,0,-1,419.0862,751.994)" d="M0 0V0C0 17.729 14.372 32.101 32.101 32.101 32.101 14.372 17.729 0 0 0" fill="#b5c757"/>
<path transform="matrix(1,0,0,-1,418.8115,732.565)" d="M0 0V0C-12.573 12.5-12.632 32.825-.132 45.398 12.44 32.898 12.5 12.573 0 0" fill="#b5c757"/>
</svg>
