<?xml version='1.0' encoding='UTF-8'?>
<svg xmlns="http://www.w3.org/2000/svg" xmlns:xlink="http://www.w3.org/1999/xlink" viewBox="230.90 580.40 96.63 57.51" width="97" height="58"><path transform="matrix(1,0,0,-1,319.4976,601.4829)" d="M0 0C-.042 .321-.099 .649-.206 .956-.307 1.244-.452 1.519-.601 1.784-.69 1.943-.8 2.089-.914 2.23-1.14 2.512-1.373 2.783-1.636 3.029-2.049 3.414-2.527 3.734-2.991 4.05-3.463 4.37-3.955 4.662-4.457 4.931-5.567 5.528-6.72 6.05-7.878 6.54-9.07 7.045-10.266 7.542-11.469 8.019-12.497 8.428-13.535 8.817-14.578 9.186-14.962 9.322-15.347 9.458-15.734 9.584-15.888 9.633-16.042 9.68-16.195 9.729-16.261 9.75-16.325 9.771-16.391 9.792-16.465 9.815-16.553 9.813-16.639 9.81-16.673 9.81-16.706 9.809-16.738 9.81-16.77 9.812-16.801 9.813-16.832 9.813-16.967 9.813-17.091 9.788-17.218 9.703-17.37 9.599-17.479 9.437-17.517 9.254-17.577 8.977-17.477 8.736-17.293 8.573-17.295 8.57-17.298 8.567-17.3 8.564-17.23 8.504-17.164 8.442-17.099 8.376-16.975 8.249-16.767 8.174-16.609 8.094-16.276 7.926-15.938 7.768-15.6 7.611-14.716 7.198-13.828 6.794-12.947 6.377-10.88 5.402-8.87 4.327-6.98 3.028-6.41 2.612-5.851 2.17-5.326 1.69-6 1.943-6.677 2.171-7.376 2.349-8.179 2.555-8.999 2.692-9.819 2.803-11.615 3.046-13.433 3.132-15.243 3.117-18.942 3.087-22.619 2.555-26.245 1.844-27.914 1.516-29.573 1.137-31.22 .712-31.22 .737-31.221 .762-31.222 .788-31.288 3.268-31.987 5.778-33.418 7.8-34.669 9.566-36.371 10.996-38.325 11.874-40.226 12.727-42.251 13.07-44.292 13.07-46.636 13.07-49.002 12.618-51.232 11.964-53.639 11.258-55.943 10.248-58.189 9.128-60.475 7.987-62.675 6.669-64.798 5.24-68.49 2.754-71.983-.111-75.082-3.338-76.293-4.598-77.44-5.93-78.444-7.369-79.324-8.629-80.09-9.931-80.559-11.412-80.673-11.773-80.55-12.241-80.352-12.546-80.144-12.867-79.816-13.098-79.449-13.18-79.069-13.265-78.664-13.187-78.339-12.968-78.001-12.739-77.841-12.427-77.72-12.045-77.713-12.021-77.705-11.997-77.697-11.973-77.358-11.084-76.88-10.256-76.359-9.465-74.52-6.79-72.199-4.463-69.793-2.324-65.856 1.122-61.513 4.133-56.863 6.478-54.052 7.862-51.108 9.008-48.042 9.634-46.486 9.918-44.907 10.057-43.329 9.957-42.339 9.86-41.364 9.664-40.421 9.342-39.714 9.063-39.04 8.714-38.406 8.29-37.783 7.828-37.215 7.301-36.699 6.718-36.231 6.135-35.82 5.514-35.478 4.846-35.161 4.13-34.927 3.386-34.766 2.617-34.616 1.674-34.575 .724-34.615-.23-35.22-.409-35.822-.594-36.423-.784-38.804-1.537-41.174-2.359-43.483-3.319-45.527-4.171-47.528-5.133-49.495-6.16-51.732-7.327-53.913-8.621-55.96-10.112-57.069-10.919-58.124-11.805-59.125-12.748-59.938-13.512-60.69-14.348-61.33-15.269-61.697-15.797-62.048-16.331-62.344-16.903-62.643-17.483-62.862-18.118-63.049-18.742-63.224-19.33-63.275-19.927-63.319-20.539-63.352-21.017-63.329-21.486-63.245-21.957-63.132-22.585-63.006-23.173-62.756-23.757-62.462-24.439-62.116-25.076-61.671-25.665-61.032-26.511-60.269-27.201-59.346-27.706-58.925-27.937-58.449-28.085-57.992-28.217-57.472-28.367-56.915-28.387-56.38-28.424-55.637-28.474-54.887-28.364-54.157-28.237-53.198-28.07-52.252-27.842-51.302-27.627-50.164-27.368-49.1-26.9-48.059-26.373-45.763-25.21-43.747-23.533-41.903-21.732-39.82-19.699-38.031-17.381-36.432-14.938-34.828-12.488-33.538-9.846-32.569-7.07-32.248-6.152-31.973-5.216-31.756-4.268-29.539-3.65-27.301-3.111-25.047-2.661-20.626-1.824-16.113-1.334-11.618-1.646-10.639-1.737-9.666-1.867-8.697-2.039-8.146-2.137-7.6-2.252-7.054-2.373-6.817-2.426-6.579-2.476-6.343-2.532-6.224-2.561-6.107-2.602-5.99-2.643-5.884-2.682-5.78-2.723-5.674-2.764-5.622-2.783-5.57-2.803-5.517-2.822-6.211-3.602-6.971-4.324-7.746-5.016-8.882-6.003-10.055-6.943-11.229-7.883-11.794-8.336-12.359-8.789-12.91-9.26-13.507-9.768-14.103-10.286-14.616-10.886-15.388-11.788-15.332-13.185-14.451-13.993-14.028-14.381-13.465-14.584-12.897-14.552-12.708-14.516-12.519-14.479-12.33-14.442-11.972-14.318-11.665-14.112-11.412-13.825-10.963-13.407-10.508-12.996-10.05-12.588-7.901-10.71-5.647-8.951-3.615-6.938-2.603-5.936-1.696-4.851-.944-3.631-.601-3.076-.372-2.478-.17-1.857-.099-1.64-.052-1.415-.026-1.189 .017-.792 .052-.397 0 0M-35.779-5.721C-36.728-8.337-38.04-10.794-39.57-13.1-41.215-15.499-43.107-17.716-45.259-19.653-46.625-20.833-48.094-21.892-49.689-22.723-50.616-23.162-51.579-23.513-52.586-23.709-53.776-23.942-54.973-24.183-56.186-24.151-56.456-24.115-56.719-24.061-56.982-23.986-57.155-23.907-57.321-23.819-57.485-23.722-57.654-23.583-57.813-23.437-57.965-23.279-58.195-22.974-58.4-22.652-58.581-22.314-58.696-22.035-58.791-21.75-58.864-21.457-58.895-21.199-58.908-20.941-58.904-20.682-58.858-20.352-58.786-20.028-58.69-19.709-58.479-19.187-58.215-18.693-57.915-18.219-57.204-17.228-56.363-16.349-55.465-15.535-52.692-13.153-49.501-11.293-46.26-9.663-43.818-8.462-41.32-7.415-38.761-6.499-37.743-6.135-36.719-5.786-35.69-5.453-35.719-5.543-35.749-5.632-35.779-5.721M-5.984-2.645C-5.825-2.701-5.668-2.76-5.514-2.818-5.67-2.76-5.827-2.702-5.984-2.645" fill="#4d4d4f"/>
</svg>
