<?xml version='1.0' encoding='UTF-8'?>
<svg xmlns="http://www.w3.org/2000/svg" xmlns:xlink="http://www.w3.org/1999/xlink" viewBox="133.74 468.92 125.69 73.99" width="126" height="74"><path transform="matrix(1,0,0,-1,180.6061,488.78013)" d="M0 0C6.519 3.783 20.487 6.538 31.197 6.153 34.797 6.244 41.914 5.151 47.094 3.711 50.526 3.222 56.696 .614 60.875-2.114 64.557-3.389 68.188-8.251 68.986-12.974 69.738-16.678 68.022-22.814 65.154-26.68 63.09-29.603 57.668-33.694 53.045-35.816 49.829-37.31 43.055-39.588 37.915-40.905 30.744-43.511 15.931-44.958 4.828-44.138 1.127-44.091-6.185-42.784-11.504-41.219-15.108-40.599-21.647-37.737-26.109-34.828-29.61-33.357-34.075-28.3-36.083-23.534-38.132-20.208-38.036-13.893-35.869-9.43-31.775-3.425-21.42 3.654-12.739 6.381 3.468 13.872 31.934 10.453 50.842-1.255 52.327-2.126 55.209-4.124 57.279-5.717 57.623-5.898 57.953-5.739 58.016-5.362 58.03-4.935 57.758-4.372 57.41-4.104 51.621 1.362 37.952 7.73 26.879 10.119 19.174 12.536 3.803 12.404-7.454 9.823-11.153 9.278-18.168 6.866-23.123 4.434-26.44 3.42-31.592-.452-34.629-4.213-37.314-6.657-39.194-12.508-38.828-17.282-38.798-21.188-35.931-27.452-32.424-31.273-29.992-34.09-24.015-38.096-19.075-40.221-15.694-41.86-8.476-43.978-2.953-44.95 4.791-46.781 20.31-46.478 31.709-44.273 35.486-43.704 42.948-41.701 48.377-39.8 52.016-39.128 58.277-35.797 62.361-32.36 71.394-26.368 73.533-14.608 67.138-6.091 65.143-3.353 59.968 .454 55.579 2.412 52.265 4.074 45.182 6.163 39.759 7.076 32.133 9.172 17.346 8.119 6.731 4.725 5.01 4.229 1.612 2.91-.858 1.779-1.572 1.452-.726-.332 0 0" fill="#f9ab19"/>
</svg>
