<?xml version='1.0' encoding='UTF-8'?>
<svg xmlns="http://www.w3.org/2000/svg" xmlns:xlink="http://www.w3.org/1999/xlink" viewBox="984.85 568.91 73.63 67.12" width="74" height="67"><path transform="matrix(1,0,0,-1,1001.3691,615.271)" d="M0 0C-.123 0-.246 .04-.35 .122-5.538 4.254-8.514 10.283-8.514 16.663-8.514 28.621 1.856 38.35 14.601 38.35 18.146 38.35 21.547 37.616 24.712 36.169 24.994 36.039 25.118 35.706 24.989 35.423 24.86 35.141 24.526 35.017 24.244 35.146 21.227 36.526 17.983 37.225 14.601 37.225 2.476 37.225-7.389 28.001-7.389 16.663-7.389 10.627-4.568 4.919 .351 1.002 .594 .809 .634 .455 .44 .212 .329 .073 .165 0 0 0" fill="#4d4d4f"/>
<path transform="matrix(1,0,0,-1,1001.3691,615.271)" stroke-width=".586" stroke-linecap="butt" stroke-miterlimit="10" stroke-linejoin="miter" fill="none" stroke="#424546" d="M0 0C-.123 0-.246 .04-.35 .122-5.538 4.254-8.514 10.283-8.514 16.663-8.514 28.621 1.856 38.35 14.601 38.35 18.146 38.35 21.547 37.616 24.712 36.169 24.994 36.039 25.118 35.706 24.989 35.423 24.86 35.141 24.526 35.017 24.244 35.146 21.227 36.526 17.983 37.225 14.601 37.225 2.476 37.225-7.389 28.001-7.389 16.663-7.389 10.627-4.568 4.919 .351 1.002 .594 .809 .634 .455 .44 .212 .329 .073 .165 0 0 0Z"/>
<path transform="matrix(1,0,0,-1,1042.6032,589.9558)" d="M0 0C-.133 0-.267 .047-.374 .143-.751 .478-1.146 .807-1.547 1.12-1.792 1.31-1.837 1.663-1.646 1.908-1.456 2.154-1.102 2.198-.857 2.007-.436 1.68-.021 1.335 .374 .982 .606 .775 .627 .42 .42 .188 .309 .064 .155 0 0 0" fill="#4d4d4f"/>
<path transform="matrix(1,0,0,-1,1042.6032,589.9558)" stroke-width=".586" stroke-linecap="butt" stroke-miterlimit="10" stroke-linejoin="miter" fill="none" stroke="#424546" d="M0 0C-.133 0-.267 .047-.374 .143-.751 .478-1.146 .807-1.547 1.12-1.792 1.31-1.837 1.663-1.646 1.908-1.456 2.154-1.102 2.198-.857 2.007-.436 1.68-.021 1.335 .374 .982 .606 .775 .627 .42 .42 .188 .309 .064 .155 0 0 0Z"/>
<path transform="matrix(1,0,0,-1,1007.8342,628.0373)" d="M0 0C-.124 0-.247 .041-.347 .12-.496 .237-.576 .42-.561 .608L.096 8.599C-3.216 12.571-5.036 17.533-5.036 22.601-5.036 35.063 5.66 45.201 18.807 45.201 23.267 45.201 27.617 44.027 31.385 41.804 31.653 41.646 31.742 41.302 31.584 41.034 31.427 40.767 31.082 40.678 30.814 40.836 27.219 42.956 23.067 44.077 18.807 44.077 6.28 44.077-3.912 34.443-3.912 22.601-3.912 17.653-2.177 13.001 1.103 9.148 1.2 9.034 1.248 8.887 1.236 8.738L.63 1.365 7.642 3.702C7.785 3.75 7.941 3.739 8.074 3.67 11.355 2.005 15.066 1.125 18.807 1.125 31.334 1.125 41.526 10.759 41.526 22.601 41.526 27.497 39.828 32.109 36.615 35.937 36.416 36.175 36.447 36.53 36.685 36.729 36.923 36.929 37.277 36.898 37.477 36.66 40.862 32.627 42.651 27.765 42.651 22.601 42.651 10.139 31.954 0 18.807 0 14.97 0 11.161 .885 7.776 2.562L.178 .029C.12 .01 .06 0 0 0" fill="#4d4d4f"/>
<path transform="matrix(1,0,0,-1,1007.8342,628.0373)" stroke-width=".586" stroke-linecap="butt" stroke-miterlimit="10" stroke-linejoin="miter" fill="none" stroke="#424546" d="M0 0C-.124 0-.247 .041-.347 .12-.496 .237-.576 .42-.561 .608L.096 8.599C-3.216 12.571-5.036 17.533-5.036 22.601-5.036 35.063 5.66 45.201 18.807 45.201 23.267 45.201 27.617 44.027 31.385 41.804 31.653 41.646 31.742 41.302 31.584 41.034 31.427 40.767 31.082 40.678 30.814 40.836 27.219 42.956 23.067 44.077 18.807 44.077 6.28 44.077-3.912 34.443-3.912 22.601-3.912 17.653-2.177 13.001 1.103 9.148 1.2 9.034 1.248 8.887 1.236 8.738L.63 1.365 7.642 3.702C7.785 3.75 7.941 3.739 8.074 3.67 11.355 2.005 15.066 1.125 18.807 1.125 31.334 1.125 41.526 10.759 41.526 22.601 41.526 27.497 39.828 32.109 36.615 35.937 36.416 36.175 36.447 36.53 36.685 36.729 36.923 36.929 37.277 36.898 37.477 36.66 40.862 32.627 42.651 27.765 42.651 22.601 42.651 10.139 31.954 0 18.807 0 14.97 0 11.161 .885 7.776 2.562L.178 .029C.12 .01 .06 0 0 0Z"/>
</svg>
