<?xml version='1.0' encoding='UTF-8'?>
<svg xmlns="http://www.w3.org/2000/svg" xmlns:xlink="http://www.w3.org/1999/xlink" viewBox="345.36 571.38 80.12 75.55" width="80" height="76"><path transform="matrix(1,0,0,-1,417.4742,586.6461)" d="M0 0C-.017 .684-.144 1.384-.349 2.034-.609 2.854-1.067 3.561-1.616 4.203-2.157 4.835-2.832 5.329-3.537 5.754-4.093 6.088-4.719 6.307-5.329 6.51-6.593 6.929-7.932 7.054-9.25 7.159-10.12 7.229-10.992 7.256-11.865 7.256-13.756 7.256-15.65 7.127-17.532 7.012-18.71 6.939-19.89 6.864-21.072 6.846-21.786 6.834-22.501 6.861-23.214 6.87-24.258 6.883-25.302 6.886-26.345 6.883-30.351 6.87-34.357 6.732-38.358 6.517-40.36 6.41-42.359 6.279-44.359 6.136-45.32 6.067-46.281 5.994-47.241 5.917-47.842 5.87-48.442 5.818-49.045 5.801-50.846 5.747-52.649 5.752-54.437 5.492-55.368 5.356-56.332 5.187-57.199 4.798-57.59 4.623-57.985 4.434-58.313 4.152-58.54 3.957-58.748 3.782-58.934 3.553-59.122 3.323-59.283 3.066-59.435 2.81-59.67 2.411-59.81 1.934-59.947 1.496-60.081 1.068-60.167 .625-60.244 .185-60.427-.87-60.501-1.947-60.56-3.014-60.614-3.998-60.632-4.985-60.651-5.971-60.665-6.698-60.671-7.427-60.719-8.152-60.786-8.799-60.892-9.441-60.989-10.082-61.136-11.047-61.29-12.01-61.445-12.973-61.742-14.819-62.042-16.665-62.324-18.515-62.605-20.363-62.861-22.216-63.073-24.075-63.271-25.792-63.388-27.512-63.524-29.234-63.721-31.473-64.018-33.7-64.095-35.95-64.136-37.137-64.121-38.337-63.933-39.511-63.846-40.048-63.74-40.581-63.55-41.09-63.343-41.645-63.058-42.103-62.668-42.536-62.411-42.822-62.058-43.041-61.722-43.213-61.307-43.426-60.851-43.574-60.402-43.691-59.42-43.949-58.385-44.016-57.376-44.05-55.015-44.131-52.64-43.861-50.302-43.553-48.923-43.371-47.548-43.156-46.174-42.938-45.184-42.781-44.194-42.608-43.197-42.498-42.564-42.428-42.055-41.925-42.088-41.247-42.119-40.626-42.679-40.041-43.313-40.114-44.193-40.214-45.067-40.362-45.942-40.499-47.243-40.704-48.543-40.904-49.848-41.079-51.295-41.272-52.746-41.432-54.203-41.53-55.49-41.616-56.785-41.65-58.073-41.554-58.744-41.486-59.412-41.378-60.054-41.165-60.247-41.083-60.434-40.989-60.612-40.878-60.686-40.817-60.757-40.754-60.825-40.686-60.881-40.605-60.933-40.521-60.981-40.435-61.1-40.138-61.185-39.829-61.251-39.515-61.507-37.891-61.414-36.211-61.284-34.579-61.113-32.633-60.834-30.699-60.665-28.753-60.668-28.782-60.67-28.81-60.672-28.838-60.247-23.733-59.334-18.693-58.449-13.655-58.239-12.456-58.032-11.255-57.823-10.056-57.744-9.604-57.656-9.154-57.596-8.7-57.541-8.287-57.512-7.869-57.479-7.454-57.361-5.964-57.347-4.469-57.238-2.978-57.141-1.91-57.002-.837-56.677 .186-56.563 .467-56.43 .737-56.276 .997-56.231 1.054-56.184 1.109-56.135 1.162-56.075 1.204-56.013 1.243-55.949 1.281-55.556 1.443-55.147 1.555-54.732 1.644-53.578 1.836-52.406 1.899-51.238 1.939-50.218 1.975-49.196 1.964-48.177 2.023-47.322 2.073-46.468 2.158-45.614 2.223-44.574 2.303-43.534 2.378-42.493 2.45-40.494 2.588-38.494 2.709-36.492 2.811-32.491 3.016-28.485 3.136-24.478 3.147-23.997 3.148-23.516 3.144-23.034 3.14-22.021 3.132-21.007 3.123-19.994 3.168-18.738 3.223-17.484 3.322-16.23 3.406-13.803 3.567-11.359 3.701-8.929 3.524-7.898 3.423-6.87 3.256-5.885 2.924-5.498 2.762-5.135 2.569-4.783 2.341-4.541 2.153-4.316 1.949-4.105 1.726-3.972 1.545-3.851 1.358-3.744 1.16-3.652 .929-3.58 .694-3.522 .452-3.458-.045-3.452-.542-3.48-1.042-3.606-2.243-3.868-3.427-4.085-4.613-4.408-6.375-4.658-8.154-4.914-9.927-5.447-13.613-5.898-17.312-6.284-21.018-6.677-24.8-6.993-28.59-7.26-32.383-7.383-34.137-7.521-35.895-7.58-37.653-7.598-38.167-7.597-38.683-7.592-39.197-7.592-39.205-7.592-39.213-7.592-39.22-7.688-39.237-7.785-39.254-7.879-39.272-8.649-39.421-9.409-39.62-10.177-39.779-12.674-40.211-15.228-40.188-17.752-40.116-19.064-40.079-20.376-40.021-21.688-39.989-22.029-39.981-22.37-39.974-22.711-39.97-21.462-38.542-20.179-37.148-18.767-35.882-18.402-35.57-18.029-35.27-17.65-34.976-17.44-34.812-17.224-34.659-17.01-34.502-16.748-34.311-16.482-34.122-16.294-33.851-16.127-33.661-16.015-33.44-15.96-33.191-15.905-32.929-15.917-32.672-15.998-32.418-16.077-32.175-16.209-31.967-16.395-31.794-16.621-31.585-16.972-31.411-17.296-31.411-17.338-31.411-17.38-31.414-17.421-31.42-17.478-31.429-17.535-31.438-17.591-31.446-17.862-31.461-18.11-31.544-18.338-31.694-18.569-31.823-18.792-31.957-19.012-32.106-19.455-32.406-19.876-32.738-20.289-33.08-21.186-33.826-22.03-34.634-22.839-35.479-24.371-37.079-25.771-38.807-27.215-40.489-27.761-41.127-27.728-42.111-27.107-42.686-26.993-42.792-26.862-42.869-26.726-42.933-26.645-43.074-26.548-43.208-26.43-43.332-25.018-44.805-23.701-46.369-22.337-47.888-21.678-48.621-21.002-49.338-20.297-50.025-19.946-50.366-19.587-50.697-19.221-51.021-18.754-51.433-18.25-51.87-17.673-52.107-17.411-52.245-17.131-52.308-16.835-52.294-16.402-52.272-15.99-52.072-15.7-51.744-15.409-51.416-15.256-50.977-15.278-50.535-15.3-50.057-15.51-49.715-15.815-49.374-16.142-49.009-16.555-48.741-16.943-48.447-17.332-48.152-17.708-47.84-18.078-47.52-18.82-46.877-19.52-46.183-20.204-45.477-20.914-44.745-21.601-43.989-22.288-43.235-21.83-43.253-21.373-43.269-20.916-43.293-19.319-43.378-17.724-43.478-16.127-43.532-14.573-43.585-13.017-43.586-11.467-43.456-10.681-43.39-9.905-43.267-9.13-43.12-8.59-43.018-8.056-42.887-7.517-42.779-7.06-42.695-6.602-42.617-6.145-42.528-5.787-42.458-5.425-42.324-5.128-42.107-4.627-41.738-4.312-41.241-4.169-40.629-4.064-40.179-4.084-39.675-4.089-39.212-4.096-38.632-4.099-38.054-4.084-37.474-4.057-36.449-3.979-35.424-3.916-34.401-3.776-32.146-3.615-29.893-3.432-27.642-3.102-23.675-2.7-19.715-2.212-15.766-1.964-13.75-1.688-11.738-1.392-9.73-1.125-7.928-.849-6.128-.505-4.34-.231-2.912 .037-1.462 0 0" fill="#4d4d4f"/>
</svg>
