<?xml version='1.0' encoding='UTF-8'?>
<svg xmlns="http://www.w3.org/2000/svg" xmlns:xlink="http://www.w3.org/1999/xlink" viewBox="265.22 479.66 147.51 57.23" width="148" height="57"><path transform="matrix(1,0,0,-1,276.212,523.6467)" d="M0 0C1.715 6.182 8.161 16.705 14.398 23.503 18.509 32.223 28.688 36.008 37.135 31.957 42.867 27.825 48.829 17.531 50.452 8.965 51.03 7.408 51.118 4.26 50.649 1.934 50.741-.349 49.084-2.625 46.949-3.152 45.61-2.464 44.435-.806 44.324 .552 44.254 1.901 44.495 4.547 44.863 6.462 45.338 12.728 50.867 22.069 57.213 27.326 58.247 28.473 60.732 30.093 62.763 30.944 64.311 31.791 67.355 31.62 69.562 30.561 72.409 29.171 76.724 25.204 79.2 21.7 81.112 19.42 83.526 14.162 84.592 9.956 85.015 8.605 85.459 5.793 85.584 3.674 85.638 3.028 85.658 1.708 85.63 .726 85.662 .331 85.6-.458 85.491-1.036 85.361-2.104 84.998-2.909 84.68-2.832 84.755-.107 84.906 2.596 85.017 3.205 85.24 4.748 86.019 7.814 86.756 10.052 87.539 13.042 90.224 18.557 92.754 22.37 96.821 34.717 106.707 38.841 114.833 31.58 116.866 29.415 119.668 24.519 121.093 20.644 122.365 17.66 123.978 11.343 124.696 6.532 124.985 4.857 125.301 1.407 125.402-1.175 127.167-2.643 128.557-2.8 128.507-1.525 128.616 2.432 127.38 10.247 125.746 15.931 125.387 19.739 122.544 26.175 119.398 30.307 117.417 33.977 111.689 36.478 106.602 35.895 102.776 35.546 96.907 32.053 93.493 28.092 90.853 25.42 87.038 19.127 84.972 14.036 84.242 12.425 83.144 9.017 82.518 6.425 81.711 4.619 81.173 1.035 81.315-1.579 81.315-3.572 83.021-5.03 85.125-4.835 86.988-4.526 88.596-2.413 88.717-.116 89.162 3.38 88.039 9.959 86.208 14.579 85.236 17.936 81.552 23.548 77.98 27.113 75.699 31.2 69.515 34.057 64.169 33.495 60.508 32.648 54.914 29.228 51.676 25.855 49.081 23.62 45.51 18.072 43.701 13.464 41.712 10.415 40.646 4.339 41.321-.107 42.6-4.928 46.676-6.67 50.426-3.999 53.008-.919 54.314 5.33 53.343 9.957 53.207 14.008 50.537 21.134 47.379 25.872 45.82 29.321 40.762 33.2 36.081 34.534 32.513 35.827 26.029 34.965 21.597 32.608 18.464 31.022 13.234 26.541 9.915 22.598 7.316 19.84 3.097 13.52 .492 8.484-.39 6.872-1.925 3.457-2.936 .855-3.473-.526-.449-1.155 0 0" fill="#f5855c"/>
</svg>
