<?xml version='1.0' encoding='UTF-8'?>
<svg xmlns="http://www.w3.org/2000/svg" xmlns:xlink="http://www.w3.org/1999/xlink" viewBox="686.07 680.20 80.58 80.58" width="81" height="81"><path transform="matrix(1,0,0,-1,744.5765,720.5009)" d="M0 0H-18.208V18.208C-18.208 25.987-11.901 32.293-4.122 32.293H14.085V14.085C14.085 6.306 7.779 0 0 0" fill="#3b8870"/>
<path transform="matrix(1,0,0,-1,712.2838,688.2083)" d="M0 0H-18.208V-18.208C-18.208-25.987-11.901-32.293-4.122-32.293H14.085V-14.085C14.085-6.306 7.779 0 0 0" fill="#b5c757"/>
<path transform="matrix(1,0,0,-1,744.5765,720.5009)" d="M0 0H-18.208V-18.208C-18.208-25.987-11.901-32.293-4.122-32.293H14.085V-14.085C14.085-6.306 7.779 0 0 0" fill="#b5c757"/>
<path transform="matrix(1,0,0,-1,712.2838,752.79367)" d="M0 0H-18.208V18.208C-18.208 25.987-11.901 32.293-4.122 32.293H14.085V14.085C14.085 6.306 7.779 0 0 0" fill="#3b8870"/>
</svg>
