<?xml version='1.0' encoding='UTF-8'?>
<svg xmlns="http://www.w3.org/2000/svg" xmlns:xlink="http://www.w3.org/1999/xlink" viewBox="990 760 150 55" width="300" height="110"><path transform="matrix(1,0,0,-1,1009.7832,788.2284)" d="M0 0C9.752 0 17.657 7.905 17.657 17.657 17.657 27.409 9.752 35.314 0 35.314-9.752 35.314-17.657 27.409-17.657 17.657-17.657 7.905-9.752 0 0 0" fill="#f5855c"/>
<path transform="matrix(1,0,0,-1,1061.6879,787.2044)" d="M0 0C9.752 0 17.657 7.905 17.657 17.657 17.657 27.409 9.752 35.314 0 35.314-9.752 35.314-17.657 27.409-17.657 17.657-17.657 7.905-9.752 0 0 0" fill="#f9ab19"/>
<path transform="matrix(1,0,0,-1,1116.5548,786.4958)" d="M0 0C9.752 0 17.657 7.905 17.657 17.657 17.657 27.409 9.752 35.314 0 35.314-9.752 35.314-17.657 27.409-17.657 17.657-17.657 7.905-9.752 0 0 0" fill="#b5c757"/>
</svg>
