<?xml version='1.0' encoding='UTF-8'?>
<svg xmlns="http://www.w3.org/2000/svg" xmlns:xlink="http://www.w3.org/1999/xlink" viewBox="849.04 571.38 65.16 65.17" width="65" height="65"><path transform="matrix(1,0,0,-1,876.5361,618.3643)" d="M0 0C-5.206 0-10.099 2.027-13.78 5.708-17.461 9.389-19.488 14.283-19.488 19.488-19.488 24.694-17.461 29.588-13.78 33.268-7.535 39.514 2.155 40.78 9.783 36.349 10.019 36.212 10.099 35.909 9.962 35.672 9.825 35.436 9.521 35.356 9.285 35.493 2.045 39.7-7.151 38.497-13.08 32.569-16.574 29.075-18.498 24.43-18.498 19.488-18.498 14.547-16.574 9.902-13.08 6.408-9.586 2.914-4.941 .99 0 .99 4.941 .99 9.586 2.914 13.08 6.408 19.451 12.779 20.323 22.746 15.151 30.106 14.994 30.329 15.048 30.638 15.272 30.795 15.496 30.953 15.804 30.899 15.962 30.675 21.41 22.92 20.492 12.42 13.78 5.708 10.099 2.027 5.205 0 0 0" fill="#4d4d4f"/>
<path transform="matrix(1,0,0,-1,876.5361,618.3643)" stroke-width=".586" stroke-linecap="butt" stroke-miterlimit="10" stroke-linejoin="miter" fill="none" stroke="#424546" d="M0 0C-5.206 0-10.099 2.027-13.78 5.708-17.461 9.389-19.488 14.283-19.488 19.488-19.488 24.694-17.461 29.588-13.78 33.268-7.535 39.514 2.155 40.78 9.783 36.349 10.019 36.212 10.099 35.909 9.962 35.672 9.825 35.436 9.521 35.356 9.285 35.493 2.045 39.7-7.151 38.497-13.08 32.569-16.574 29.075-18.498 24.43-18.498 19.488-18.498 14.547-16.574 9.902-13.08 6.408-9.586 2.914-4.941 .99 0 .99 4.941 .99 9.586 2.914 13.08 6.408 19.451 12.779 20.323 22.746 15.151 30.106 14.994 30.329 15.048 30.638 15.272 30.795 15.496 30.953 15.804 30.899 15.962 30.675 21.41 22.92 20.492 12.42 13.78 5.708 10.099 2.027 5.205 0 0 0Z"/>
<path transform="matrix(1,0,0,-1,889.9664,585.9408)" d="M0 0C-.127 0-.253 .048-.35 .145-.711 .506-1.092 .857-1.482 1.188-1.691 1.365-1.716 1.677-1.54 1.886-1.363 2.095-1.051 2.12-.842 1.943-.431 1.595-.03 1.226 .35 .845 .543 .652 .543 .338 .35 .145 .253 .048 .127 0 0 0" fill="#4d4d4f"/>
<path transform="matrix(1,0,0,-1,889.9664,585.9408)" stroke-width=".586" stroke-linecap="butt" stroke-miterlimit="10" stroke-linejoin="miter" fill="none" stroke="#424546" d="M0 0C-.127 0-.253 .048-.35 .145-.711 .506-1.092 .857-1.482 1.188-1.691 1.365-1.716 1.677-1.54 1.886-1.363 2.095-1.051 2.12-.842 1.943-.431 1.595-.03 1.226 .35 .845 .543 .652 .543 .338 .35 .145 .253 .048 .127 0 0 0Z"/>
<path transform="matrix(1,0,0,-1,865.6343,588.4694)" d="M0 0C-.127 0-.253 .048-.35 .145-.543 .338-.543 .652-.35 .845 1.108 2.303 2.796 3.446 4.669 4.243 4.919 4.351 5.211 4.233 5.318 3.981 5.425 3.73 5.308 3.439 5.056 3.332 3.301 2.585 1.718 1.513 .35 .145 .253 .048 .127 0 0 0" fill="#4d4d4f"/>
<path transform="matrix(1,0,0,-1,865.6343,588.4694)" stroke-width=".586" stroke-linecap="butt" stroke-miterlimit="10" stroke-linejoin="miter" fill="none" stroke="#424546" d="M0 0C-.127 0-.253 .048-.35 .145-.543 .338-.543 .652-.35 .845 1.108 2.303 2.796 3.446 4.669 4.243 4.919 4.351 5.211 4.233 5.318 3.981 5.425 3.73 5.308 3.439 5.056 3.332 3.301 2.585 1.718 1.513 .35 .145 .253 .048 .127 0 0 0Z"/>
<path transform="matrix(1,0,0,-1,901.2138,628.55526)" d="M0 0C-.903 0-1.734 .341-2.379 .986L-8.299 7.58C-9.786 9.066-9.675 11.362-8.018 13.019-7.245 13.792-6.289 14.259-5.327 14.334-4.301 14.413-3.318 14.04-2.56 13.282-2.366 13.089-2.366 12.776-2.56 12.582-2.753 12.389-3.067 12.389-3.26 12.582-3.818 13.14-4.506 13.408-5.25 13.347-5.977 13.29-6.712 12.925-7.318 12.319-8.59 11.047-8.698 9.378-7.581 8.261L-1.661 1.667C-1.129 1.137-.418 .905 .38 1.017 1.18 1.129 2.009 1.58 2.715 2.286 3.918 3.489 4.619 5.377 3.315 6.68L-.612 10.205C-.816 10.388-.833 10.701-.65 10.904-.467 11.107-.154 11.124 .049 10.942L3.996 7.399C5.52 5.875 5.268 3.438 3.415 1.586 2.558 .729 1.529 .178 .517 .037 .343 .012 .17 0 0 0" fill="#4d4d4f"/>
<path transform="matrix(1,0,0,-1,901.2138,628.55526)" stroke-width=".586" stroke-linecap="butt" stroke-miterlimit="10" stroke-linejoin="miter" fill="none" stroke="#424546" d="M0 0C-.903 0-1.734 .341-2.379 .986L-8.299 7.58C-9.786 9.066-9.675 11.362-8.018 13.019-7.245 13.792-6.289 14.259-5.327 14.334-4.301 14.413-3.318 14.04-2.56 13.282-2.366 13.089-2.366 12.776-2.56 12.582-2.753 12.389-3.067 12.389-3.26 12.582-3.818 13.14-4.506 13.408-5.25 13.347-5.977 13.29-6.712 12.925-7.318 12.319-8.59 11.047-8.698 9.378-7.581 8.261L-1.661 1.667C-1.129 1.137-.418 .905 .38 1.017 1.18 1.129 2.009 1.58 2.715 2.286 3.918 3.489 4.619 5.377 3.315 6.68L-.612 10.205C-.816 10.388-.833 10.701-.65 10.904-.467 11.107-.154 11.124 .049 10.942L3.996 7.399C5.52 5.875 5.268 3.438 3.415 1.586 2.558 .729 1.529 .178 .517 .037 .343 .012 .17 0 0 0Z"/>
</svg>
