<?xml version='1.0' encoding='UTF-8'?>
<svg xmlns="http://www.w3.org/2000/svg" xmlns:xlink="http://www.w3.org/1999/xlink" viewBox="765.93 680.82 80.06 80.06" width="80" height="80"><path transform="matrix(1,0,0,-1,805.9641,752.8925)" d="M0 0V0C-17.691 0-32.032 14.341-32.032 32.031-32.032 49.722-17.691 64.063 0 64.063 17.69 64.063 32.031 49.722 32.031 32.031 32.031 14.341 17.69 0 0 0" fill="#f2f5c2"/>
<path transform="matrix(1,0,0,-1,805.964,739.9981)" d="M0 0V0C-10.569 0-19.137 8.568-19.137 19.137-19.137 29.706-10.569 38.274 0 38.274 10.569 38.274 19.137 29.706 19.137 19.137 19.137 8.568 10.569 0 0 0" fill="#f9ab19"/>
</svg>
