<?xml version='1.0' encoding='UTF-8'?>
<svg xmlns="http://www.w3.org/2000/svg" xmlns:xlink="http://www.w3.org/1999/xlink" viewBox="434.99 581.00 139.94 56.31" width="140" height="56"><path transform="matrix(1,0,0,-1,445.0573,629.15426)" d="M0 0C14.722 6.382 44.826 19.433 67.24 29.15 71.455 30.978 80.075 34.715 86.493 37.497 87.758 39.619 87.266 40.682 85.396 39.871 70.674 33.489 40.57 20.438 18.157 10.721 13.941 8.893 5.321 5.156-1.097 2.374-2.972 1.561-1.87-.811 0 0" fill="#2d404b"/>
<path transform="matrix(1,0,0,-1,488.9942,626.87356)" d="M0 0C12.344 5.504 38.056 15.525 57.427 22.381 57.734 24.168 56.873 25.224 55.504 24.739 42.691 20.438 16.98 10.418-1.923 2.358-3.605 1.641-1.344-.573 0 0" fill="#2d404b"/>
<path transform="matrix(1,0,0,-1,535.6752,618.0968)" d="M0 0C6.843 2.343 20.836 7.133 31.254 10.699 30.721 10.97 30.243 11.199 30.186 11.211 29.671 11.481 28.774 11.536 28.181 11.333 21.338 8.99 7.345 4.2-3.073 .634-2.54 .363-2.061 .134-2.005 .122-1.421-.003-.592-.203 0 0" fill="#2d404b"/>
</svg>
