<?xml version='1.0' encoding='UTF-8'?>
<svg xmlns="http://www.w3.org/2000/svg" xmlns:xlink="http://www.w3.org/1999/xlink" viewBox="294.83 680.82 79.96 79.96" width="80" height="80"><path transform="matrix(1,0,0,-1,312.0339,698.3593)" d="M0 0V0C0-9.723 7.882-17.605 17.605-17.605 17.605-7.882 9.723 0 0 0" fill="#f9ab19"/>
<path transform="matrix(1,0,0,-1,339.9833,715.96426)" d="M0 0V0C0 9.723 7.882 17.605 17.605 17.605 17.605 7.882 9.723 0 0 0" fill="#f9ab19"/>
<path transform="matrix(1,0,0,-1,312.0339,743.26376)" d="M0 0V0C0 9.723 7.882 17.605 17.605 17.605 17.605 7.882 9.723 0 0 0" fill="#f9ab19"/>
<path transform="matrix(1,0,0,-1,339.9833,725.6587)" d="M0 0V0C0-9.723 7.882-17.605 17.605-17.605 17.605-7.882 9.723 0 0 0" fill="#f9ab19"/>
<path transform="matrix(1,0,0,-1,302.829,721.0412)" d="M0 0V0C6.875-6.875 18.022-6.875 24.897 0 18.022 6.875 6.875 6.875 0 0" fill="#f9ab19"/>
<path transform="matrix(1,0,0,-1,335.041,713.7267)" d="M0 0V0C-6.875 6.875-6.875 18.022 0 24.897 6.875 18.022 6.875 6.875 0 0" fill="#f9ab19"/>
<path transform="matrix(1,0,0,-1,334.5812,752.79367)" d="M0 0V0C-6.875 6.875-6.875 18.022 0 24.897 6.875 18.022 6.875 6.875 0 0" fill="#f9ab19"/>
<path transform="matrix(1,0,0,-1,341.8959,720.5817)" d="M0 0V0C6.875-6.875 18.022-6.875 24.897 0 18.022 6.875 6.875 6.875 0 0" fill="#f9ab19"/>
</svg>
