<?xml version='1.0' encoding='UTF-8'?>
<svg xmlns="http://www.w3.org/2000/svg" xmlns:xlink="http://www.w3.org/1999/xlink" viewBox="548.55 679.51 55.73 81.09" width="56" height="81"><path transform="matrix(1,0,0,-1,576.4665,733.98117)" d="M0 0C1.976 3.962 4.478 7.127 8.026 9.321 11.012 11.167 14.2 12.554 17.792 12.676 19.327 12.729 19.75 12.29 19.804 10.768 20.033 4.224 16.561-1.234 10.402-3.994 9.4-4.443 8.376-4.842 7.372-5.285 4.74-6.445 2.586-14.688 1.507-17.446 1.24-18.129 .925-18.655-.025-18.63-.88-18.608-1.296-18.296-1.665-17.584-3.09-14.838-5.235-6.457-8.099-5.324-12.229-3.69-15.868-1.463-18.011 2.663-19.271 5.089-19.962 7.624-19.91 10.363-19.873 12.394-19.204 12.943-17.093 12.558-13.324 11.87-9.874 10.4-6.768 8.167-3.895 6.101-1.649 3.474 0 0" fill="#b5c757"/>
<path transform="matrix(1,0,0,-1,570.4086,695.9498)" d="M0 0C.035 2.995 .786 5.09 2.228 6.922 3.78 8.891 5.469 8.94 7.016 6.997 9.038 4.456 9.843 1.567 9.173-1.665 9.047-2.272 8.808-2.837 8.49-3.37 6.611-6.518 2.901-6.515 1.034-3.356 .305-2.123-.035-.786 0 0" fill="#b5c757"/>
<path transform="matrix(1,0,0,-1,575.4051,714.6358)" d="M0 0C.784 1.432 1.502 2.708 2.394 3.87 5.591 8.033 9.674 10.705 14.974 11.27 16.598 11.443 17.085 10.988 17.067 9.378 17.008 3.972 14.705-.191 10.031-2.959 8.585-3.815 7.036-4.494 5.566-5.31 3.832-6.273 2.499-7.637 1.562-9.41 .775-10.897-.365-10.922-1.296-9.489-2.716-7.303-4.6-5.701-7.004-4.679-10.762-3.083-13.836-.719-15.647 3.072-16.654 5.18-17.038 7.386-16.897 9.698-16.814 11.045-16.415 11.431-15.042 11.273-10.399 10.739-6.606 8.534-3.411 5.21-2 3.741-.84 2.094 0 0" fill="#3b8870"/>
</svg>
