<?xml version='1.0' encoding='UTF-8'?>
<svg xmlns="http://www.w3.org/2000/svg" xmlns:xlink="http://www.w3.org/1999/xlink" viewBox="445.54 458.99 102.79 82.06" width="103" height="82"><path transform="matrix(1,0,0,-1,460.0561,467.29524)" d="M0 0C-3.97-4.593-6.873-14.935-6.485-23.1-6.476-29.697-2.107-40.975 3.275-48.291 4.543-50.859 8.449-54.46 11.999-56.333 14.24-57.82 19.076-58.786 22.8-58.489 29.149-58.585 36.959-53.097 40.245-46.23 41.632-43.865 42.791-38.774 42.833-34.859 43.775-31.547 42.238-26.39 39.399-23.339 37.374-20.678 32.872-19.443 29.342-20.582 26.561-21.694 22.926-25.381 21.222-28.817 17.534-34.437 17.661-44.748 21.505-51.848 23.895-57.696 32.159-63.647 39.964-65.139 45.793-66.85 55.912-64.938 62.566-60.87 67.618-58.219 74.505-50.278 77.949-43.134 78.559-41.938 79.6-39.409 80.274-37.485 79.016-36.356 77.744-36.159 77.433-37.046 75.665-50.759 62.091-62.951 47.115-64.278 41.459-65.611 32.836-62.321 27.855-56.93 23.402-53.152 20.626-44.232 21.653-37.005 21.738-34.44 23.444-29.9 25.463-26.864 26.95-22.008 31.255-19.879 35.079-22.108 37.513-23.962 39.687-28.5 39.934-32.244 40.31-34.628 39.751-39.252 38.685-42.57 37.848-48.397 31.711-54.678 24.979-56.6 22.554-57.796 17.947-57.556 14.689-56.064 12.374-54.998 8.709-51.823 6.503-48.974 1.455-44.222-3.077-33.039-3.619-23.996-4.694-17.97-1.869-7.558 2.691-.741 3.198 .018 .469 .701 0 0" fill="#b5c757"/>
</svg>
