<?xml version='1.0' encoding='UTF-8'?>
<svg xmlns="http://www.w3.org/2000/svg" xmlns:xlink="http://www.w3.org/1999/xlink" viewBox="920.82 567.72 63.24 67.85" width="63" height="68"><path transform="matrix(1,0,0,-1,968.5669,591.0672)" d="M0 0C-.305 0-.552 .247-.552 .552V6.444C-.552 7.728-1.597 8.772-2.88 8.772H-7.803C-8.108 8.772-8.355 9.019-8.355 9.324-8.355 9.629-8.108 9.877-7.803 9.877H-2.88C-.988 9.877 .552 8.337 .552 6.444V.552C.552 .247 .305 0 0 0" fill="#4d4d4f"/>
<path transform="matrix(1,0,0,-1,968.5669,591.0672)" stroke-width=".586" stroke-linecap="butt" stroke-miterlimit="10" stroke-linejoin="miter" fill="none" stroke="#424546" d="M0 0C-.305 0-.552 .247-.552 .552V6.444C-.552 7.728-1.597 8.772-2.88 8.772H-7.803C-8.108 8.772-8.355 9.019-8.355 9.324-8.355 9.629-8.108 9.877-7.803 9.877H-2.88C-.988 9.877 .552 8.337 .552 6.444V.552C.552 .247 .305 0 0 0Z"/>
<path transform="matrix(1,0,0,-1,929.934,622.8416)" d="M0 0C0-.482-.618-.82-1.105-.265V38.218C-1.105 40.114 .432 41.651 2.328 41.651H10.975C11.274 41.651 11.542 41.427 11.558 41.128 11.574 40.81 11.321 40.546 11.006 40.546H2.328C1.042 40.546 0 39.504 0 38.218Z" fill="#4d4d4f"/>
<path transform="matrix(1,0,0,-1,929.934,622.8416)" stroke-width=".586" stroke-linecap="butt" stroke-miterlimit="10" stroke-linejoin="miter" fill="none" stroke="#424546" d="M0 0C0-.482-.618-.82-1.105-.265V38.218C-1.105 40.114 .432 41.651 2.328 41.651H10.975C11.274 41.651 11.542 41.427 11.558 41.128 11.574 40.81 11.321 40.546 11.006 40.546H2.328C1.042 40.546 0 39.504 0 38.218V0Z"/>
<path transform="matrix(1,0,0,-1,965.6866,627.575)" d="M0 0H-32.332C-32.637 0-32.885 .247-32.885 .552-32.885 .857-32.637 1.104-32.332 1.104H0C1.283 1.104 2.328 2.149 2.328 3.433V14.95C2.328 15.255 2.575 15.502 2.88 15.502 3.185 15.502 3.433 15.255 3.433 14.95V3.433C3.433 1.54 1.893 0 0 0" fill="#4d4d4f"/>
<path transform="matrix(1,0,0,-1,965.6866,627.575)" stroke-width=".586" stroke-linecap="butt" stroke-miterlimit="10" stroke-linejoin="miter" fill="none" stroke="#424546" d="M0 0H-32.332C-32.637 0-32.885 .247-32.885 .552-32.885 .857-32.637 1.104-32.332 1.104H0C1.283 1.104 2.328 2.149 2.328 3.433V14.95C2.328 15.255 2.575 15.502 2.88 15.502 3.185 15.502 3.433 15.255 3.433 14.95V3.433C3.433 1.54 1.893 0 0 0Z"/>
<path transform="matrix(1,0,0,-1,955.9929,583.64028)" d="M0 0H-14.037C-14.901 0-15.605 .703-15.605 1.568V4.315C-15.605 5.18-14.901 5.883-14.037 5.883H-12.827V6.346C-12.827 7.211-12.124 7.914-11.26 7.914H-2.778C-1.913 7.914-1.21 7.211-1.21 6.346V5.883H0C.864 5.883 1.568 5.18 1.568 4.315V1.568C1.568 .703 .864 0 0 0M-14.037 4.779C-14.292 4.779-14.5 4.571-14.5 4.315V1.568C-14.5 1.312-14.292 1.104-14.037 1.104H0C.255 1.104 .463 1.312 .463 1.568V4.315C.463 4.571 .255 4.779 0 4.779H-1.762C-2.067 4.779-2.314 5.026-2.314 5.331V6.346C-2.314 6.602-2.522 6.809-2.778 6.809H-11.26C-11.515 6.809-11.723 6.602-11.723 6.346V5.331C-11.723 5.026-11.97 4.779-12.275 4.779Z" fill="#4d4d4f"/>
<path transform="matrix(1,0,0,-1,955.9929,583.64028)" stroke-width=".586" stroke-linecap="butt" stroke-miterlimit="10" stroke-linejoin="miter" fill="none" stroke="#424546" d="M0 0H-14.037C-14.901 0-15.605 .703-15.605 1.568V4.315C-15.605 5.18-14.901 5.883-14.037 5.883H-12.827V6.346C-12.827 7.211-12.124 7.914-11.26 7.914H-2.778C-1.913 7.914-1.21 7.211-1.21 6.346V5.883H0C.864 5.883 1.568 5.18 1.568 4.315V1.568C1.568 .703 .864 0 0 0ZM-14.037 4.779C-14.292 4.779-14.5 4.571-14.5 4.315V1.568C-14.5 1.312-14.292 1.104-14.037 1.104H0C.255 1.104 .463 1.312 .463 1.568V4.315C.463 4.571 .255 4.779 0 4.779H-1.762C-2.067 4.779-2.314 5.026-2.314 5.331V6.346C-2.314 6.602-2.522 6.809-2.778 6.809H-11.26C-11.515 6.809-11.723 6.602-11.723 6.346V5.331C-11.723 5.026-11.97 4.779-12.275 4.779H-14.037Z"/>
<path transform="matrix(1,0,0,-1,940.9405,591.633)" d="M0 0H-5.222C-5.527 0-5.775 .247-5.775 .552-5.775 .857-5.527 1.105-5.222 1.105H0C.305 1.105 .552 .857 .552 .552 .552 .247 .305 0 0 0" fill="#4d4d4f"/>
<path transform="matrix(1,0,0,-1,940.9405,591.633)" stroke-width=".586" stroke-linecap="butt" stroke-miterlimit="10" stroke-linejoin="miter" fill="none" stroke="#424546" d="M0 0H-5.222C-5.527 0-5.775 .247-5.775 .552-5.775 .857-5.527 1.105-5.222 1.105H0C.305 1.105 .552 .857 .552 .552 .552 .247 .305 0 0 0Z"/>
<path transform="matrix(1,0,0,-1,961.5536,591.633)" d="M0 0H-13.054C-13.359 0-13.607 .247-13.607 .552-13.607 .857-13.359 1.105-13.054 1.105H0C.305 1.105 .552 .857 .552 .552 .552 .247 .305 0 0 0" fill="#4d4d4f"/>
<path transform="matrix(1,0,0,-1,961.5536,591.633)" stroke-width=".586" stroke-linecap="butt" stroke-miterlimit="10" stroke-linejoin="miter" fill="none" stroke="#424546" d="M0 0H-13.054C-13.359 0-13.607 .247-13.607 .552-13.607 .857-13.359 1.105-13.054 1.105H0C.305 1.105 .552 .857 .552 .552 .552 .247 .305 0 0 0Z"/>
<path transform="matrix(1,0,0,-1,959.3119,603.14016)" d="M0 0H-10.813C-11.118 0-11.365 .247-11.365 .552-11.365 .857-11.118 1.105-10.813 1.105H0C.305 1.105 .552 .857 .552 .552 .552 .247 .305 0 0 0" fill="#4d4d4f"/>
<path transform="matrix(1,0,0,-1,959.3119,603.14016)" stroke-width=".586" stroke-linecap="butt" stroke-miterlimit="10" stroke-linejoin="miter" fill="none" stroke="#424546" d="M0 0H-10.813C-11.118 0-11.365 .247-11.365 .552-11.365 .857-11.118 1.105-10.813 1.105H0C.305 1.105 .552 .857 .552 .552 .552 .247 .305 0 0 0Z"/>
<path transform="matrix(1,0,0,-1,961.7614,612.4451)" d="M0 0C-.354 0-.703 .111-.999 .328-1.483 .683-1.739 1.258-1.684 1.865L-1.469 4.215C-1.365 5.359-.948 6.456-.264 7.389L8.077 18.762C8.827 19.784 10.25 20.019 11.247 19.288L13.405 17.705C13.892 17.348 14.206 16.819 14.289 16.215 14.372 15.617 14.218 15.016 13.857 14.523L5.516 3.15C4.831 2.217 3.91 1.49 2.851 1.047L.673 .137C.455 .045 .226 0 0 0M9.94 18.61C9.574 18.61 9.207 18.435 8.968 18.109L.627 6.736C.061 5.965-.283 5.059-.369 4.115L-.583 1.765C-.604 1.544-.517 1.344-.345 1.219-.174 1.093 .042 1.069 .247 1.156L2.425 2.066C3.299 2.432 4.059 3.032 4.625 3.803L12.966 15.177C13.157 15.436 13.238 15.752 13.195 16.064 13.153 16.369 12.995 16.636 12.752 16.814L10.594 18.397C10.399 18.541 10.17 18.61 9.94 18.61M2.638 1.556H2.641Z" fill="#4d4d4f"/>
<path transform="matrix(1,0,0,-1,961.7614,612.4451)" stroke-width=".586" stroke-linecap="butt" stroke-miterlimit="10" stroke-linejoin="miter" fill="none" stroke="#424546" d="M0 0C-.354 0-.703 .111-.999 .328-1.483 .683-1.739 1.258-1.684 1.865L-1.469 4.215C-1.365 5.359-.948 6.456-.264 7.389L8.077 18.762C8.827 19.784 10.25 20.019 11.247 19.288L13.405 17.705C13.892 17.348 14.206 16.819 14.289 16.215 14.372 15.617 14.218 15.016 13.857 14.523L5.516 3.15C4.831 2.217 3.91 1.49 2.851 1.047L.673 .137C.455 .045 .226 0 0 0ZM9.94 18.61C9.574 18.61 9.207 18.435 8.968 18.109L.627 6.736C.061 5.965-.283 5.059-.369 4.115L-.583 1.765C-.604 1.544-.517 1.344-.345 1.219-.174 1.093 .042 1.069 .247 1.156L2.425 2.066C3.299 2.432 4.059 3.032 4.625 3.803L12.966 15.177C13.157 15.436 13.238 15.752 13.195 16.064 13.153 16.369 12.995 16.636 12.752 16.814L10.594 18.397C10.399 18.541 10.17 18.61 9.94 18.61ZM2.638 1.556H2.641 2.638Z"/>
</svg>
