<?xml version='1.0' encoding='UTF-8'?>
<svg xmlns="http://www.w3.org/2000/svg" xmlns:xlink="http://www.w3.org/1999/xlink" viewBox="783.15 571.39 63.58 62.05" width="64" height="62"><path transform="matrix(1,0,0,-1,838.1824,620.064)" d="M0 0C-.305 0-.552 .247-.552 .552V28.608C-.552 31.783-3.134 34.366-6.307 34.366H-11.439C-11.744 34.366-11.991 34.614-11.991 34.919-11.991 35.224-11.744 35.471-11.439 35.471H-6.307C-2.525 35.471 .552 32.392 .552 28.608V.552C.552 .247 .305 0 0 0" fill="#4d4d4f"/>
<path transform="matrix(1,0,0,-1,838.1824,620.064)" stroke-width=".586" stroke-linecap="butt" stroke-miterlimit="10" stroke-linejoin="miter" fill="none" stroke="#424546" d="M0 0C-.305 0-.552 .247-.552 .552V28.608C-.552 31.783-3.134 34.366-6.307 34.366H-11.439C-11.744 34.366-11.991 34.614-11.991 34.919-11.991 35.224-11.744 35.471-11.439 35.471H-6.307C-2.525 35.471 .552 32.392 .552 28.608V.552C.552 .247 .305 0 0 0Z"/>
<path transform="matrix(1,0,0,-1,837.1363,625.4497)" d="M0 0H-39.114C-42.899 0-45.977 3.079-45.977 6.863V33.994C-45.977 37.778-42.899 40.857-39.114 40.857H-38.382C-38.077 40.857-37.83 40.609-37.83 40.304-37.83 40-38.077 39.752-38.382 39.752H-39.114C-42.289 39.752-44.873 37.169-44.873 33.994V6.863C-44.873 3.688-42.289 1.104-39.114 1.104H0C.305 1.104 .552 .857 .552 .552 .552 .247 .305 0 0 0" fill="#4d4d4f"/>
<path transform="matrix(1,0,0,-1,837.1363,625.4497)" stroke-width=".586" stroke-linecap="butt" stroke-miterlimit="10" stroke-linejoin="miter" fill="none" stroke="#424546" d="M0 0H-39.114C-42.899 0-45.977 3.079-45.977 6.863V33.994C-45.977 37.778-42.899 40.857-39.114 40.857H-38.382C-38.077 40.857-37.83 40.609-37.83 40.304-37.83 40-38.077 39.752-38.382 39.752H-39.114C-42.289 39.752-44.873 37.169-44.873 33.994V6.863C-44.873 3.688-42.289 1.104-39.114 1.104H0C.305 1.104 .552 .857 .552 .552 .552 .247 .305 0 0 0Z"/>
<path transform="matrix(1,0,0,-1,818.0198,585.6975)" d="M0 0H-10.544C-10.849 0-11.096 .247-11.096 .552-11.096 .857-10.849 1.104-10.544 1.104H0C.305 1.104 .552 .857 .552 .552 .552 .247 .305 0 0 0" fill="#4d4d4f"/>
<path transform="matrix(1,0,0,-1,818.0198,585.6975)" stroke-width=".586" stroke-linecap="butt" stroke-miterlimit="10" stroke-linejoin="miter" fill="none" stroke="#424546" d="M0 0H-10.544C-10.849 0-11.096 .247-11.096 .552-11.096 .857-10.849 1.104-10.544 1.104H0C.305 1.104 .552 .857 .552 .552 .552 .247 .305 0 0 0Z"/>
<path transform="matrix(1,0,0,-1,838.1851,597.1253)" d="M0 0H-46.472C-46.777 0-47.024 .247-47.024 .552-47.024 .857-46.777 1.105-46.472 1.105H0C.305 1.105 .552 .857 .552 .552 .552 .247 .305 0 0 0" fill="#4d4d4f"/>
<path transform="matrix(1,0,0,-1,838.1851,597.1253)" stroke-width=".586" stroke-linecap="butt" stroke-miterlimit="10" stroke-linejoin="miter" fill="none" stroke="#424546" d="M0 0H-46.472C-46.777 0-47.024 .247-47.024 .552-47.024 .857-46.777 1.105-46.472 1.105H0C.305 1.105 .552 .857 .552 .552 .552 .247 .305 0 0 0Z"/>
<path transform="matrix(1,0,0,-1,805.6688,590.01248)" d="M0 0H-.706C-2.007 0-3.066 1.059-3.066 2.36V8.25C-3.066 9.552-2.007 10.61-.706 10.61H0C1.301 10.61 2.359 9.552 2.359 8.25V2.36C2.359 1.059 1.301 0 0 0M-.706 9.506C-1.398 9.506-1.961 8.943-1.961 8.25V2.36C-1.961 1.668-1.398 1.104-.706 1.104H0C.692 1.104 1.255 1.668 1.255 2.36V8.25C1.255 8.943 .692 9.506 0 9.506Z" fill="#4d4d4f"/>
<path transform="matrix(1,0,0,-1,805.6688,590.01248)" stroke-width=".586" stroke-linecap="butt" stroke-miterlimit="10" stroke-linejoin="miter" fill="none" stroke="#424546" d="M0 0H-.706C-2.007 0-3.066 1.059-3.066 2.36V8.25C-3.066 9.552-2.007 10.61-.706 10.61H0C1.301 10.61 2.359 9.552 2.359 8.25V2.36C2.359 1.059 1.301 0 0 0ZM-.706 9.506C-1.398 9.506-1.961 8.943-1.961 8.25V2.36C-1.961 1.668-1.398 1.104-.706 1.104H0C.692 1.104 1.255 1.668 1.255 2.36V8.25C1.255 8.943 .692 9.506 0 9.506H-.706Z"/>
<path transform="matrix(1,0,0,-1,824.9359,590.01248)" d="M0 0H-.706C-2.007 0-3.065 1.059-3.065 2.36V8.25C-3.065 9.552-2.007 10.61-.706 10.61H0C1.301 10.61 2.36 9.552 2.36 8.25V2.36C2.36 1.059 1.301 0 0 0M-.706 9.506C-1.398 9.506-1.961 8.943-1.961 8.25V2.36C-1.961 1.668-1.398 1.104-.706 1.104H0C.692 1.104 1.255 1.668 1.255 2.36V8.25C1.255 8.943 .692 9.506 0 9.506Z" fill="#4d4d4f"/>
<path transform="matrix(1,0,0,-1,824.9359,590.01248)" stroke-width=".586" stroke-linecap="butt" stroke-miterlimit="10" stroke-linejoin="miter" fill="none" stroke="#424546" d="M0 0H-.706C-2.007 0-3.065 1.059-3.065 2.36V8.25C-3.065 9.552-2.007 10.61-.706 10.61H0C1.301 10.61 2.36 9.552 2.36 8.25V2.36C2.36 1.059 1.301 0 0 0ZM-.706 9.506C-1.398 9.506-1.961 8.943-1.961 8.25V2.36C-1.961 1.668-1.398 1.104-.706 1.104H0C.692 1.104 1.255 1.668 1.255 2.36V8.25C1.255 8.943 .692 9.506 0 9.506H-.706Z"/>
</svg>
