<?xml version='1.0' encoding='UTF-8'?>
<svg xmlns="http://www.w3.org/2000/svg" xmlns:xlink="http://www.w3.org/1999/xlink" viewBox="928.13 678.96 79.92 79.92" width="80" height="80"><path transform="matrix(1,0,0,-1,968.1033,718.9318)" d="M0 0V0C0 17.652 14.31 31.962 31.962 31.962 31.962 14.31 17.652 0 0 0" fill="#f2f5c2"/>
<path transform="matrix(1,0,0,-1,936.1417,686.9702)" d="M0 0V0C0-17.652 14.31-31.962 31.962-31.962 31.962-14.31 17.652 0 0 0" fill="#f9ab19"/>
<path transform="matrix(1,0,0,-1,968.1033,718.9318)" d="M0 0V0C0-17.652 14.31-31.962 31.962-31.962 31.962-14.31 17.652 0 0 0" fill="#b5c757"/>
<path transform="matrix(1,0,0,-1,936.1417,750.8935)" d="M0 0V0C0 17.652 14.31 31.962 31.962 31.962 31.962 14.31 17.652 0 0 0" fill="#3b8870"/>
</svg>
