<?xml version='1.0' encoding='UTF-8'?>
<svg xmlns="http://www.w3.org/2000/svg" xmlns:xlink="http://www.w3.org/1999/xlink" viewBox="900.27 291.06 103.56 57.61" width="104" height="58"><path transform="matrix(1,0,0,-1,913.9257,327.344)" d="M0 0H-3.95C-4.279 0-4.545 .266-4.545 .594V30.224C-4.545 30.552-4.279 30.818-3.95 30.818H0C.328 30.818 .594 30.552 .594 30.224V.594C.594 .266 .328 0 0 0M-3.356 1.189H-.59399989V29.629H-3.356Z" fill="#4d4d4f"/>
<path transform="matrix(1,0,0,-1,913.913,338.00813)" d="M0 0H-5.038C-5.366 0-5.632 .266-5.632 .594V5.632C-5.632 5.96-5.366 6.227-5.038 6.227H0C.328 6.227 .594 5.96 .594 5.632V.594C.594 .266 .328 0 0 0M-4.443 1.189H-.5949998V5.038H-4.443Z" fill="#4d4d4f"/>
<path transform="matrix(1,0,0,-1,913.913,346.89753)" d="M0 0H-5.038C-5.366 0-5.632 .266-5.632 .594V5.632C-5.632 5.96-5.366 6.226-5.038 6.226H0C.328 6.226 .594 5.96 .594 5.632V.594C.594 .266 .328 0 0 0M-4.443 1.189H-.5949998V5.037H-4.443Z" fill="#4d4d4f"/>
<path transform="matrix(1,0,0,-1,947.9083,312.8105)" d="M0 0H-5.116C-5.445 0-5.711 .266-5.711 .594V5.71C-5.711 6.039-5.445 6.305-5.116 6.305H0C.328 6.305 .594 6.039 .594 5.71V.594C.594 .266 .328 0 0 0M-4.522 1.189H-.5949998V5.116H-4.522Z" fill="#4d4d4f"/>
<path transform="matrix(1,0,0,-1,959.1,312.8105)" d="M0 0H-5.116C-5.445 0-5.711 .266-5.711 .594V5.71C-5.711 6.039-5.445 6.305-5.116 6.305H0C.328 6.305 .594 6.039 .594 5.71V.594C.594 .266 .328 0 0 0M-4.522 1.189H-.5949998V5.116H-4.522Z" fill="#4d4d4f"/>
<path transform="matrix(1,0,0,-1,947.9083,324.32173)" d="M0 0H-5.116C-5.445 0-5.711 .266-5.711 .594V5.71C-5.711 6.039-5.445 6.305-5.116 6.305H0C.328 6.305 .594 6.039 .594 5.71V.594C.594 .266 .328 0 0 0M-4.522 1.189H-.5949998V5.116H-4.522Z" fill="#4d4d4f"/>
<path transform="matrix(1,0,0,-1,978.5951,299.06105)" d="M0 0H-5.116C-5.444 0-5.711 .266-5.711 .594V5.711C-5.711 6.039-5.444 6.305-5.116 6.305H0C.328 6.305 .594 6.039 .594 5.711V.594C.594 .266 .328 0 0 0M-4.522 1.189H-.5949998V5.116H-4.522Z" fill="#4d4d4f"/>
<path transform="matrix(1,0,0,-1,978.5951,312.49085)" d="M0 0H-5.116C-5.444 0-5.711 .266-5.711 .594V5.711C-5.711 6.039-5.444 6.305-5.116 6.305H0C.328 6.305 .594 6.039 .594 5.711V.594C.594 .266 .328 0 0 0M-4.522 1.189H-.5949998V5.116H-4.522Z" fill="#4d4d4f"/>
<path transform="matrix(1,0,0,-1,989.1256,299.06105)" d="M0 0H-5.116C-5.444 0-5.71 .266-5.71 .594V5.711C-5.71 6.039-5.444 6.305-5.116 6.305H0C.328 6.305 .594 6.039 .594 5.711V.594C.594 .266 .328 0 0 0M-4.521 1.189H-.59399989V5.116H-4.521Z" fill="#4d4d4f"/>
<path transform="matrix(1,0,0,-1,989.1259,312.49085)" d="M0 0H-5.116C-5.445 0-5.711 .266-5.711 .594V5.711C-5.711 6.039-5.445 6.305-5.116 6.305H0C.328 6.305 .594 6.039 .594 5.711V.594C.594 .266 .328 0 0 0M-4.522 1.189H-.5949998V5.116H-4.522Z" fill="#4d4d4f"/>
<path transform="matrix(1,0,0,-1,995.2521,319.43495)" d="M0 0C-.328 0-.594 .266-.594 .594L-.614 23.139V29.776H-27.564V1.143C-27.564 .815-27.83 .549-28.158 .549H-32.955C-33.283 .549-33.549 .815-33.549 1.143V18.326H-55.383V1.746C-55.383 1.418-55.649 1.152-55.977 1.152H-72.817C-73.146 1.152-73.412 1.418-73.412 1.746-73.412 2.074-73.146 2.341-72.817 2.341H-56.572V18.921C-56.572 19.249-56.306 19.515-55.977 19.515H-32.955C-32.626 19.515-32.36 19.249-32.36 18.921V1.738H-28.753V30.371C-28.753 30.699-28.487 30.965-28.158 30.965H-.02C.309 30.965 .575 30.699 .575 30.371V23.139L.594 .595C.595 .267 .329 0 0 0Z" fill="#4d4d4f"/>
</svg>
