<?xml version='1.0' encoding='UTF-8'?>
<svg xmlns="http://www.w3.org/2000/svg" xmlns:xlink="http://www.w3.org/1999/xlink" viewBox="914.44 477.06 69.69 43.70" width="70" height="44"><path transform="matrix(1,0,0,-1,938.98,485.0733)" d="M0 0C-.035 0-.069 .003-.104 .01-.411 .067-.613 .362-.556 .669 .844 8.182 5.766 13.428 11.414 13.428 15.636 13.428 19.52 10.517 21.801 5.641 21.934 5.358 21.812 5.022 21.529 4.89 21.247 4.758 20.91 4.879 20.778 5.162 18.686 9.63 15.186 12.298 11.414 12.298 6.32 12.298 1.854 7.431 .555 .462 .504 .19 .267 0 0 0" fill="#4d4d4f"/>
<path transform="matrix(1,0,0,-1,950.3938,524.4004)" d="M0 0C-.312 0-.565 .253-.565 .565V12.072C-.565 12.384-.312 12.637 0 12.637 .312 12.637 .565 12.384 .565 12.072V.565C.565 .253 .312 0 0 0" fill="#4d4d4f"/>
<path transform="matrix(1,0,0,-1,939.4706,516.12356)" d="M0 0C-.247 0-.474 .164-.544 .413-.628 .714-.452 1.026-.152 1.11 4.434 2.391 7.892 5.836 7.892 9.122 7.892 13.191 1.992 27.829-3.996 27.829-9.987 27.829-15.889 13.191-15.889 9.122-15.889 5.833-12.429 2.388-7.842 1.11-7.541 1.026-7.365 .714-7.448 .414-7.533 .113-7.845-.062-8.145 .021-13.204 1.431-17.019 5.343-17.019 9.122-17.019 13.699-10.863 28.96-3.996 28.96 2.868 28.96 9.022 13.699 9.022 9.122 9.022 5.347 5.209 1.434 .152 .021 .102 .007 .05 0 0 0" fill="#4d4d4f"/>
<path transform="matrix(1,0,0,-1,935.4735,524.4004)" d="M0 0C-.312 0-.565 .253-.565 .565V11.057C-.565 11.369-.312 11.622 0 11.622 .312 11.622 .565 11.369 .565 11.057V.565C.565 .253 .312 0 0 0" fill="#4d4d4f"/>
<path transform="matrix(1,0,0,-1,967.7189,514.1251)" d="M0 0C-.247 0-.474 .164-.544 .413-.628 .714-.452 1.026-.152 1.11 4.301 2.353 7.293 5.639 7.293 9.286 7.293 11.814 5.862 14.215 3.368 15.874 3.229 15.966 3.138 16.116 3.12 16.282 3.101 16.449 3.157 16.615 3.273 16.735 4.693 18.216 5.474 20.096 5.474 22.028 5.474 26.58 1.226 30.283-3.996 30.283-9.22 30.283-13.471 26.58-13.471 22.028-13.471 20.099-12.688 18.219-11.266 16.735-11.15 16.615-11.094 16.448-11.112 16.282-11.13 16.116-11.222 15.966-11.361 15.873-13.858 14.216-15.289 11.815-15.289 9.286-15.289 5.639-12.296 2.353-7.841 1.11-7.54 1.026-7.365 .714-7.449 .413-7.532 .113-7.845-.062-8.145 .021-13.094 1.402-16.419 5.125-16.419 9.286-16.419 12.011-15.006 14.588-12.519 16.441-13.866 18.052-14.601 20.014-14.601 22.028-14.601 27.203-9.844 31.413-3.996 31.413 1.849 31.413 6.605 27.203 6.605 22.028 6.605 20.011 5.871 18.05 4.526 16.441 7.011 14.587 8.423 12.01 8.423 9.286 8.423 5.126 5.099 1.402 .152 .021 .102 .007 .05 0 0 0" fill="#4d4d4f"/>
<path transform="matrix(1,0,0,-1,963.7214,524.4004)" d="M0 0C-.312 0-.565 .253-.565 .565V15.153C-.565 15.465-.312 15.718 0 15.718 .312 15.718 .565 15.465 .565 15.153V.565C.565 .253 .312 0 0 0" fill="#4d4d4f"/>
</svg>
