<?xml version='1.0' encoding='UTF-8'?>
<svg xmlns="http://www.w3.org/2000/svg" xmlns:xlink="http://www.w3.org/1999/xlink" viewBox="602.89 401.29 54.11 21.47" width="54" height="21"><path transform="matrix(1,0,0,-1,621.8101,441.4894)" d="M0 0C-1.657 0-3.2 .823-4.59 2.45-9.953 8.724-11.618 25.096-10.66 30.105-10.143 32.804-8.334 34.48-5.696 34.703-2.735 34.952 .37 33.294 1.226 31.004 1.316 30.763 1.194 30.494 .952 30.404 .712 30.314 .442 30.436 .351 30.678-.356 32.569-3.089 33.986-5.617 33.773-6.904 33.664-9.151 33.02-9.743 29.93-10.65 25.187-8.98 9.023-3.88 3.056-2.638 1.603-1.284 .889 .134 .936 .39 .948 .607 .742 .616 .484 .624 .227 .422 .011 .164 .003 .109 .001 .055 0 0 0" fill="#4d4d4f"/>
<path transform="matrix(1,0,0,-1,637.1233,442.7538)" d="M0 0C-.491 0-.989 .061-1.495 .183-1.746 .244-1.9 .496-1.84 .747-1.779 .998-1.526 1.152-1.276 1.091 .409 .684 2.006 1.084 3.469 2.278 8.698 6.546 11.2 19.902 10.932 27.502 10.922 27.76 11.124 27.976 11.382 27.985 11.641 27.988 11.856 27.793 11.865 27.535 12.01 23.42 11.36 18.001 10.169 13.392 9.146 9.431 7.255 4.163 4.06 1.555 2.792 .52 1.432 0 0 0" fill="#4d4d4f"/>
<path transform="matrix(1,0,0,-1,648.1276,412.31224)" d="M0 0C-.212 0-.404 .145-.454 .361-.89 2.228-1.711 3.425-2.895 3.919-5.567 5.034-9.786 2.445-11.173 1.594-11.392 1.459-11.68 1.528-11.815 1.747-11.95 1.967-11.881 2.255-11.661 2.389-9.08 3.974-5.326 5.945-2.536 4.781-1.059 4.164-.053 2.749 .455 .573 .514 .322 .358 .071 .107 .012 .071 .004 .035 0 0 0" fill="#4d4d4f"/>
<path transform="matrix(1,0,0,-1,639.4187,409.29704)" d="M0 0C-.145 0-.288 .067-.379 .194-.759 .72-2.394 2.249-4.849 2.367-6.898 2.465-7.264 3.271-8.241 5.423-8.697 6.427-9.32 7.801-10.343 9.632-13.136 14.628-16.656 14.284-17.981 14.154-18.047 14.148-18.106 14.142-18.16 14.138-18.393 13.712-18.354 11.746-17.656 10.861-17.411 10.55-17.17 10.495-16.827 10.671-16.064 11.063-15.351 11.101-14.708 10.786-13.538 10.212-12.695 8.472-12.131 5.465-11.892 4.188-12.237 3.047-13.13 2.165-14.635 .677-17.351 .254-19.139 .612-19.392 .662-19.556 .908-19.506 1.161-19.455 1.414-19.209 1.578-18.956 1.527-17.381 1.212-15.016 1.613-13.786 2.829-13.115 3.492-12.866 4.321-13.049 5.293-13.67 8.605-14.517 9.652-15.119 9.947-15.488 10.129-15.907 10.094-16.401 9.84-17.021 9.522-17.633 9.581-18.125 10.005-19.159 10.897-19.437 13.278-19.07 14.36-18.873 14.944-18.509 15.051-18.31 15.063-18.247 15.066-18.167 15.074-18.072 15.084-16.723 15.215-12.618 15.617-9.528 10.087-8.486 8.223-7.853 6.828-7.391 5.809-6.453 3.743-6.284 3.37-4.804 3.299-1.969 3.164-.102 1.406 .378 .74 .529 .531 .482 .239 .272 .088 .19 .029 .094 0 0 0" fill="#4d4d4f"/>
<path transform="matrix(1,0,0,-1,631.3629,444.1239)" d="M0 0C-.317 0-.643 .016-.98 .05L-1.291 .08C-7.866 .728-13.06 1.239-13.904 16.432-13.918 16.689-13.721 16.91-13.464 16.924-13.211 16.94-12.986 16.741-12.972 16.484-12.172 2.09-7.807 1.66-1.199 1.01L-.888 .979C5.229 .375 8.226 5.827 9.805 20.431 10.379 25.748 9.662 29.535 7.674 31.688 5.283 34.277 1.388 34.167-1.456 34.087L-1.823 34.077C-9.572 33.872-11.432 31.628-12.027 27.822-12.067 27.567-12.305 27.393-12.56 27.432-12.815 27.472-12.989 27.711-12.95 27.966-11.972 34.221-6.929 34.876-1.847 35.011L-1.482 35.021C1.541 35.106 5.681 35.223 8.36 32.322 10.57 29.929 11.346 26.006 10.733 20.331 9.415 8.145 7.052 0 0 0" fill="#4d4d4f"/>
</svg>
