<?xml version='1.0' encoding='UTF-8'?>
<svg xmlns="http://www.w3.org/2000/svg" xmlns:xlink="http://www.w3.org/1999/xlink" viewBox="695.54 470.23 63.69 46.26" width="64" height="46"><path transform="matrix(1,0,0,-1,724.5333,500.56114)" d="M0 0C-.227 0-.421 .172-.443 .403-.558 1.612-.334 2.536 .223 3.148 .752 3.731 1.578 4.026 2.677 4.026 3.728 4.026 4.542 3.73 5.094 3.148 5.679 2.531 5.944 1.614 5.882 .422 5.869 .177 5.662-.005 5.413 .001 5.168 .014 4.979 .223 4.992 .469 5.042 1.407 4.858 2.102 4.448 2.535 4.07 2.933 3.474 3.135 2.677 3.135 1.827 3.135 1.24 2.943 .882 2.549 .501 2.13 .353 1.437 .444 .488 .467 .243 .288 .025 .043 .002 .028 .001 .014 0 0 0" fill="#4d4d4f"/>
<path transform="matrix(1,0,0,-1,717.1636,500.5614)" d="M0 0C-.212 0-.4 .152-.438 .368-.792 2.381-.161 3.381 .43 3.866 1.34 4.613 2.561 4.53 3.402 4.203 4.272 3.865 4.85 3.247 4.95 2.551 4.953 2.53 4.954 2.509 4.954 2.488 4.954 2.242 4.755 2.04 4.509 2.04 4.276 2.04 4.085 2.216 4.065 2.443 4.003 2.8 3.619 3.163 3.079 3.373 2.501 3.598 1.609 3.681 .995 3.178 .41 2.698 .218 1.78 .439 .523 .482 .28 .32 .049 .078 .007 .052 .002 .026 0 0 0" fill="#4d4d4f"/>
<path transform="matrix(1,0,0,-1,729.9815,494.4364)" d="M0 0C-.012 0-.024 0-.036 .001-.282 .021-.464 .236-.445 .481-.262 2.736-1.341 3.05-2.56 3.192-3.244 3.272-4.174 3.255-4.723 2.719-5.119 2.332-5.28 1.695-5.199 .824-5.177 .579-5.357 .363-5.602 .34-5.851 .317-6.064 .498-6.087 .743-6.193 1.894-5.943 2.773-5.345 3.357-4.546 4.137-3.332 4.179-2.456 4.077-.982 3.905 .68 3.332 .443 .409 .424 .176 .23 0 0 0" fill="#4d4d4f"/>
<path transform="matrix(1,0,0,-1,717.5437,494.1033)" d="M0 0C-.016 0-.033 .001-.05 .003-.294 .03-.47 .25-.443 .494-.241 2.323 .074 3.589 1.017 4.251 1.816 4.811 2.962 4.871 4.735 4.443 4.974 4.385 5.121 4.145 5.063 3.906 5.005 3.666 4.765 3.519 4.526 3.577 3.044 3.934 2.092 3.917 1.529 3.522 .862 3.054 .612 1.934 .442 .396 .417 .169 .224 0 0 0" fill="#4d4d4f"/>
<path transform="matrix(1,0,0,-1,729.6446,488.18473)" d="M0 0C-.012 0-.023 0-.035 .001-.28 .02-.464 .234-.445 .48-.385 1.255-.524 1.817-.859 2.148-1.183 2.47-1.717 2.601-2.447 2.539-4.578 2.355-4.75 1.274-4.694 .477-4.677 .231-4.862 .018-5.107 .001-5.349-.018-5.566 .168-5.583 .414-5.75 2.792-3.738 3.322-2.524 3.426-1.52 3.512-.75 3.295-.232 2.781 .297 2.257 .524 1.46 .443 .411 .425 .178 .23 0 0 0" fill="#4d4d4f"/>
<path transform="matrix(1,0,0,-1,718.7623,488.18324)" d="M0 0C-.007 0-.014 0-.021 0-.266 .012-.456 .22-.445 .466-.371 2.068 .485 3.777 1.927 3.788H1.956C2.609 3.788 3.065 3.665 3.461 3.532 3.694 3.453 3.819 3.201 3.741 2.968 3.662 2.735 3.411 2.609 3.177 2.687 2.871 2.79 2.491 2.891 1.933 2.897 1.257 2.892 .516 1.966 .445 .425 .434 .186 .237 0 0 0" fill="#4d4d4f"/>
<path transform="matrix(1,0,0,-1,729.3547,482.6398)" d="M0 0C-.011 0-.022 0-.033 .001-.279 .019-.463 .233-.445 .478-.387 1.264-.52 1.839-.839 2.188-1.131 2.507-1.617 2.673-2.283 2.682-2.846 2.697-3.279 2.532-3.585 2.214-3.951 1.832-4.138 1.196-4.098 .47-4.084 .224-4.273 .014-4.518 .001-4.769-.01-4.974 .175-4.987 .421-5.042 1.407-4.772 2.263-4.228 2.831-3.751 3.327-3.07 3.578-2.271 3.573-1.35 3.56-.647 3.297-.183 2.79 .309 2.253 .52 1.453 .444 .413 .426 .178 .231 0 0 0" fill="#4d4d4f"/>
<path transform="matrix(1,0,0,-1,729.9914,478.24253)" d="M0 0C-.019 0-.037 .001-.056 .003-.3 .034-.473 .257-.442 .501-.374 1.042-.532 1.519-.911 1.919-1.521 2.563-2.481 2.801-2.749 2.78-2.983 2.763-5.04 2.56-5.232 .666-5.257 .422-5.474 .241-5.72 .268-5.965 .293-6.143 .511-6.118 .756-5.903 2.882-3.939 3.587-2.813 3.668-2.238 3.709-1.028 3.338-.264 2.532 .299 1.937 .543 1.196 .441 .39 .413 .165 .221 0 0 0" fill="#4d4d4f"/>
<path transform="matrix(1,0,0,-1,720.4998,483.00083)" d="M0 0C-.047 0-.095 .008-.142 .023-.376 .102-.501 .355-.422 .588-.138 1.428 .479 2.917 1.429 3.451 1.644 3.572 1.915 3.496 2.036 3.282 2.157 3.067 2.08 2.796 1.866 2.675 1.369 2.395 .829 1.509 .422 .303 .359 .117 .186 0 0 0" fill="#4d4d4f"/>
<path transform="matrix(1,0,0,-1,737.4495,500.56114)" d="M0 0C-.026 0-.052 .002-.078 .007-.32 .049-.482 .28-.439 .522-.204 1.861-.435 2.808-1.106 3.26-1.805 3.731-2.846 3.568-3.471 3.177-3.671 3.052-4.13 2.71-4.065 2.251-4.03 2.008-4.2 1.782-4.443 1.748-4.687 1.715-4.912 1.883-4.947 2.126-5.043 2.803-4.668 3.478-3.944 3.932-3.086 4.469-1.677 4.719-.609 3.999 .079 3.536 .818 2.531 .438 .368 .4 .152 .212 0 0 0" fill="#4d4d4f"/>
<path transform="matrix(1,0,0,-1,737.0709,494.10304)" d="M0 0C-.224 0-.417 .168-.442 .396-.613 1.941-.866 3.065-1.541 3.529-2.138 3.94-3.178 3.932-4.812 3.505-5.049 3.443-5.293 3.585-5.355 3.823-5.418 4.061-5.275 4.304-5.037 4.366-3.107 4.871-1.874 4.839-1.036 4.263-.079 3.606 .24 2.334 .443 .494 .47 .25 .294 .03 .05 .003 .033 .001 .016 0 0 0" fill="#4d4d4f"/>
<path transform="matrix(1,0,0,-1,735.851,488.18324)" d="M0 0C-.237 0-.434 .187-.445 .426-.513 1.966-1.255 2.892-1.933 2.897-2.556 2.907-2.938 2.771-3.347 2.632L-3.466 2.591C-3.699 2.513-3.952 2.638-4.03 2.872-4.108 3.105-3.982 3.357-3.749 3.435L-3.634 3.475C-3.194 3.625-2.699 3.794-1.926 3.788-.847 3.78 .351 2.613 .445 .465 .456 .219 .266 .011 .02 0 .013 0 .007 0 0 0" fill="#4d4d4f"/>
<path transform="matrix(1,0,0,-1,734.114,483.00083)" d="M0 0C-.186 0-.36 .118-.422 .304-.973 1.952-1.665 2.722-2.106 2.755-2.352 2.774-2.536 2.987-2.517 3.233-2.499 3.478-2.283 3.664-2.04 3.644-.706 3.544 .126 1.473 .422 .587 .5 .353 .374 .101 .141 .023 .094 .007 .047 0 0 0" fill="#4d4d4f"/>
<path transform="matrix(1,0,0,-1,728.597,522.766)" d="M0 0C-.456 0-.917 .014-1.383 .044-15.413 .932-19.89 10.839-22.565 16.758-23.415 18.64-24.15 20.266-24.912 20.962-25.084 21.119-25.106 21.382-24.963 21.566-24.819 21.749-24.558 21.79-24.365 21.662-21.369 19.665-16.586 19.768-12.369 19.858-8.013 19.952-4.253 20.032-2.662 18.015-2.51 17.822-2.543 17.542-2.736 17.39-2.93 17.238-3.209 17.271-3.362 17.464-4.677 19.132-8.403 19.053-12.35 18.967-15.99 18.889-20.039 18.802-23.155 20.038-22.706 19.235-22.259 18.244-21.753 17.125-18.993 11.017-14.822 1.787-1.327 .933 4.667 .551 9.883 2.741 14.169 7.435 19.213 12.958 21.468 20.392 21.717 23.781 19.917 22.085 15.641 19.979 10.886 19.399 10.562 19.36 10.23 19.321 9.893 19.282 4.056 18.605-3.208 17.763-3.836 7.854-3.852 7.608-4.068 7.426-4.309 7.437-4.554 7.453-4.741 7.664-4.725 7.91-4.05 18.562 3.949 19.49 9.79 20.167 10.126 20.206 10.456 20.244 10.778 20.284 16.769 21.014 21.319 24.062 21.719 25.207 21.787 25.4 21.98 25.524 22.18 25.504 22.384 25.485 22.548 25.33 22.58 25.128 23.021 22.284 20.684 13.249 14.826 6.834 10.681 2.295 5.699 0 0 0" fill="#4d4d4f"/>
<path transform="matrix(1,0,0,-1,731.9149,517.5552)" d="M0 0C-.19 0-.366 .123-.425 .314-.498 .549-.366 .799-.131 .871 6.688 2.973 10.854 8.809 10.895 8.868 11.036 9.069 11.314 9.117 11.515 8.976 11.716 8.835 11.765 8.557 11.624 8.356 11.448 8.106 7.25 2.214 .131 .02 .088 .006 .043 0 0 0" fill="#4d4d4f"/>
</svg>
