<?xml version='1.0' encoding='UTF-8'?>
<svg xmlns="http://www.w3.org/2000/svg" xmlns:xlink="http://www.w3.org/1999/xlink" viewBox="658.98 397.57 70.43 37.77" width="70" height="38"><path transform="matrix(1,0,0,-1,689.5437,442.8579)" d="M0 0C-.249 0-.465 .185-.497 .438-1.251 6.363-5.921 13.624-7.936 16.026-8.114 16.239-8.086 16.555-7.874 16.733-7.661 16.911-7.345 16.882-7.167 16.671-5.008 14.095-.292 6.769 .498 .565 .533 .29 .339 .039 .064 .004 .042 .001 .021 0 0 0" fill="#4d4d4f"/>
<path transform="matrix(1,0,0,-1,692.8281,432.07493)" d="M0 0H-.002C-.224 .001-.418 .147-.481 .36-1.107 2.483-1.825 4.042-2.743 5.265-2.909 5.486-2.864 5.801-2.643 5.967-2.421 6.133-2.107 6.088-1.941 5.867-1.172 4.842-.537 3.614 .018 2.07 .707 3.848 1.672 5.78 2.194 6.468 2.361 6.689 2.675 6.731 2.896 6.564 3.117 6.397 3.16 6.082 2.992 5.862 2.437 5.13 1.09 2.372 .48 .356 .416 .145 .221 0 0 0" fill="#4d4d4f"/>
<path transform="matrix(1,0,0,-1,696.041,434.68873)" d="M0 0C-.039 0-.078 .004-.118 .014-.387 .078-.553 .349-.488 .619-.155 2.005 2.263 7.271 3.322 8.506 3.502 8.716 3.818 8.741 4.029 8.56 4.239 8.38 4.263 8.064 4.083 7.853 3.196 6.818 .813 1.743 .487 .384 .432 .154 .227 0 0 0" fill="#4d4d4f"/>
<path transform="matrix(1,0,0,-1,699.655,442.8579)" d="M0 0C-.043 0-.086 .005-.129 .017-.397 .088-.556 .363-.485 .63 .396 3.944 2.491 10.26 6.631 15.326 6.805 15.54 7.122 15.573 7.336 15.397 7.551 15.222 7.582 14.906 7.407 14.691 4.471 11.098 1.948 5.879 .484 .372 .425 .148 .222 0 0 0" fill="#4d4d4f"/>
<path transform="matrix(1,0,0,-1,676.7595,429.84223)" d="M0 0C-1.128 0-2.215 .275-3.147 .808-4.445 1.55-5.291 2.7-5.528 4.045-5.764 5.391-5.362 6.76-4.394 7.901-4.216 8.112-3.899 8.138-3.688 7.959-3.476 7.779-3.451 7.463-3.63 7.252-4.401 6.343-4.724 5.266-4.54 4.219-4.356 3.172-3.684 2.27-2.649 1.679-1.584 1.07-.268 .863 1.057 1.096 3.382 1.505 5.165 3.206 5.295 5.14 5.314 5.417 5.554 5.623 5.829 5.607 6.105 5.588 6.314 5.349 6.296 5.073 6.134 2.684 4.004 .596 1.23 .108 .818 .036 .406 0 0 0" fill="#4d4d4f"/>
<path transform="matrix(1,0,0,-1,675.6537,423.29173)" d="M0 0C-.855 0-1.701 .132-2.527 .395-4.847 1.134-6.707 2.823-7.767 5.15-8.819 7.46-8.955 10.126-8.149 12.656-7.343 15.186-5.69 17.283-3.496 18.559-1.285 19.845 1.21 20.146 3.529 19.407 4.407 19.127 5.227 18.707 5.966 18.159 6.189 17.994 6.235 17.68 6.071 17.457 5.906 17.235 5.591 17.188 5.369 17.353 4.718 17.836 3.997 18.205 3.225 18.451 1.179 19.103-1.029 18.833-2.992 17.692-4.971 16.541-6.463 14.645-7.193 12.352-7.924 10.059-7.803 7.649-6.854 5.566-5.914 3.5-4.269 2.003-2.223 1.351-1.059 .98 .148 .905 1.367 1.129 1.64 1.178 1.901 .999 1.951 .726 2.001 .454 1.82 .192 1.548 .142 1.03 .047 .513 0 0 0" fill="#4d4d4f"/>
<path transform="matrix(1,0,0,-1,695.3116,405.9443)" d="M0 0C-.033 0-.066 .003-.099 .01-.371 .064-.547 .328-.492 .6-.426 .933-.392 1.273-.392 1.611-.392 5.118-3.954 7.971-8.331 7.971-12.642 7.971-16.203 5.163-16.269 1.71-16.274 1.434-16.496 1.2-16.78 1.219-17.057 1.224-17.277 1.453-17.272 1.73-17.196 5.724-13.185 8.974-8.331 8.974-3.401 8.974 .611 5.671 .611 1.611 .611 1.208 .571 .801 .491 .403 .443 .165 .234 0 0 0" fill="#4d4d4f"/>
<path transform="matrix(1,0,0,-1,712.7089,405.57774)" d="M0 0C-.023 0-.045 .001-.068 .005-.342 .041-.535 .294-.498 .569-.467 .79-.452 1.018-.452 1.245-.452 4.977-4.551 8.013-9.589 8.013-11.968 8.013-14.222 7.336-15.936 6.107-16.16 5.946-16.474 5.998-16.635 6.223-16.797 6.448-16.745 6.761-16.52 6.923-14.637 8.272-12.176 9.016-9.589 9.016-3.998 9.016 .55 5.53 .55 1.245 .55 .973 .532 .701 .496 .434 .462 .183 .247 0 0 0" fill="#4d4d4f"/>
<path transform="matrix(1,0,0,-1,718.3002,419.6306)" d="M0 0C-.135 0-.269 .054-.368 .161-.556 .364-.544 .681-.341 .87 1.245 2.336 2.117 4.243 2.117 6.24 2.117 10.602-2.03 14.151-7.128 14.151-8.176 14.151-9.204 14.003-10.184 13.709-10.45 13.629-10.729 13.78-10.808 14.045-10.888 14.31-10.738 14.59-10.472 14.669-9.399 14.991-8.274 15.154-7.128 15.154-1.477 15.154 3.12 11.155 3.12 6.24 3.12 3.96 2.133 1.792 .341 .133 .244 .044 .122 0 0 0" fill="#4d4d4f"/>
<path transform="matrix(1,0,0,-1,711.1719,429.2434)" d="M0 0C-1.659 0-3.283 .323-4.698 .933-4.952 1.043-5.069 1.338-4.959 1.593-4.85 1.847-4.556 1.965-4.3 1.854-3.01 1.297-1.523 1.003 0 1.003 4.498 1.003 8.157 3.529 8.157 6.634 8.157 7.753 7.677 8.835 6.77 9.766 6.577 9.964 6.581 10.281 6.779 10.475 6.977 10.667 7.295 10.664 7.488 10.466 8.582 9.344 9.16 8.02 9.16 6.634 9.16 2.976 5.051 0 0 0" fill="#4d4d4f"/>
<path transform="matrix(1,0,0,-1,688.6478,419.87254)" d="M0 0C-.121 0-.243 .044-.339 .133-.544 .32-.557 .637-.369 .841 .777 2.085 1.25 3.814 .896 5.466 .838 5.737 1.011 6.004 1.282 6.062 1.55 6.119 1.819 5.947 1.877 5.676 2.298 3.706 1.735 1.645 .369 .162 .27 .055 .135 0 0 0" fill="#4d4d4f"/>
<path transform="matrix(1,0,0,-1,712.7576,415.74003)" d="M0 0C-.088 0-.177 .023-.258 .072-1.687 .931-3.442 1.025-4.953 .323-5.204 .206-5.503 .315-5.619 .566-5.736 .817-5.627 1.115-5.376 1.232-3.562 2.075-1.456 1.962 .259 .931 .496 .788 .573 .48 .43 .243 .336 .087 .17 0 0 0" fill="#4d4d4f"/>
</svg>
