<?xml version='1.0' encoding='UTF-8'?>
<svg xmlns="http://www.w3.org/2000/svg" xmlns:xlink="http://www.w3.org/1999/xlink" viewBox="989.90 494.53 83.34 29.43" width="83" height="29"><path transform="matrix(1,0,0,-1,1013.7129,525.3552)" d="M0 0-1.081 .288C-1.001 .59 .971 7.778 8.456 15.48 12.84 19.993 18.216 23.731 24.433 26.593 32.186 30.161 41.276 32.366 51.452 33.148L51.538 32.032C28.857 30.29 16.053 21.673 9.307 14.75 2 7.254 .019 .072 0 0" fill="#4d4d4f"/>
<path transform="matrix(1,0,0,-1,1025.7953,525.4137)" d="M0 0-1.043 .405C-.957 .629 1.153 5.96 7.21 11.561 10.759 14.843 14.932 17.528 19.615 19.542 25.455 22.054 32.106 23.522 39.383 23.905L39.442 22.787C23.311 21.939 13.448 15.79 8.016 10.782 2.127 5.353 .021 .053 0 0" fill="#4d4d4f"/>
<path transform="matrix(1,0,0,-1,1037.8589,525.4922)" d="M0 0-.968 .562C-.854 .758 1.893 5.412 8.133 9.522L8.749 8.587C2.726 4.621 .026 .046 0 0" fill="#4d4d4f"/>
<path transform="matrix(1,0,0,-1,1056.5233,512.8892)" d="M0 0-.323 1.071C-.156 1.122 3.824 2.309 8.702 2.154L8.667 1.035C3.981 1.183 .039 .012 0 0" fill="#4d4d4f"/>
<path transform="matrix(1,0,0,-1,1032.7446,502.54054)" d="M0 0C-15.936 10.068-34.588 9.227-34.773 9.217L-34.832 10.334C-34.637 10.344-29.992 10.571-23.272 9.534-17.07 8.578-7.894 6.311 .598 .946Z" fill="#4d4d4f"/>
<path transform="matrix(1,0,0,-1,1022.4987,509.49873)" d="M0 0C-12.634 5.662-24.425 5.421-24.542 5.416L-24.572 6.535C-24.45 6.537-12.419 6.792 .458 1.021Z" fill="#4d4d4f"/>
<path transform="matrix(1,0,0,-1,1016.5581,517.9852)" d="M0 0C-.062 .037-6.347 3.713-18.619 3.786L-18.613 4.905C-6.001 4.83 .314 1.117 .576 .959L-.001 0 .288 .48Z" fill="#4d4d4f"/>
<path transform="matrix(1,0,0,-1,1051.9379,515.683)" d="M0 0C-1.127 0-2.044 .917-2.044 2.044-2.044 3.17-1.127 4.087 0 4.087 1.127 4.087 2.044 3.17 2.044 2.044 2.044 .917 1.127 0 0 0M0 2.968C-.51 2.968-.925 2.553-.925 2.044-.925 1.534-.51 1.119 0 1.119 .51 1.119 .924 1.534 .924 2.044 .924 2.553 .51 2.968 0 2.968" fill="#4d4d4f"/>
</svg>
