<?xml version='1.0' encoding='UTF-8'?>
<svg xmlns="http://www.w3.org/2000/svg" xmlns:xlink="http://www.w3.org/1999/xlink" viewBox="530.97 400.32 63.76 25.68" width="64" height="26"><path transform="matrix(1,0,0,-1,551.2563,442.7423)" d="M0 0C-7.018 0-12.016 9.642-12.28 18.648-12.441 24.11-10.735 29.053-7.599 32.208-5.45 34.371-2.819 35.485 .011 35.414 .937 35.392 1.858 35.244 2.747 34.974 2.778 34.964 2.808 34.952 2.837 34.937L2.955 34.874C3.198 34.745 3.29 34.443 3.161 34.199 3.032 33.956 2.731 33.863 2.487 33.993L2.412 34.033C1.623 34.268 .807 34.397-.012 34.417-2.558 34.48-4.94 33.469-6.891 31.505-9.792 28.586-11.433 23.791-11.283 18.678-11.032 10.139-6.439 .998 0 .998 .872 .998 1.737 1.128 2.571 1.384 2.581 1.387 2.592 1.39 2.603 1.392L2.772 1.432C3.039 1.495 3.308 1.329 3.371 1.06 3.434 .792 3.268 .524 3 .461L2.847 .425C1.924 .143 .966 0 0 0" fill="#4d4d4f"/>
<path transform="matrix(1,0,0,-1,547.8702,415.6073)" d="M0 0C-.073 0-.146 .016-.216 .05-.464 .169-.569 .467-.449 .716 1.916 5.623 6.019 8.806 10.259 9.023 11.381 9.081 12.566 8.899 13.689 8.495 13.949 8.402 14.083 8.117 13.99 7.857 13.897 7.598 13.611 7.464 13.352 7.557 12.353 7.916 11.3 8.079 10.31 8.027 6.435 7.828 2.656 4.861 .45 .282 .364 .104 .186 0 0 0" fill="#4d4d4f"/>
<path transform="matrix(1,0,0,-1,557.2843,443.4324)" d="M0 0C-.021 0-.042 .001-.062 .004-6.744 .839-11.075 10.083-11.759 18.356-11.944 20.593-11.74 22.846-11.153 25.051-11.082 25.317-10.808 25.475-10.542 25.405-10.276 25.334-10.118 25.061-10.188 24.794-10.746 22.7-10.94 20.561-10.764 18.438-9.999 9.169-5.345 1.669 .061 .994 .335 .96 .529 .71 .494 .437 .463 .185 .248 0 0 0" fill="#4d4d4f"/>
<path transform="matrix(1,0,0,-1,575.7521,442.6083)" d="M0 0C-.233 0-.442 .165-.489 .403-.542 .673-.366 .935-.096 .988 4.302 1.855 9.15 8.171 9.905 18.565 10.303 24.045 9.005 28.606 6.249 31.41 4.241 33.453 1.611 34.446-1.351 34.283-2.195 34.237-3.143 34.069-3.954 33.823-4.199 33.749-4.46 33.872-4.559 34.108-4.658 34.344-4.562 34.616-4.337 34.739L-4.223 34.801C-4.138 34.847-4.045 34.865-3.956 34.86-3.141 35.083-2.228 35.234-1.406 35.279 1.803 35.459 4.777 34.331 6.961 32.109 9.92 29.098 11.319 24.262 10.9 18.493 10.301 10.248 6.398 1.251 .097 .01 .064 .003 .032 0 0 0" fill="#4d4d4f"/>
<path transform="matrix(1,0,0,-1,567.4769,443.4869)" d="M0 0C-1.006 0-2.084 .188-3.12 .544-3.381 .634-3.519 .918-3.43 1.178-3.34 1.438-3.057 1.578-2.796 1.488-1.863 1.167-.897 .998 0 .998 5.008 1 10.73 7.545 11.634 18.493 12.304 26.593 7.526 34.497 1.199 35.754 .929 35.807 .753 36.07 .807 36.34 .861 36.61 1.122 36.785 1.393 36.732 8.193 35.382 13.338 26.991 12.629 18.411 11.881 9.364 6.953 .004 0 0" fill="#4d4d4f"/>
<path transform="matrix(1,0,0,-1,562.8845,443.4858)" d="M0 0C-.027 0-.054 0-.081 .001-4.749 .112-7.49 9.584-7.699 18.44-7.895 26.774-4.831 36.4-.121 36.885 1 37.001 2.162 36.5 3.239 35.438 6.422 32.298 8.38 24.973 7.793 18.4L7.297 18.444 7.793 18.4C7.33 13.211 6.44 8.771 5.219 5.561 3.816 1.87 2.06 0 0 0M.197 35.904C.125 35.904 .054 35.9-.018 35.893-3.722 35.511-6.907 27.204-6.701 18.463-6.476 8.915-3.496 1.08-.058 .998-.04 .998-.022 .998-.005 .998 3.182 .997 5.85 7.846 6.8 18.489 7.441 25.674 5.083 32.218 2.539 34.727 1.982 35.276 1.14 35.904 .197 35.904" fill="#4d4d4f"/>
<path transform="matrix(1,0,0,-1,575.7009,408.32884)" d="M0 0C-.248 0-.463 .185-.494 .438-.801 2.923-3.32 3.384-6.581 3.728-8.246 3.904-9.56 4.042-10.084 4.778-10.226 4.978-10.371 5.315-10.267 5.793-10.094 7.075-10.646 13.879-11.098 15.023-11.238 15.196-12.341 15.273-13.851 14.769-15.342 14.27-16.394 13.481-16.411 12.85-16.428 12.184-15.519 10.996-14.718 9.949-13.643 8.545-12.628 7.218-12.869 6.155-12.934 5.865-13.127 5.462-13.675 5.181-14.258 4.883-14.894 4.654-15.51 4.431-16.294 4.148-17.105 3.855-17.794 3.424-18.028 3.277-18.335 3.348-18.482 3.581-18.628 3.815-18.557 4.123-18.324 4.269-17.544 4.757-16.682 5.069-15.849 5.37-15.235 5.591-14.656 5.8-14.129 6.07-13.91 6.182-13.861 6.292-13.842 6.375-13.704 6.983-14.706 8.291-15.51 9.343-16.5 10.636-17.434 11.857-17.408 12.876-17.364 14.608-14.599 15.741-12.867 16.049-11.4 16.309-10.442 16.075-10.171 15.39-9.618 13.994-9.098 6.892-9.282 5.632-9.284 5.618-9.287 5.604-9.29 5.59-9.326 5.435-9.289 5.382-9.271 5.357-9.008 4.987-7.663 4.845-6.476 4.72-3.715 4.428 .068 4.029 .496 .56 .529 .286 .335 .038 .062 .004 .041 .001 .02 0 0 0" fill="#4d4d4f"/>
</svg>
