<?xml version='1.0' encoding='UTF-8'?>
<svg xmlns="http://www.w3.org/2000/svg" xmlns:xlink="http://www.w3.org/1999/xlink" viewBox="1015.55 295.76 57.15 59.81" width="57" height="60"><path transform="matrix(1,0,0,-1,1028.8202,331.5845)" d="M0 0H-1.329C-3.464 0-5.201 1.737-5.201 3.872V15.817C-5.201 16.116-4.958 16.358-4.66 16.358-4.361 16.358-4.119 16.116-4.119 15.817V3.872C-4.119 2.333-2.867 1.082-1.329 1.082H0C1.539 1.082 2.79 2.333 2.79 3.872V15.729C2.79 16.028 3.032 16.27 3.331 16.27 3.63 16.27 3.872 16.028 3.872 15.729V3.872C3.872 1.737 2.135 0 0 0" fill="#4d4d4f"/>
<path transform="matrix(1,0,0,-1,1036.8109,331.5845)" d="M0 0H-1.329C-3.464 0-5.2 1.737-5.2 3.872V15.817C-5.2 16.116-4.958 16.358-4.66 16.358-4.361 16.358-4.119 16.116-4.119 15.817V3.872C-4.119 2.333-2.867 1.082-1.329 1.082H0C1.539 1.082 2.79 2.333 2.79 3.872V15.729C2.79 16.028 3.033 16.27 3.331 16.27 3.63 16.27 3.872 16.028 3.872 15.729V3.872C3.872 1.737 2.135 0 0 0" fill="#4d4d4f"/>
<path transform="matrix(1,0,0,-1,1044.8018,331.5845)" d="M0 0H-1.329C-3.464 0-5.2 1.737-5.2 3.872V15.817C-5.2 16.116-4.958 16.358-4.66 16.358-4.361 16.358-4.119 16.116-4.119 15.817V3.872C-4.119 2.333-2.867 1.082-1.329 1.082H0C1.539 1.082 2.79 2.333 2.79 3.872V15.729C2.79 16.028 3.032 16.27 3.331 16.27 3.63 16.27 3.872 16.028 3.872 15.729V3.872C3.872 1.737 2.135 0 0 0" fill="#4d4d4f"/>
<path transform="matrix(1,0,0,-1,1052.7925,331.5845)" d="M0 0H-1.329C-3.463 0-5.2 1.737-5.2 3.872V15.817C-5.2 16.116-4.958 16.358-4.66 16.358-4.361 16.358-4.119 16.116-4.119 15.817V3.872C-4.119 2.333-2.867 1.082-1.329 1.082H0C1.539 1.082 2.79 2.333 2.79 3.872V15.729C2.79 16.028 3.032 16.27 3.331 16.27 3.63 16.27 3.872 16.028 3.872 15.729V3.872C3.872 1.737 2.135 0 0 0" fill="#4d4d4f"/>
<path transform="matrix(1,0,0,-1,1060.7833,331.5845)" d="M0 0H-1.329C-3.464 0-5.201 1.737-5.201 3.872V15.817C-5.201 16.116-4.958 16.358-4.66 16.358-4.361 16.358-4.119 16.116-4.119 15.817V3.872C-4.119 2.333-2.867 1.082-1.329 1.082H0C1.539 1.082 2.79 2.333 2.79 3.872V15.729C2.79 16.028 3.033 16.27 3.331 16.27 3.63 16.27 3.872 16.028 3.872 15.729V3.872C3.872 1.737 2.135 0 0 0" fill="#4d4d4f"/>
<path transform="matrix(1,0,0,-1,1064.1731,316.24909)" d="M0 0H-40.071C-40.37 0-40.612 .242-40.612 .541-40.612 .839-40.37 1.081-40.071 1.081H0C.298 1.081 .541 .839 .541 .541 .541 .242 .298 0 0 0" fill="#4d4d4f"/>
<path transform="matrix(1,0,0,-1,1062.7769,353.9081)" d="M0 0H-37.279C-37.578 0-37.82 .242-37.82 .541V23.599C-37.82 23.898-37.578 24.14-37.279 24.14-36.98 24.14-36.738 23.898-36.738 23.599V1.081H-.541V23.511C-.541 23.809-.299 24.052 0 24.052 .298 24.052 .541 23.809 .541 23.511V.541C.541 .242 .298 0 0 0" fill="#4d4d4f"/>
<path transform="matrix(1,0,0,-1,1058.733,353.9082)" d="M0 0C-.299 0-.541 .242-.541 .541V18.948H-28.63V.541C-28.63 .243-28.872 .001-29.171 .001-29.469 .001-29.711 .243-29.711 .541V19.489C-29.711 19.787-29.469 20.029-29.171 20.029H0C.298 20.029 .541 19.787 .541 19.489V.541C.541 .242 .298 0 0 0" fill="#4d4d4f"/>
<path transform="matrix(1,0,0,-1,1058.6987,338.40013)" d="M0 0H-29.143C-29.441 0-29.684 .242-29.684 .541-29.684 .839-29.441 1.082-29.143 1.082H0C.299 1.082 .541 .839 .541 .541 .541 .242 .299 0 0 0" fill="#4d4d4f"/>
<path transform="matrix(1,0,0,-1,1038.8158,353.81993)" d="M0 0C-.299 0-.541 .242-.541 .541V15.875C-.541 16.174-.299 16.416 0 16.416 .299 16.416 .541 16.174 .541 15.875V.541C.541 .242 .299 0 0 0" fill="#4d4d4f"/>
<path transform="matrix(1,0,0,-1,1058.6447,346.7698)" d="M0 0H-19.741C-20.04 0-20.282 .242-20.282 .541-20.282 .839-20.04 1.082-19.741 1.082H0C.299 1.082 .541 .839 .541 .541 .541 .242 .299 0 0 0" fill="#4d4d4f"/>
<path transform="matrix(1,0,0,-1,1044.843,345.27214)" d="M0 0H-3.62C-3.919 0-4.161 .242-4.161 .541V5.182C-4.161 5.481-3.919 5.723-3.62 5.723H0C.299 5.723 .541 5.481 .541 5.182V.541C.541 .242 .299 0 0 0M-3.08 1.082H-.5409999V4.642H-3.08Z" fill="#4d4d4f"/>
<path transform="matrix(1,0,0,-1,1050.7382,345.27214)" d="M0 0H-3.62C-3.919 0-4.161 .242-4.161 .541V5.182C-4.161 5.481-3.919 5.723-3.62 5.723H0C.299 5.723 .541 5.481 .541 5.182V.541C.541 .242 .299 0 0 0M-3.079 1.082H-.53999999V4.642H-3.079Z" fill="#4d4d4f"/>
<path transform="matrix(1,0,0,-1,1056.6333,345.27214)" d="M0 0H-3.62C-3.919 0-4.161 .242-4.161 .541V5.182C-4.161 5.481-3.919 5.723-3.62 5.723H0C.299 5.723 .541 5.481 .541 5.182V.541C.541 .242 .299 0 0 0M-3.079 1.082H-.53999999V4.642H-3.079Z" fill="#4d4d4f"/>
<path transform="matrix(1,0,0,-1,1044.843,352.45353)" d="M0 0H-3.62C-3.919 0-4.161 .242-4.161 .541V4.34C-4.161 4.638-3.919 4.88-3.62 4.88H0C.299 4.88 .541 4.638 .541 4.34V.541C.541 .242 .299 0 0 0M-3.08 1.081H-.5409999V3.7979999H-3.08Z" fill="#4d4d4f"/>
<path transform="matrix(1,0,0,-1,1050.7382,352.45353)" d="M0 0H-3.62C-3.919 0-4.161 .242-4.161 .541V4.34C-4.161 4.638-3.919 4.88-3.62 4.88H0C.299 4.88 .541 4.638 .541 4.34V.541C.541 .242 .299 0 0 0M-3.079 1.081H-.53999999V3.7979999H-3.079Z" fill="#4d4d4f"/>
<path transform="matrix(1,0,0,-1,1056.6333,352.45353)" d="M0 0H-3.62C-3.919 0-4.161 .242-4.161 .541V4.34C-4.161 4.638-3.919 4.88-3.62 4.88H0C.299 4.88 .541 4.638 .541 4.34V.541C.541 .242 .299 0 0 0M-3.079 1.081H-.53999999V3.7979999H-3.079Z" fill="#4d4d4f"/>
<path transform="matrix(1,0,0,-1,1037.0765,348.62364)" d="M0 0C-.298 0-.541 .242-.541 .541V4.536C-.541 4.835-.298 5.077 0 5.077 .299 5.077 .541 4.835 .541 4.536V.541C.541 .242 .299 0 0 0" fill="#4d4d4f"/>
<path transform="matrix(1,0,0,-1,1059.4379,316.2155)" d="M0 0C-.299 0-.541 .242-.541 .541V12.477H-29.992V.541C-29.992 .242-30.235 0-30.533 0-30.832 0-31.074 .242-31.074 .541V13.018C-31.074 13.316-30.832 13.558-30.533 13.558H0C.299 13.558 .541 13.316 .541 13.018V.541C.541 .242 .299 0 0 0" fill="#4d4d4f"/>
<path transform="matrix(1,0,0,-1,1036.9547,313.38734)" d="M0 0C-.299 0-.541 .242-.541 .541V4.686C-.541 5.511-1.212 6.183-2.038 6.183H-2.419C-3.245 6.183-3.917 5.511-3.917 4.686V.541C-3.917 .242-4.159 0-4.457 0-4.756 0-4.998 .242-4.998 .541V4.686C-4.998 6.108-3.841 7.264-2.419 7.264H-2.038C-.616 7.264 .541 6.108 .541 4.686V.541C.541 .242 .299 0 0 0" fill="#4d4d4f"/>
<path transform="matrix(1,0,0,-1,1037.7357,313.38734)" d="M0 0H-6.02C-6.318 0-6.56 .242-6.56 .541-6.56 .839-6.318 1.082-6.02 1.082H0C.299 1.082 .541 .839 .541 .541 .541 .242 .299 0 0 0" fill="#4d4d4f"/>
<path transform="matrix(1,0,0,-1,1046.343,313.38734)" d="M0 0C-.299 0-.541 .242-.541 .541V4.686C-.541 5.511-1.212 6.183-2.038 6.183H-2.419C-3.245 6.183-3.917 5.511-3.917 4.686V.541C-3.917 .242-4.159 0-4.457 0-4.756 0-4.998 .242-4.998 .541V4.686C-4.998 6.108-3.841 7.264-2.419 7.264H-2.038C-.616 7.264 .541 6.108 .541 4.686V.541C.541 .242 .299 0 0 0" fill="#4d4d4f"/>
<path transform="matrix(1,0,0,-1,1047.1242,313.38734)" d="M0 0H-6.02C-6.318 0-6.56 .242-6.56 .541-6.56 .839-6.318 1.082-6.02 1.082H0C.299 1.082 .541 .839 .541 .541 .541 .242 .299 0 0 0" fill="#4d4d4f"/>
<path transform="matrix(1,0,0,-1,1055.7313,313.38734)" d="M0 0C-.299 0-.541 .242-.541 .541V4.686C-.541 5.511-1.212 6.183-2.038 6.183H-2.419C-3.245 6.183-3.917 5.511-3.917 4.686V.541C-3.917 .242-4.159 0-4.457 0-4.756 0-4.998 .242-4.998 .541V4.686C-4.998 6.108-3.841 7.264-2.419 7.264H-2.038C-.616 7.264 .541 6.108 .541 4.686V.541C.541 .242 .298 0 0 0" fill="#4d4d4f"/>
<path transform="matrix(1,0,0,-1,1056.5125,313.38734)" d="M0 0H-6.02C-6.318 0-6.561 .242-6.561 .541-6.561 .839-6.318 1.082-6.02 1.082H0C.299 1.082 .541 .839 .541 .541 .541 .242 .299 0 0 0" fill="#4d4d4f"/>
<path transform="matrix(1,0,0,-1,1062.4922,303.21974)" d="M0 0C0-.299-.242-.541-.541-.541H-3.059C-3.357-.541-3.6-.299-3.6 0-3.6 .299-3.357 .541-3.059 .541H-1.082V3.006H-35.796V.541H-33.636C-33.338 .541-33.096 .299-33.096 0-33.096-.299-33.338-.541-33.636-.541H-36.336C-36.635-.541-36.877-.299-36.877 0V3.547C-36.877 3.846-36.635 4.088-36.336 4.088H-.019" fill="#4d4d4f"/>
</svg>
