<?xml version='1.0' encoding='UTF-8'?>
<svg xmlns="http://www.w3.org/2000/svg" xmlns:xlink="http://www.w3.org/1999/xlink" viewBox="844.29 636.30 60.36 54.41" width="60" height="54"><path transform="matrix(1,0,0,-1,858.0215,682.76907)" d="M0 0C-2.336 0-3.818 4.783-3.818 6.802V16.446C-3.818 18.129-2.505 19.497-.891 19.497H.891C2.505 19.497 3.818 18.129 3.818 16.446V6.802C3.818 4.783 2.336 0 0 0M-.891 18.352C-1.873 18.352-2.673 17.497-2.673 16.446V6.802C-2.673 4.884-1.23 1.145 0 1.145 1.23 1.145 2.673 4.884 2.673 6.802V16.446C2.673 17.497 1.874 18.352 .891 18.352Z" fill="#4d4d4f"/>
<path transform="matrix(1,0,0,-1,858.0215,660.4)" d="M0 0C-.316 0-.573 .257-.573 .573V15.039C-.573 15.356-.316 15.612 0 15.612 .316 15.612 .573 15.356 .573 15.039V.573C.573 .257 .316 0 0 0" fill="#4d4d4f"/>
<path transform="matrix(1,0,0,-1,859.2944,655.3754)" d="M0 0H-2.545C-5.002 0-7 2.089-7 4.658V10.016C-7 10.333-6.743 10.589-6.427 10.589-6.111 10.589-5.855 10.333-5.855 10.016V4.658C-5.855 2.721-4.37 1.145-2.545 1.145H0C1.824 1.145 3.309 2.721 3.309 4.658V10.016C3.309 10.333 3.565 10.589 3.881 10.589 4.198 10.589 4.454 10.333 4.454 10.016V4.658C4.454 2.089 2.456 0 0 0" fill="#4d4d4f"/>
<path transform="matrix(1,0,0,-1,877.486,679.4898)" d="M0 0C-6.952 0-12.607 6.357-12.607 14.171-12.607 21.094-8.248 24.754 0 24.754 8.248 24.754 12.607 21.094 12.607 14.171 12.607 6.357 6.952 0 0 0M0 23.608C-7.605 23.608-11.462 20.433-11.462 14.171-11.462 6.989-6.32 1.145 0 1.145 6.32 1.145 11.462 6.989 11.462 14.171 11.462 20.433 7.605 23.608 0 23.608" fill="#4d4d4f"/>
<path transform="matrix(1,0,0,-1,880.8007,674.4066)" d="M0 0C-.2 0-.394 .105-.5 .292-.655 .568-.557 .917-.281 1.072 2.287 2.516 3.947 5.663 3.947 9.088 3.947 9.404 4.204 9.661 4.52 9.661 4.836 9.661 5.092 9.404 5.092 9.088 5.092 5.256 3.204 1.717 .28 .073 .192 .023 .095 0 0 0" fill="#4d4d4f"/>
<path transform="matrix(1,0,0,-1,885.181,653.3754)" d="M0 0C-.049 0-.099 .006-.149 .02-.455 .102-.636 .416-.553 .721 .559 4.859 .404 7.263-1.12 8.787-1.922 7.789-3.128 6.937-4.393 6.042-6.215 4.754-8.099 3.421-8.656 1.667-8.752 1.365-9.073 1.198-9.375 1.294-9.677 1.39-9.844 1.712-9.748 2.013-9.074 4.135-7.031 5.58-5.054 6.978-3.663 7.962-2.348 8.891-1.708 9.935-1.623 10.073-1.483 10.169-1.323 10.199-1.163 10.229-.998 10.188-.869 10.088 2.064 7.821 1.495 3.931 .553 .424 .484 .169 .253 0 0 0" fill="#4d4d4f"/>
<path transform="matrix(1,0,0,-1,896.0847,644.3128)" d="M0 0C-.149 0-.298 .058-.41 .173-5.376 5.264-12.026 8.067-19.136 8.067-25.222 8.067-31.149 5.931-35.826 2.051-36.07 1.849-36.43 1.883-36.632 2.126-36.834 2.369-36.801 2.73-36.557 2.932-31.676 6.982-25.489 9.213-19.136 9.213-11.715 9.213-4.773 6.286 .41 .973 .631 .746 .626 .384 .4 .163 .289 .054 .144 0 0 0" fill="#4d4d4f"/>
<path transform="matrix(1,0,0,-1,876.9487,689.71316)" d="M0 0C-5.582 0-10.946 1.672-15.514 4.836-15.774 5.016-15.839 5.373-15.659 5.633-15.478 5.893-15.122 5.957-14.862 5.778-10.487 2.747-5.348 1.145 0 1.145 6.004 1.145 11.647 3.122 16.319 6.861 16.567 7.059 16.927 7.019 17.124 6.772 17.322 6.525 17.282 6.165 17.035 5.967 12.157 2.063 6.267 0 0 0" fill="#4d4d4f"/>
</svg>
