<?xml version='1.0' encoding='UTF-8'?>
<svg xmlns="http://www.w3.org/2000/svg" xmlns:xlink="http://www.w3.org/1999/xlink" viewBox="544.63 477.11 75.68 38.40" width="76" height="38"><path transform="matrix(1,0,0,-1,595.7291,495.20713)" d="M0 0C-.199 0-.391 .108-.49 .297-.55 .415-.604 .533-.656 .655-2.532 5.011-.836 8.828 3.997 11.129 4.268 11.26 4.602 11.149 4.735 10.879 4.868 10.609 4.768 10.286 4.499 10.149L4.485 10.141C1.988 8.952-1.847 6.206 .355 1.092 .397 .995 .439 .899 .489 .804 .629 .534 .523 .202 .253 .062 .172 .02 .085 0 0 0" fill="#4d4d4f"/>
<path transform="matrix(1,0,0,-1,606.5331,498.87193)" d="M0 0C-.214 0-.417 .125-.506 .334-.627 .613-.497 .937-.218 1.057 1.712 1.886 3.229 3.414 4.052 5.358 4.848 7.236 4.878 9.302 4.135 11.027 2.897 13.907 .774 15.248-2.185 15.003-2.484 14.982-2.754 15.204-2.779 15.507-2.803 15.81-2.578 16.076-2.274 16.101 .116 16.293 3.347 15.65 5.147 11.462 6.008 9.463 5.979 7.081 5.067 4.928 4.132 2.721 2.41 .987 .217 .045 .146 .014 .072 0 0 0" fill="#4d4d4f"/>
<path transform="matrix(1,0,0,-1,562.8776,513.24636)" d="M0 0C-.609 0-1.226 .054-1.843 .165-7.246 1.139-11.032 6.275-10.113 11.381-9.806 13.075-9.191 14.492-8.284 15.591-8.091 15.827-7.744 15.859-7.509 15.665-7.274 15.472-7.241 15.125-7.434 14.89-8.22 13.938-8.756 12.692-9.029 11.185-9.843 6.668-6.462 2.117-1.648 1.249 2.965 .416 7.681 3.341 8.664 7.635 8.667 7.648 8.669 7.662 8.673 7.675 8.698 7.775 8.719 7.871 8.737 7.975 9.2 10.542 8.682 12.644 7.199 14.228 6.991 14.45 7.002 14.799 7.224 15.007 7.446 15.215 7.795 15.204 8.003 14.982 9.738 13.13 10.35 10.707 9.822 7.783 9.801 7.665 9.777 7.552 9.748 7.435 9.747 7.429 9.746 7.422 9.744 7.416 8.758 3.047 4.591 0 0 0M9.207 7.537H9.211Z" fill="#4d4d4f"/>
<path transform="matrix(1,0,0,-1,573.7812,501.1101)" d="M0 0C-.217 0-.415 .128-.503 .327-.674 .71-1.785 1.198-2.765 1.629-3.967 2.156-5.309 2.746-6.316 3.598-7.02 2.984-8.539 1.8-9.71 1.9-9.885 1.914-10.044 2.01-10.135 2.16-10.502 2.755-10.672 4.134-10.704 5.113-12.419 5.02-16.279 5.148-17.81 6.083-18.07 6.242-18.151 6.581-17.993 6.841-17.834 7.101-17.494 7.181-17.236 7.024-15.833 6.166-11.307 6.088-10.239 6.259-10.076 6.286-9.908 6.237-9.785 6.126-9.661 6.015-9.594 5.855-9.602 5.689-9.641 4.864-9.499 3.641-9.315 3.029-8.554 3.209-7.355 4.087-6.703 4.737-6.6 4.84-6.46 4.897-6.314 4.897H-6.311C-6.164 4.896-6.023 4.837-5.921 4.732-5.039 3.831-3.596 3.196-2.322 2.637-1.556 2.301-.878 2.003-.367 1.674-.362 2.247-.487 2.95-.865 3.621-1.561 4.855-2.893 5.659-4.822 6.012-5.121 6.066-5.319 6.353-5.265 6.653-5.21 6.952-4.92 7.15-4.624 7.095-1.801 6.58-.5 5.216 .094 4.162 .865 2.797 .861 1.267 .515 .355 .436 .147 .238 .006 .015 0 .01 0 .005 0 0 0" fill="#4d4d4f"/>
<path transform="matrix(1,0,0,-1,593.8929,524.1231)" d="M0 0C-5.49 0-10.128 4.382-10.128 9.569-10.128 11.028-9.872 12.337-9.367 13.457-8.812 14.699-7.952 15.725-6.813 16.505-6.563 16.676-6.22 16.614-6.048 16.362-5.875 16.112-5.94 15.769-6.191 15.597-7.16 14.932-7.89 14.061-8.362 13.006-8.803 12.027-9.026 10.871-9.026 9.569-9.026 4.979-4.893 1.102 0 1.102 4.892 1.102 9.026 4.979 9.026 9.569 9.026 11.149 8.699 12.508 8.054 13.608 7.9 13.87 7.988 14.208 8.25 14.362 8.512 14.515 8.85 14.428 9.004 14.165 9.75 12.894 10.128 11.348 10.128 9.569 10.128 4.382 5.49 0 0 0" fill="#4d4d4f"/>
<path transform="matrix(1,0,0,-1,594.7468,511.70353)" d="M0 0C-1.239 0-3.255 1.027-4.962 2.518-6.267 2.464-7.506 2.906-8.552 3.795-10.108 5.118-10.915 7.147-11.025 8.571-11.048 8.875-10.821 9.139-10.518 9.163-10.218 9.194-9.949 8.96-9.926 8.656-9.837 7.499-9.146 5.746-7.838 4.634-6.944 3.874-5.925 3.535-4.813 3.631-4.658 3.641-4.511 3.593-4.398 3.49-2.805 2.052-1.116 1.228-.201 1.115 .104 1.555 .439 3.114 .279 4.177 .254 4.349 .31 4.522 .432 4.646 .554 4.769 .726 4.827 .899 4.805 3.396 4.46 6.521 5.342 7.926 6.084 6.65 7.053 2.816 7.983 1.399 7.543 1.108 7.452 .8 7.615 .71 7.906 .62 8.196 .782 8.505 1.073 8.595 2.876 9.155 8.3 7.987 9.253 6.228 9.381 5.992 9.32 5.699 9.11 5.533 7.926 4.598 4.395 3.458 1.417 3.647 1.426 2.393 1.098 .597 .296 .086 .207 .03 .105 0 0 0" fill="#4d4d4f"/>
<path transform="matrix(1,0,0,-1,601.721,499.46223)" d="M0 0C-.007 0-.014 0-.021 0-2.02 .074-15.255 2.004-19.87 5.959-23.378 8.964-31.592 16-44.86 18.548-45.159 18.606-45.355 18.894-45.297 19.193-45.24 19.492-44.952 19.688-44.653 19.63-31.097 17.027-22.728 9.857-19.154 6.796-15.029 3.261-2.571 1.197 .02 1.101 .324 1.09 .561 .835 .55 .53 .539 .233 .295 0 0 0" fill="#4d4d4f"/>
<path transform="matrix(1,0,0,-1,574.5318,486.9594)" d="M0 0C-.562 0-1.116 .023-1.661 .07-1.964 .095-2.189 .362-2.162 .666-2.136 .968-1.871 1.194-1.567 1.167 9.368 .23 24.392 9.421 26.78 12.073 26.984 12.299 27.332 12.317 27.558 12.113 27.784 11.91 27.802 11.561 27.599 11.335 25.252 8.729 11.087 0 0 0" fill="#4d4d4f"/>
<path transform="matrix(1,0,0,-1,566.2184,492.85133)" d="M0 0C-.113 0-.227 .035-.325 .107-.57 .287-.624 .631-.444 .877-.082 1.372 1.215 6.073 1.21 9.032 1.21 9.337 1.456 9.584 1.76 9.584H1.761C2.065 9.584 2.311 9.338 2.312 9.035 2.317 6.159 1.081 1.093 .445 .225 .337 .078 .169 0 0 0" fill="#4d4d4f"/>
<path transform="matrix(1,0,0,-1,592.2745,504.99443)" d="M0 0C-.287 0-.53 .223-.549 .514L-.567 .817C-.638 2.021-.804 4.838-1.594 7.879-1.67 8.173-1.493 8.474-1.199 8.551-.907 8.626-.604 8.451-.527 8.156 .29 5.01 .466 2.011 .533 .882L.55 .587C.571 .284 .341 .022 .037 .001 .025 0 .013 0 0 0" fill="#4d4d4f"/>
<path transform="matrix(1,0,0,-1,599.9766,485.11973)" d="M0 0C-.224 0-.434 .137-.516 .36-1.008 1.686-3.085 4.977-3.909 5.581-4.155 5.761-4.208 6.106-4.028 6.351-3.849 6.597-3.504 6.651-3.259 6.47-2.192 5.689-.007 2.156 .516 .742 .622 .457 .477 .14 .191 .034 .128 .011 .064 0 0 0" fill="#4d4d4f"/>
</svg>
