<?xml version='1.0' encoding='UTF-8'?>
<svg xmlns="http://www.w3.org/2000/svg" xmlns:xlink="http://www.w3.org/1999/xlink" viewBox="465.82 478.38 68.51 29.78" width="69" height="30"><path transform="matrix(1,0,0,-1,486.0218,518.07156)" d="M0 0C-.062 0-.125 .01-.187 .033-7.147 2.54-12.199 10.288-12.199 18.453-12.199 23-10.489 27.04-7.386 29.83-4.111 32.773 .35 34.112 5.173 33.594 5.359 33.574 5.539 33.56 5.722 33.547L5.647 32.444C5.443 32.46 5.25 32.474 5.053 32.497 .546 32.978-3.609 31.739-6.647 29.008-9.515 26.431-11.094 22.682-11.094 18.453-11.094 10.737-6.35 3.427 .187 1.072 .474 .968 .623 .652 .52 .365 .439 .14 .226 0 0 0" fill="#4d4d4f"/>
<path transform="matrix(1,0,0,-1,502.206,486.39073)" d="M0 0C-.062 0-.124 .01-.185 .032-2.309 .787-4.598 1.061-6.988 .846-7.296 .821-7.561 1.043-7.588 1.347-7.615 1.651-7.391 1.919-7.087 1.947-4.536 2.175-2.09 1.882 .185 1.073 .472 .971 .623 .655 .52 .367 .44 .141 .227 0 0 0" fill="#4d4d4f"/>
<path transform="matrix(1,0,0,-1,491.8522,487.1976)" d="M0 0C-.262 0-.495 .187-.543 .454-1.387 5.135 1.436 9.602 3.237 11.504 3.368 11.642 3.561 11.703 3.746 11.665 4.269 11.561 6.728 10.642 7.328 10.385 7.477 10.321 7.59 10.195 7.638 10.041 7.686 9.887 7.664 9.719 7.577 9.582 6.536 7.933 4.083 3.212 3.302 .44 3.219 .146 2.914-.026 2.62 .059 2.327 .141 2.156 .446 2.239 .74 2.983 3.381 5.092 7.551 6.3 9.607 5.535 9.902 4.384 10.321 3.817 10.501 2.25 8.723-.188 4.708 .544 .65 .598 .35 .399 .063 .099 .009 .066 .003 .033 0 0 0" fill="#4d4d4f"/>
<path transform="matrix(1,0,0,-1,491.9951,490.40834)" d="M0 0C-.007 0-.014 0-.022 0-.382 .014-.76 .042-1.144 .083-1.181 .084-1.218 .088-1.255 .092-1.26 .092-1.292 .096-1.297 .096-1.771 .148-2.27 .175-2.778 .175-3.084 .175-3.331 .422-3.331 .727-3.331 1.032-3.084 1.279-2.778 1.279-2.23 1.279-1.69 1.251-1.176 1.194L-1.132 1.189C-1.112 1.189-1.069 1.186-1.049 1.183-.682 1.144-.321 1.118 .021 1.104 .326 1.092 .563 .836 .552 .531 .54 .233 .295 0 0 0" fill="#4d4d4f"/>
<path transform="matrix(1,0,0,-1,504.1311,526.24917)" d="M0 0C-3.898 0-7.66 1.435-10.778 4.151-15.255 8.05-17.928 14.053-17.928 20.211-17.928 24.779-16.351 28.742-13.368 31.671-10.331 34.653-6.101 36.247-1.47 36.164-1.165 36.158-.922 35.907-.928 35.602-.934 35.296-1.184 35.072-1.49 35.059-5.825 35.142-9.77 33.655-12.594 30.883-15.361 28.166-16.824 24.476-16.824 20.211-16.824 14.368-14.292 8.676-10.052 4.984-6.592 1.971-2.29 .644 2.059 1.247 2.109 1.255 2.16 1.255 2.211 1.247 6.562 .645 10.862 1.971 14.322 4.984 18.562 8.676 21.093 14.368 21.093 20.211 21.093 26.4 17.89 31.472 12.523 33.779 12.03 33.992 11.509 34.183 10.974 34.346 9.593 34.77 8.131 35.008 6.627 35.053 6.323 35.062 6.083 35.316 6.092 35.621 6.101 35.926 6.361 36.172 6.66 36.156 8.263 36.109 9.823 35.855 11.297 35.402 11.87 35.227 12.43 35.022 12.96 34.794 18.744 32.307 22.198 26.855 22.198 20.211 22.198 14.053 19.525 8.05 15.047 4.151 11.363 .942 6.78-.479 2.135 .143 1.421 .047 .708 0 0 0" fill="#4d4d4f"/>
<path transform="matrix(1,0,0,-1,520.1804,514.43728)" d="M0 0C-.082 0-.166 .018-.244 .057-.518 .192-.63 .524-.495 .797 .687 3.189 1.312 5.818 1.312 8.4 1.312 10.245 .951 11.954 .241 13.478 .112 13.755 .231 14.083 .508 14.212 .784 14.341 1.113 14.221 1.242 13.945 2.021 12.273 2.416 10.407 2.416 8.4 2.416 5.649 1.752 2.851 .496 .308 .399 .113 .204 0 0 0" fill="#4d4d4f"/>
<path transform="matrix(1,0,0,-1,506.2667,496.38453)" d="M0 0C-.798 0-1.605 .043-2.399 .128-2.918 .184-3.442 .212-3.957 .212-4.262 .212-4.51 .46-4.51 .764-4.51 1.069-4.262 1.317-3.957 1.317-3.403 1.317-2.839 1.286-2.281 1.226-.772 1.065 .771 1.065 2.281 1.226 2.839 1.286 3.403 1.317 3.957 1.317 4.262 1.317 4.509 1.069 4.509 .764 4.509 .46 4.262 .212 3.957 .212 3.443 .212 2.918 .184 2.399 .128 1.605 .043 .797 0 0 0" fill="#4d4d4f"/>
<path transform="matrix(1,0,0,-1,505.6024,493.62223)" d="M0 0C-.027 0-.054 .002-.082 .006-.384 .051-.592 .332-.547 .634-.199 2.972 3.714 8.944 6.842 9.81 7.135 9.892 7.44 9.72 7.521 9.426 7.603 9.132 7.43 8.827 7.136 8.746 4.531 8.024 .836 2.423 .545 .471 .505 .197 .269 0 0 0" fill="#4d4d4f"/>
<path transform="matrix(1,0,0,-1,507.3077,489.96504)" d="M0 0C-.06 0-.121 .01-.18 .03-2.105 .696-3.295 2.183-3.444 4.111-3.627 6.476-2.156 8.91 .216 10.167 2.168 11.202 7.632 12.872 16.18 6.053 16.298 5.958 16.373 5.819 16.385 5.667 16.398 5.516 16.348 5.366 16.247 5.253 14.301 3.076 10.471 1.037 7.708 .709 7.404 .672 7.131 .89 7.095 1.193 7.059 1.495 7.275 1.77 7.578 1.806 9.889 2.081 13.148 3.749 15.014 5.563 7.258 11.542 2.458 10.105 .734 9.191-1.256 8.137-2.492 6.129-2.343 4.196-2.229 2.727-1.309 1.589 .18 1.074 .469 .974 .622 .66 .522 .372 .443 .143 .229 0 0 0" fill="#4d4d4f"/>
</svg>
