<?xml version='1.0' encoding='UTF-8'?>
<svg xmlns="http://www.w3.org/2000/svg" xmlns:xlink="http://www.w3.org/1999/xlink" viewBox="915.21 400.86 67.43 55.40" width="67" height="55"><path transform="matrix(1,0,0,-1,942.714,454.44303)" d="M0 0C-.195 0-.382 .113-.467 .303-.582 .561-.466 .863-.208 .978 4.871 3.242 5.576 8.352 6.042 11.733 6.113 12.251 6.181 12.741 6.258 13.159 7.066 19.406 5.773 32.521 5.286 37.458 5.258 37.739 5.463 37.989 5.744 38.017 6.02 38.042 6.275 37.839 6.303 37.558 6.839 32.122 8.094 19.391 7.267 13.001 7.19 12.579 7.124 12.1 7.054 11.593 6.587 8.207 5.806 2.54 .208 .044 .14 .014 .07 0 0 0" fill="#4d4d4f"/>
<path transform="matrix(1,0,0,-1,931.3895,445.92533)" d="M0 0C-.036 0-.071 0-.108 .001-2.626 .078-4.402 1.624-5.044 3.122-5.617 4.458-4.899 6.195-3.814 7.175-5.765 8.316-8.532 10.316-8.129 14.259-8.114 14.398-8.043 14.526-7.932 14.611-4.906 16.943-1.395 14.825 .449 13.628 .434 14.497 .734 15.639 2.156 16.827 2.941 17.483 3.862 17.759 4.821 17.629 6.277 17.43 7.472 16.38 8.104 15.462 8.91 14.294 8.852 12.642 8.796 11.045 8.742 9.489 8.685 7.882 9.429 6.832 10.225 6.457 15.088 4.212 17.958 3.999 18.24 3.979 18.451 3.734 18.43 3.452 18.409 3.171 18.161 2.962 17.883 2.981 14.571 3.227 9.104 5.854 8.873 5.966 8.803 6 8.741 6.049 8.693 6.111 7.647 7.45 7.712 9.296 7.775 11.081 7.828 12.578 7.878 13.992 7.263 14.883 6.778 15.586 5.811 16.463 4.683 16.617 4.008 16.709 3.377 16.516 2.811 16.043 1.158 14.662 1.425 13.533 1.602 12.786L1.619 12.713C1.665 12.516 1.59 12.311 1.429 12.189 1.267 12.068 1.05 12.053 .873 12.151 .667 12.265 .412 12.432 .116 12.625-1.538 13.706-4.585 15.697-7.131 13.932-7.376 10.334-4.426 8.682-2.649 7.687L-2.616 7.669C-2.452 7.577-2.352 7.402-2.355 7.214-2.358 7.026-2.465 6.855-2.632 6.769-3.772 6.183-4.529 4.515-4.105 3.524-3.591 2.324-2.145 1.085-.076 1.023 1.147 .978 2.336 1.853 3.591 2.771 4.674 3.564 5.794 4.383 7.022 4.64 7.297 4.698 7.569 4.521 7.627 4.245 7.684 3.969 7.507 3.698 7.231 3.64 6.219 3.429 5.236 2.709 4.195 1.947 2.886 .989 1.534 0 0 0" fill="#4d4d4f"/>
<path transform="matrix(1,0,0,-1,967.1786,444.67564)" d="M0 0C-1.435 0-2.772 .842-4.068 1.659-5.16 2.346-6.192 2.995-7.216 3.136-7.495 3.174-7.691 3.432-7.652 3.711-7.614 3.991-7.357 4.185-7.077 4.148-5.834 3.977-4.66 3.238-3.524 2.523-2.208 1.694-.965 .911 .257 1.034 2.316 1.241 3.671 2.578 4.101 3.811 4.455 4.828 3.584 6.439 2.405 6.945 2.232 7.019 2.114 7.182 2.097 7.369 2.081 7.557 2.169 7.738 2.326 7.841L2.358 7.862C4.061 8.978 6.889 10.832 6.393 14.404 3.732 15.986 .83 13.789-.745 12.595-1.027 12.381-1.27 12.197-1.467 12.069-1.637 11.959-1.855 11.959-2.024 12.069-2.194 12.179-2.282 12.378-2.25 12.578L-2.238 12.652C-2.114 13.41-1.926 14.555-3.672 15.817-4.269 16.249-4.911 16.398-5.579 16.259-6.693 16.026-7.597 15.084-8.032 14.348-8.583 13.417-8.435 12.01-8.278 10.52-8.09 8.744-7.897 6.907-8.846 5.499-8.89 5.434-8.948 5.38-9.016 5.341-9.239 5.213-14.508 2.211-17.796 1.735-18.074 1.693-18.333 1.888-18.374 2.167-18.415 2.446-18.221 2.705-17.942 2.746-15.093 3.158-10.399 5.737-9.631 6.167-8.962 7.265-9.131 8.865-9.294 10.414-9.461 12.003-9.634 13.646-8.911 14.868-8.344 15.827-7.226 16.959-5.787 17.259-4.838 17.456-3.901 17.243-3.073 16.645-1.572 15.559-1.192 14.44-1.147 13.572 .609 14.895 3.964 17.253 7.145 15.138 7.262 15.06 7.341 14.938 7.365 14.8 8.043 10.895 5.422 8.707 3.556 7.432 4.707 6.53 5.544 4.848 5.066 3.475 4.53 1.935 2.866 .27 .359 .018 .239 .006 .119 0 0 0" fill="#4d4d4f"/>
<path transform="matrix(1,0,0,-1,952.6372,428.8658)" d="M0 0C-.214 0-.414 .136-.485 .351-.574 .619-.428 .907-.16 .996 8.523 3.862 15.175 9.68 14.075 13.445 13.912 14.01 13.588 14.397 13.084 14.63 11.753 15.246 9.544 14.645 8.683 14.257 8.5 14.174 8.285 14.207 8.134 14.341 7.983 14.475 7.925 14.685 7.986 14.877 8.699 17.124 9.674 21.745 8.392 23.485 6.738 23.88 3.344 22.726 1.896 21.509 1.765 21.399 1.586 21.362 1.422 21.411 1.257 21.46 1.128 21.588 1.079 21.752 .229 24.558-2.12 27.911-4.48 28.559-6.775 27.706-8.823 24.16-9.425 21.291-9.46 21.123-9.577 20.984-9.737 20.921-9.897 20.858-10.078 20.88-10.219 20.979-11.763 22.066-15.243 22.921-16.857 22.382-17.448 21.41-17.417 19.514-16.766 17.013-16.695 16.74-16.859 16.461-17.132 16.39-17.406 16.319-17.684 16.482-17.755 16.755-18.534 19.75-18.484 21.885-17.605 23.102-17.549 23.178-17.474 23.238-17.386 23.274-15.654 23.993-12.282 23.308-10.253 22.199-9.488 24.944-7.43 28.68-4.661 29.578-4.573 29.606-4.48 29.61-4.389 29.59-1.553 28.939 .824 25.396 1.826 22.727 3.754 24.008 7.055 24.983 8.841 24.42 8.932 24.392 9.013 24.339 9.074 24.267 10.781 22.29 9.798 17.625 9.241 15.539 10.417 15.885 12.187 16.171 13.513 15.558 14.291 15.197 14.81 14.582 15.055 13.73 16.456 8.937 8.485 2.774 .16 .026 .107 .008 .053 0 0 0" fill="#4d4d4f"/>
<path transform="matrix(1,0,0,-1,949.4247,429.7658)" d="M0 0C-.023 0-.047 .002-.071 .005-7.727 1.069-15.391 4.807-18.295 8.892-19.308 10.318-19.691 11.696-19.433 12.988-19.265 13.854-18.803 14.511-18.061 14.938-16.351 15.921-13.68 15.337-12.796 15.029-12.53 14.936-12.389 14.645-12.481 14.379-12.574 14.112-12.866 13.971-13.132 14.064-14.026 14.376-16.282 14.782-17.552 14.052-18.032 13.776-18.32 13.363-18.431 12.791-18.632 11.783-18.306 10.671-17.462 9.484-14.707 5.607-7.333 2.046 .07 1.017 .349 .978 .544 .72 .505 .44 .47 .185 .251 0 0 0" fill="#4d4d4f"/>
</svg>
