<?xml version='1.0' encoding='UTF-8'?>
<svg xmlns="http://www.w3.org/2000/svg" xmlns:xlink="http://www.w3.org/1999/xlink" viewBox="841.44 717.90 65.68 27.67" width="66" height="28"><path transform="matrix(1,0,0,-1,884.7476,762.2395)" d="M0 0C-.193 0-.375 .117-.448 .309-.487 .411-4.383 10.602-6.152 12.654-6.837 13.449-7.723 13.405-8.846 13.35-10.273 13.28-12.051 13.193-13.72 15.035-15.867 17.407-17.583 20.515-18.683 24.025-18.762 24.277-18.622 24.546-18.369 24.625-18.118 24.705-17.848 24.564-17.769 24.311-16.71 20.933-15.064 17.948-13.01 15.678-11.645 14.172-10.246 14.24-8.893 14.307-7.674 14.367-6.416 14.428-5.427 13.279-3.549 11.101 .285 1.076 .447 .65 .542 .403 .418 .126 .171 .031 .114 .01 .057 0 0 0" fill="#4d4d4f"/>
<path transform="matrix(1,0,0,-1,889.9779,759.6432)" d="M0 0C-.16 0-.316 .08-.407 .226-.648 .612-6.311 9.729-6.91 12.54-7.227 14.025-6.416 14.99-5.631 15.924-4.76 16.961-3.859 18.034-4.233 20.033-5.212 25.264-8.332 29.401-10.105 31.401-10.28 31.599-10.262 31.902-10.064 32.077-9.866 32.253-9.563 32.235-9.388 32.036-7.55 29.962-4.313 25.667-3.291 20.209-2.834 17.765-3.978 16.403-4.898 15.308-5.621 14.447-6.192 13.767-5.973 12.74-5.409 10.092 .348 .825 .406 .732 .546 .508 .477 .212 .253 .072 .174 .023 .087 0 0 0" fill="#4d4d4f"/>
<path transform="matrix(1,0,0,-1,879.6215,745.33926)" d="M0 0C-.176 0-.346 .098-.429 .266L-5.963 11.42C-6.081 11.657-5.984 11.945-5.747 12.062-5.509 12.18-5.222 12.083-5.105 11.846L.429 .692C.546 .455 .45 .168 .213 .05 .144 .016 .071 0 0 0" fill="#4d4d4f"/>
<path transform="matrix(1,0,0,-1,850.2841,731.9683)" d="M0 0C-.129 0-.257 .003-.382 .009-.646 .021-.851 .245-.839 .509-.827 .773-.599 .974-.338 .966 5.884 .676 18.674 8.193 21.705 10.513 21.915 10.673 22.215 10.633 22.377 10.423 22.537 10.213 22.497 9.913 22.287 9.752 20.505 8.388 16.446 5.913 12.135 3.822 8.499 2.059 3.504 0 0 0" fill="#4d4d4f"/>
<path transform="matrix(1,0,0,-1,861.9843,735.891)" d="M0 0C-.542 0-1.074 .044-1.592 .134-4.274 .598-6.387 2.266-7.705 4.957-7.821 5.194-7.722 5.481-7.485 5.598-7.247 5.714-6.96 5.616-6.844 5.378-5.668 2.975-3.795 1.488-1.429 1.078 2.247 .441 6.896 2.454 11.006 6.462 13.836 9.221 18.242 14.833 16.692 21.948 13.634 19.649 9.083 16.458 2.063 18.183 2.052 18.186 2.04 18.189 2.029 18.193 .194 18.791-4.281 18.874-6.809 16.38-8.652 14.562-9.01 11.785-7.871 8.128-7.792 7.875-7.933 7.607-8.186 7.528-8.439 7.449-8.707 7.591-8.786 7.843-9.648 10.612-10.121 14.458-7.482 17.062-4.765 19.743-.042 19.868 2.309 19.109 9.128 17.439 13.352 20.628 16.438 22.956L16.697 23.151C16.825 23.247 16.991 23.273 17.141 23.221 17.292 23.17 17.406 23.047 17.448 22.893 19.581 14.977 14.746 8.771 11.675 5.776 7.845 2.042 3.679 0 0 0" fill="#4d4d4f"/>
<path transform="matrix(1,0,0,-1,866.5715,730.9871)" d="M0 0H-.002C-2.31 .007-4.966 1.216-6 2.34-6.026 2.368-6.048 2.399-6.067 2.433-7.221 4.523-5.287 8.708-5.062 9.178-4.949 9.416-4.663 9.518-4.424 9.404-4.185 9.29-4.084 9.004-4.198 8.765-4.742 7.624-5.977 4.38-5.254 2.946-4.345 2.003-1.937 .964 .002 .958 .266 .957 .48 .742 .479 .478 .478 .213 .264 0 0 0" fill="#4d4d4f"/>
<path transform="matrix(1,0,0,-1,887.3207,732.78976)" d="M0 0C-.212 0-.406 .142-.462 .356-.53 .612-.378 .874-.123 .942 4.76 2.24 8.974 4.826 10.744 7.587 8.288 10.453 1.991 14.663-4.464 15.113-4.727 15.132-4.926 15.36-4.908 15.624-4.89 15.888-4.658 16.086-4.397 16.069 2.539 15.585 9.312 10.925 11.705 7.929 11.828 7.775 11.844 7.561 11.746 7.39 9.968 4.315 5.406 1.42 .123 .016 .082 .005 .041 0 0 0" fill="#4d4d4f"/>
<path transform="matrix(1,0,0,-1,889.1226,725.91726)" d="M0 0C-2.072 0-5.469 .218-8.084 .612-8.346 .652-8.526 .896-8.487 1.158-8.447 1.419-8.204 1.599-7.942 1.56-4.92 1.104-.851 .888 .915 .977 1.173 .992 1.404 .788 1.417 .524 1.431 .259 1.228 .034 .963 .021 .692 .007 .366 0 0 0" fill="#4d4d4f"/>
</svg>
