<?xml version='1.0' encoding='UTF-8'?>
<svg xmlns="http://www.w3.org/2000/svg" xmlns:xlink="http://www.w3.org/1999/xlink" viewBox="626.14 480.39 65.35 40.39" width="65" height="40"><path transform="matrix(1,0,0,-1,638.6953,524.1231)" d="M0 0C-1.417 0-2.582 .312-3.383 1.023-8.83 5.854 6.386 26.296 9.492 30.344 12.664 34.48 15.718 36.59 18.828 36.794 22.511 37.039 25.557 34.493 27.8 32.25 31.699 28.351 35.096 23.518 30.725 17.241 30.558 17.002 30.229 16.942 29.99 17.11 29.751 17.276 29.692 17.605 29.859 17.844 33.775 23.468 30.825 27.733 27.054 31.504 24.968 33.589 22.158 35.952 18.897 35.742 16.109 35.559 13.306 33.583 10.328 29.702 1.659 18.4-6.11 4.851-2.683 1.812 1.393-1.804 19.3 7.8 26.367 14.043 26.755 14.386 27.126 14.731 27.47 15.068 27.678 15.272 28.012 15.268 28.216 15.061 28.42 14.853 28.417 14.519 28.208 14.315 27.851 13.965 27.467 13.608 27.065 13.253 21.701 8.513 7.404 0 0 0" fill="#4d4d4f"/>
<path transform="matrix(1,0,0,-1,670.5406,499.09593)" d="M0 0C-.213 0-.413 .129-.493 .34-.597 .612-.46 .916-.188 1.02 .687 1.354 1.676 1.721 2.704 2.102 5.882 3.282 11.14 5.233 11.892 5.959 11.761 6.858 10.752 9.501 10.219 9.973 9.109 9.494 2.682 5.744 1.343 4.717 1.112 4.54 .781 4.584 .604 4.815 .427 5.046 .47 5.377 .702 5.555 2.106 6.631 9.17 10.775 10.033 11.028 10.202 11.078 10.467 11.092 10.768 10.879 11.776 10.165 12.917 6.668 12.958 5.891 13.006 4.986 11.342 4.182 3.071 1.113 2.046 .733 1.06 .367 .187 .035 .126 .011 .062 0 0 0" fill="#4d4d4f"/>
<path transform="matrix(1,0,0,-1,668.2356,490.65983)" d="M0 0C-.133 0-.267 .05-.369 .151-.577 .355-.581 .689-.376 .897 .476 1.766 5.243 9.904 6.573 12.255 6.842 12.73 7.225 12.866 7.499 12.895 8.661 13.027 10.093 11.533 11.993 9.415 12.444 8.913 12.87 8.439 13.195 8.123 14.074 7.269 13.419 6.353 12.986 5.746 12.898 5.623 12.808 5.497 12.725 5.368 12.567 5.123 12.24 5.054 11.995 5.211 11.751 5.37 11.681 5.696 11.839 5.941 11.931 6.083 12.031 6.222 12.128 6.359 12.663 7.109 12.634 7.198 12.46 7.367 12.109 7.708 11.671 8.195 11.208 8.711 10.2 9.834 8.316 11.923 7.613 11.846 7.589 11.844 7.55 11.84 7.491 11.736 7.433 11.633 1.528 1.332 .377 .158 .273 .053 .137 0 0 0" fill="#4d4d4f"/>
<path transform="matrix(1,0,0,-1,661.7434,489.35844)" d="M0 0C-.055 0-.11 .009-.165 .026-.442 .118-.592 .416-.501 .693 .565 3.927 4.247 12.041 6.073 12.756 6.42 12.892 6.685 12.814 6.847 12.724 7.969 12.102 9.529 11.033 9.704 10.913 9.944 10.748 10.005 10.42 9.839 10.18 9.675 9.94 9.347 9.879 9.106 10.044 8.507 10.456 7.286 11.266 6.414 11.758 5.356 11.289 1.936 4.717 .501 .362 .428 .14 .221 0 0 0" fill="#4d4d4f"/>
<path transform="matrix(1,0,0,-1,658.6057,488.40074)" d="M0 0C-.291 0-.527 .241-.527 .533-.527 .547-.525 .594-.524 .608L-.511 .811C-.293 3.664 1.809 11.156 3.339 12.146 3.667 12.358 3.949 12.306 4.089 12.255 4.344 12.166 4.72 12.018 5.204 11.82 5.474 11.709 5.602 11.4 5.491 11.131 5.381 10.861 5.073 10.734 4.803 10.844 4.412 11.004 4.088 11.133 3.853 11.219 2.956 10.484 .793 4.034 .541 .738L.53 .569V.57C.53 .57 .53 .57 .53 .57 .531 .57 .529 .546 .527 .522 .527 .231 .291 0 0 0M3.735 11.262C3.737 11.261 3.738 11.261 3.739 11.261 3.738 11.261 3.737 11.261 3.735 11.262" fill="#4d4d4f"/>
<path transform="matrix(1,0,0,-1,655.6542,500.4872)" d="M0 0C-.123 0-.247 .043-.347 .13-1.11 .798-2.805 2.766-3.606 3.85-3.779 4.084-3.729 4.415-3.495 4.588-3.261 4.761-2.931 4.712-2.758 4.477-2.01 3.466-.338 1.524 .347 .924 .567 .732 .589 .399 .397 .18 .293 .061 .147 0 0 0" fill="#4d4d4f"/>
<path transform="matrix(1,0,0,-1,651.7906,503.03263)" d="M0 0C-.125 0-.25 .044-.35 .133-.778 .514-3.875 3.973-5.289 6.483-5.432 6.737-5.342 7.058-5.089 7.201-4.834 7.345-4.513 7.254-4.37 7.001-3.038 4.636-.042 1.27 .351 .922 .568 .728 .588 .395 .394 .177 .29 .06 .145 0 0 0" fill="#4d4d4f"/>
<path transform="matrix(1,0,0,-1,647.5653,517.5363)" d="M0 0C-.123 0-.246 .043-.346 .129-1.236 .902-2.914 2.546-3.885 3.906-4.055 4.144-4 4.473-3.763 4.642-3.526 4.812-3.197 4.756-3.027 4.52-2.109 3.234-.507 1.666 .346 .926 .566 .735 .589 .402 .399 .182 .294 .061 .147 0 0 0" fill="#4d4d4f"/>
</svg>
