<?xml version='1.0' encoding='UTF-8'?>
<svg xmlns="http://www.w3.org/2000/svg" xmlns:xlink="http://www.w3.org/1999/xlink" viewBox="1008.47 710.75 74.51 45.92" width="75" height="46"><path transform="matrix(1,0,0,-1,1038.5614,736.2114)" d="M0 0C-.155 0-.31 .059-.427 .177L-2.522 2.272C-2.635 2.386-2.699 2.54-2.699 2.7-2.699 2.86-2.635 3.014-2.522 3.127L1.178 6.825C1.415 7.061 1.797 7.061 2.033 6.825L4.128 4.73C4.241 4.616 4.304 4.463 4.304 4.302 4.304 4.142 4.241 3.988 4.127 3.875L.427 .177C.309 .059 .155 0 0 0M-1.24 2.7 0 1.459 2.845 4.303 1.606 5.543Z" fill="#4d4d4f"/>
<path transform="matrix(1,0,0,-1,1031.7631,736.97537)" d="M0 0C-1.14 0-2.281 .434-3.148 1.303L-15.104 13.264C-15.34 13.5-15.34 13.883-15.103 14.119-14.867 14.355-14.485 14.355-14.248 14.118L-2.293 2.157C-1.681 1.545-.867 1.207-.001 1.207H0C.866 1.207 1.68 1.544 2.292 2.156L9.246 9.106C9.858 9.718 10.196 10.532 10.196 11.398 10.196 12.265 9.859 13.079 9.247 13.691L-2.708 25.653C-2.944 25.889-2.944 26.272-2.708 26.508-2.472 26.743-2.089 26.744-1.853 26.507L10.102 14.546C10.942 13.705 11.405 12.587 11.405 11.398 11.405 10.209 10.941 9.091 10.1 8.251L3.147 1.301C2.279 .434 1.14 0 0 0" fill="#4d4d4f"/>
<path transform="matrix(1,0,0,-1,1036.0094,734.3252)" d="M0 0C-.155 0-.309 .059-.427 .177L-15.102 14.859C-15.338 15.096-15.338 15.478-15.102 15.714-14.866 15.95-14.483 15.95-14.247 15.714L.428 1.032C.664 .796 .664 .413 .427 .177 .31 .059 .155 0 0 0" fill="#4d4d4f"/>
<path transform="matrix(1,0,0,-1,1040.4223,729.9145)" d="M0 0C-.155 0-.309 .059-.427 .177L-15.102 14.859C-15.338 15.095-15.338 15.478-15.102 15.714-14.866 15.95-14.483 15.95-14.247 15.714L.428 1.032C.664 .796 .664 .413 .427 .177 .31 .059 .155 0 0 0" fill="#4d4d4f"/>
<path transform="matrix(1,0,0,-1,1045.6513,741.9503)" d="M0 0 .838 .872-5.433 7.145-4.193 8.385 2.053 2.137 2.89 3.009-3.765 9.667C-4.001 9.903-4.384 9.903-4.62 9.667L-6.715 7.573C-6.828 7.46-6.892 7.306-6.892 7.145-6.892 6.985-6.828 6.831-6.715 6.718Z" fill="#4d4d4f"/>
<path transform="matrix(1,0,0,-1,1060.1195,750.52487)" d="M0 0-9.483 9.487-10.321 8.615-1.282-.427-2.522-1.667-11.536 7.351-12.374 6.479-2.95-2.949C-2.832-3.067-2.677-3.126-2.523-3.126-2.368-3.126-2.213-3.067-2.095-2.949L0-.855C.113-.742 .177-.588 .177-.427 .177-.267 .113-.113 0 0" fill="#4d4d4f"/>
<path transform="matrix(1,0,0,-1,1038.9786,753.7758)" d="M0 0C-.156 0-.306 .06-.419 .169L-2.555 2.221C-2.796 2.452-2.803 2.835-2.572 3.076L17.292 23.751C17.403 23.867 17.556 23.933 17.716 23.937 17.88 23.937 18.031 23.879 18.147 23.768L20.283 21.716C20.524 21.484 20.531 21.102 20.3 20.861L.436 .186C.325 .07 .172 .003 .012 0 .008 0 .004 0 0 0M-1.281 2.674-.017 1.459 19.01 21.263 17.745 22.478Z" fill="#4d4d4f"/>
<path transform="matrix(1,0,0,-1,1062.1784,742.0083)" d="M0 0C-.156 0-.306 .06-.419 .169L-6.604 6.111C-6.844 6.342-6.852 6.725-6.621 6.966-6.389 7.206-6.006 7.214-5.766 6.983L-.017 1.459 7.79 9.59C12.028 14.001 12.798 20.148 9.773 25.294 4.51 28.111-1.601 27.095-5.839 22.684L-13.651 14.558-7.902 9.035C-7.661 8.804-7.654 8.421-7.885 8.18-8.116 7.939-8.499 7.932-8.74 8.163L-14.925 14.105C-15.04 14.217-15.107 14.369-15.11 14.529-15.114 14.69-15.053 14.845-14.942 14.96L-6.711 23.522C-2.044 28.379 4.711 29.459 10.498 26.275 10.591 26.224 10.669 26.149 10.724 26.058 14.138 20.403 13.328 13.61 8.661 8.752L.436 .186C.325 .07 .173 .003 .012 0 .008 0 .004 0 0 0" fill="#4d4d4f"/>
<path transform="matrix(1,0,0,-1,1036.6007,762.85617)" d="M0 0C-.156 0-.306 .06-.419 .169L-8.841 8.261C-8.957 8.372-9.023 8.524-9.027 8.684-9.03 8.845-8.969 9-8.858 9.115L-5.072 13.056C-4.446 13.708-3.623 14.101-2.757 14.163-1.867 14.226-1.037 13.935-.421 13.343L4.323 8.785C5.578 7.58 5.532 5.49 4.222 4.126L.436 .186C.325 .07 .172 .003 .012 0 .008 0 .004 0 0 0M-7.568 8.714-.017 1.459 3.35 4.964C4.198 5.847 4.259 7.17 3.486 7.914L-1.259 12.472C-1.625 12.824-2.126 12.995-2.671 12.957-3.238 12.917-3.781 12.654-4.2 12.218ZM-.194 3.462C-.35 3.462-.5 3.522-.613 3.63L-5.375 8.205C-5.615 8.437-5.623 8.819-5.392 9.06L-3.419 11.113C-2.914 11.639-2.097 11.678-1.598 11.199L2.228 7.523C2.474 7.287 2.609 6.95 2.598 6.599 2.587 6.266 2.451 5.947 2.214 5.7L.242 3.647C.131 3.532-.022 3.465-.182 3.462-.186 3.462-.19 3.462-.194 3.462M-4.101 8.658-.211 4.921 1.343 6.538C1.393 6.591 1.392 6.645 1.387 6.655L-2.436 10.327C-2.443 10.329-2.497 10.328-2.548 10.276Z" fill="#4d4d4f"/>
<path transform="matrix(1,0,0,-1,1060.0653,762.85617)" d="M0 0C-.158 0-.317 .062-.436 .186L-4.222 4.126C-5.532 5.49-5.577 7.58-4.323 8.785L.421 13.343C1.675 14.548 3.762 14.419 5.073 13.056L8.858 9.115C8.969 9 9.03 8.845 9.027 8.684 9.024 8.524 8.957 8.372 8.841 8.261L.419 .169C.302 .056 .151 0 0 0M-3.35 4.964 .017 1.459 7.568 8.714 4.201 12.218C3.352 13.101 2.032 13.215 1.259 12.472L-3.486 7.914C-4.259 7.17-4.198 5.847-3.35 4.964M.194 3.462C.036 3.462-.123 3.524-.242 3.647L-2.215 5.7C-2.451 5.947-2.587 6.266-2.598 6.599-2.609 6.95-2.474 7.287-2.228 7.524L1.598 11.199C2.097 11.678 2.914 11.64 3.419 11.113L5.392 9.06C5.503 8.944 5.564 8.789 5.56 8.629 5.557 8.469 5.49 8.316 5.375 8.205L.613 3.63C.496 3.518 .345 3.462 .194 3.462M-1.343 6.538 .211 4.921 4.101 8.658 2.547 10.276C2.497 10.328 2.443 10.329 2.432 10.325L-1.39 6.652C-1.392 6.645-1.393 6.591-1.343 6.538" fill="#4d4d4f"/>
<path transform="matrix(1,0,0,-1,1069.827,718.76376)" d="M0 0C-.064 0-.13 .01-.194 .032-4.605 1.531-8.062 .227-8.096 .213-8.406 .093-8.757 .246-8.879 .556-9 .867-8.848 1.217-8.537 1.339-8.381 1.4-4.655 2.825 .195 1.177 .511 1.07 .68 .726 .573 .41 .487 .159 .252 0 0 0" fill="#4d4d4f"/>
</svg>
