<?xml version='1.0' encoding='UTF-8'?>
<svg xmlns="http://www.w3.org/2000/svg" xmlns:xlink="http://www.w3.org/1999/xlink" viewBox="884.82 636.90 109.05 50.70" width="109" height="51"><path transform="matrix(1,0,0,-1,898.3655,682.76907)" d="M0 0C-2.296 0-3.818 4.619-3.818 6.491V13.745C-3.818 15.359-2.505 16.672-.891 16.672H.891C2.505 16.672 3.818 15.359 3.818 13.745V6.491C3.818 4.619 2.296 0 0 0M-.891 15.526C-1.873 15.526-2.673 14.727-2.673 13.745V6.491C-2.673 4.679-1.23 1.145 0 1.145 1.23 1.145 2.673 4.679 2.673 6.491V13.745C2.673 14.727 1.873 15.526 .891 15.526Z" fill="#4d4d4f"/>
<path transform="matrix(1,0,0,-1,893.402,664.66287)" d="M0 0C-.316 0-.573 .257-.573 .573V7.35C-.573 11.086 3.161 19.876 8.268 19.876 8.584 19.876 8.841 19.62 8.841 19.304V2C8.841 1.684 8.584 1.428 8.268 1.428 7.952 1.428 7.695 1.684 7.695 2V18.68C3.877 18.008 .573 10.828 .573 7.35V.573C.573 .257 .316 0 0 0" fill="#4d4d4f"/>
<path transform="matrix(1,0,0,-1,956.7604,688.9462)" d="M0 0C-15.514 0-29.123 10.889-29.123 23.302V24.174C-29.123 25.574-27.984 26.714-26.584 26.714H26.584C27.984 26.714 29.123 25.574 29.123 24.174V23.302C29.123 10.889 15.514 0 0 0M-26.584 25.561C-27.349 25.561-27.971 24.939-27.971 24.174V23.302C-27.971 11.503-14.9 1.152 0 1.152 14.9 1.152 27.971 11.503 27.971 23.302V24.174C27.971 24.939 27.349 25.561 26.584 25.561Z" fill="#4d4d4f"/>
<path transform="matrix(1,0,0,-1,940.1171,678.88406)" d="M0 0C-.121 0-.242 .038-.346 .116-2.414 1.675-4.108 3.445-5.381 5.378-5.556 5.644-5.482 6.001-5.216 6.176-4.951 6.351-4.594 6.277-4.418 6.011-3.218 4.189-1.615 2.515 .347 1.036 .601 .845 .652 .483 .46 .229 .347 .079 .175 0 0 0" fill="#4d4d4f"/>
<path transform="matrix(1,0,0,-1,944.8328,681.7042)" d="M0 0C-.082 0-.164 .017-.243 .054-.88 .351-1.512 .675-2.12 1.017-2.397 1.173-2.496 1.524-2.34 1.802-2.184 2.079-1.833 2.178-1.556 2.021-.972 1.694-.367 1.383 .244 1.098 .532 .964 .657 .621 .522 .333 .425 .123 .217 0 0 0" fill="#4d4d4f"/>
<path transform="matrix(1,0,0,-1,931.2266,659.6344)" d="M0 0C-.315 0-.572 .253-.576 .569-.648 6.229 1.058 11.381 4.105 14.702 4.247 14.858 4.463 14.922 4.668 14.872 7.571 14.148 10.431 12.442 12.94 9.937 13.165 9.712 13.165 9.348 12.941 9.123 12.716 8.898 12.351 8.897 12.126 9.122 9.862 11.382 7.31 12.948 4.724 13.666 2.017 10.551 .509 5.807 .576 .583 .58 .265 .326 .004 .008 0Z" fill="#4d4d4f"/>
<path transform="matrix(1,0,0,-1,941.3422,659.6344)" d="M0 0C-.278 0-.523 .202-.568 .486-.629 .868-.673 1.26-.699 1.65-.903 4.565 .044 7.492 1.968 9.89 4.727 13.338 9.067 15.318 13.875 15.322H13.888C17.648 15.322 21.305 13.613 24.188 10.509 24.405 10.276 24.391 9.912 24.158 9.695 23.925 9.478 23.561 9.492 23.344 9.725 20.678 12.595 17.319 14.157 13.876 14.17 9.42 14.166 5.407 12.344 2.867 9.17 1.125 6.998 .267 4.355 .451 1.729 .474 1.371 .514 1.014 .57 .667 .62 .352 .405 .057 .091 .007 .061 .002 .03 0 0 0" fill="#4d4d4f"/>
<path transform="matrix(1,0,0,-1,961.0214,659.6345)" d="M0 0C-.057 0-.114 .008-.171 .026-.475 .12-.645 .443-.55 .747-.451 1.067-.372 1.406-.31 1.783-.163 2.72-.393 3.628-.976 4.404-1.914 5.651-3.654 6.491-5.876 6.771-7.168 6.933-8.448 6.522-9.479 5.613-10.611 4.615-11.286 3.147-11.286 1.689-11.286 1.66-11.287 1.628-11.284 1.598-11.275 1.263-11.24 .973-11.179 .702-11.109 .392-11.305 .084-11.615 .014-11.927-.055-12.234 .14-12.303 .45-12.38 .794-12.424 1.158-12.434 1.532-12.438 1.558-12.438 1.626-12.438 1.689-12.438 3.473-11.617 5.263-10.241 6.477-8.96 7.608-7.359 8.118-5.732 7.914-3.198 7.595-1.182 6.595-.055 5.096 .72 4.066 1.025 2.856 .827 1.599 .756 1.165 .665 .776 .55 .405 .473 .158 .246 0 0 0" fill="#4d4d4f"/>
<path transform="matrix(1,0,0,-1,973.604,644.9103)" d="M0 0C-.238 0-.461 .149-.544 .386-1.945 4.405-3.806 6.497-6.399 6.972-7.523 7.177-8.243 6.646-9.153 5.975-10.267 5.153-11.653 4.13-13.999 4.801-16.135 5.413-18.456 4.813-19.774 3.309-19.984 3.069-20.348 3.046-20.587 3.255-20.826 3.465-20.85 3.829-20.641 4.068-19.009 5.93-16.277 6.653-13.682 5.909-11.88 5.394-10.933 6.092-9.837 6.902-8.885 7.603-7.808 8.399-6.192 8.105-3.148 7.548-1.008 5.216 .544 .766 .649 .466 .49 .137 .19 .032 .127 .01 .063 0 0 0" fill="#4d4d4f"/>
</svg>
