<?xml version='1.0' encoding='UTF-8'?>
<svg xmlns="http://www.w3.org/2000/svg" xmlns:xlink="http://www.w3.org/1999/xlink" viewBox="731.14 397.33 57.32 40.40" width="57" height="40"><path transform="matrix(1,0,0,-1,753.8775,445.26094)" d="M0 0C-4.449 0-8.55 1.583-11.328 4.391-13.658 6.747-14.864 9.825-14.723 13.059-14.632 15.062-14.071 16.968-13.055 18.726-13.045 18.747-13.034 18.767-13.021 18.786-8.657 25.245-6.426 31.366-5.999 38.05-5.773 41.592-2.936 44.264 .599 44.264 1.127 44.264 1.652 44.217 2.162 44.123 2.382 44.088 2.555 43.898 2.555 43.669 2.555 43.415 2.356 43.209 2.102 43.209H2.088C2.06 43.209 2.032 43.212 2.005 43.217 1.547 43.301 1.074 43.344 .599 43.344-2.444 43.344-4.886 41.043-5.081 37.991-5.518 31.148-7.792 24.891-12.237 18.303-12.239 18.3-12.241 18.297-12.242 18.294-13.194 16.657-13.719 14.882-13.804 13.017-13.936 10.001-12.853 7.241-10.674 5.038-7.948 2.283-3.844 .789 .584 .929 5.668 1.099 10.02 2.903 12.525 5.879 14.247 7.924 14.966 10.378 14.605 12.975 14.187 16.007 13.501 18.389 11.383 20.889 8.606 23.744 6.809 27.989 6.452 32.536 6.432 32.789 6.622 33.011 6.875 33.031 7.132 33.049 7.35 32.861 7.37 32.608 7.71 28.265 9.417 24.224 12.053 21.52 12.06 21.512 12.067 21.505 12.074 21.496 14.337 18.831 15.087 16.212 15.516 13.101 15.914 10.24 15.123 7.537 13.229 5.286 10.557 2.111 5.959 .188 .614 .01 .409 .003 .204 0 0 0" fill="#4d4d4f"/>
<path transform="matrix(1,0,0,-1,744.1005,432.8876)" d="M0 0C-.007 0-.014 0-.021 0-.275 .012-.471 .227-.46 .481-.423 1.292-.262 2.088 .019 2.847 .107 3.086 .371 3.207 .61 3.119 .848 3.031 .97 2.767 .882 2.528 .634 1.859 .492 1.156 .459 .439 .448 .192 .244 0 0 0" fill="#4d4d4f"/>
<path transform="matrix(1,0,0,-1,746.0469,428.03883)" d="M0 0C-.084 0-.168 .023-.244 .071-.46 .206-.524 .49-.389 .705 .924 2.792 2.051 4.892 2.962 6.946 3.065 7.179 3.337 7.284 3.569 7.18 3.801 7.077 3.906 6.806 3.803 6.574 2.874 4.479 1.726 2.34 .39 .215 .302 .076 .153 0 0 0" fill="#4d4d4f"/>
<path transform="matrix(1,0,0,-1,778.415,405.34083)" d="M0 0C-.111 0-.222 .04-.31 .121-.498 .292-.511 .583-.339 .771 .224 1.386 .718 2.022 1.016 2.511-.754 4.103-3.248 5.261-6.224 5.869-10.784 6.803-16.118 6.378-19.811 4.785-20.76 4.376-21.547 3.91-22.153 3.398-22.347 3.233-22.637 3.258-22.801 3.452-22.965 3.646-22.941 3.936-22.747 4.1-22.072 4.671-21.207 5.185-20.175 5.63-16.321 7.292-10.772 7.74-6.04 6.77-2.745 6.097 .005 4.77 1.912 2.933 2.056 2.794 2.094 2.577 2.005 2.397 1.713 1.81 1.09 .97 .339 .149 .249 .05 .125 0 0 0" fill="#4d4d4f"/>
<path transform="matrix(1,0,0,-1,775.6947,415.29594)" d="M0 0C-5.656 0-12.989 1.093-17.166 12.039-17.219 12.179-17.201 12.335-17.118 12.459-17.034 12.583-16.896 12.659-16.746 12.663-13.172 12.74-7.761 9.32-6.326 7.793-6.152 7.608-6.161 7.317-6.346 7.143-6.531 6.969-6.823 6.978-6.996 7.163-8.184 8.427-12.834 11.377-16.048 11.713-11.633 .901-4.082 .801 1.633 .944 1.257 5.489-.367 9.005-3.196 11.401-6.47 14.172-11.322 15.315-17.227 14.706-17.481 14.681-17.706 14.863-17.732 15.116-17.758 15.369-17.575 15.595-17.322 15.621-11.163 16.258-6.072 15.04-2.602 12.103 .524 9.456 2.27 5.561 2.586 .526 2.594 .401 2.551 .279 2.467 .186 2.382 .094 2.264 .04 2.14 .037 1.463 .019 .746 0 0 0" fill="#4d4d4f"/>
</svg>
