<?xml version='1.0' encoding='UTF-8'?>
<svg xmlns="http://www.w3.org/2000/svg" xmlns:xlink="http://www.w3.org/1999/xlink" viewBox="923.06 711.69 69.38 51.94" width="69" height="52"><path transform="matrix(1,0,0,-1,974.8575,746.15927)" d="M0 0C-.111 0-.223 .035-.318 .109-.545 .284-.587 .611-.411 .839 1.93 3.869 3.219 7.608 3.219 11.366 3.219 20.866-2.276 28.03-9.564 28.03-10.724 28.03-12.183 27.647-13.784 26.924-14.045 26.806-14.354 26.922-14.472 27.184-14.591 27.446-14.474 27.754-14.213 27.872-12.453 28.668-10.889 29.071-9.564 29.071-1.683 29.071 4.26 21.46 4.26 11.366 4.26 7.378 2.894 3.414 .412 .202 .31 .069 .156 0 0 0" fill="#4d4d4f"/>
<path transform="matrix(1,0,0,-1,940.5424,745.9922)" d="M0 0C-.158 0-.314 .071-.416 .207-2.811 3.389-4.13 7.292-4.13 11.199-4.13 21.293 1.813 28.904 9.694 28.904 12.849 28.904 16.478 26.634 17.514 25.939 17.753 25.779 17.817 25.455 17.657 25.216 17.496 24.978 17.173 24.915 16.934 25.074 14.925 26.422 11.968 27.863 9.694 27.863 2.406 27.863-3.089 20.699-3.089 11.199-3.089 7.517-1.845 3.835 .415 .833 .588 .604 .542 .277 .313 .105 .219 .034 .109 0 0 0" fill="#4d4d4f"/>
<path transform="matrix(1,0,0,-1,943.4485,726.87356)" d="M0 0C-.091 0-.183 .024-.267 .074-.513 .221-.594 .54-.447 .787 1.296 3.705 3.933 5.378 6.789 5.378 7.077 5.378 7.31 5.145 7.31 4.857 7.31 4.57 7.077 4.337 6.789 4.337 4.272 4.337 2.02 2.887 .447 .253 .35 .09 .177 0 0 0" fill="#4d4d4f"/>
<path transform="matrix(1,0,0,-1,955.5519,719.70657)" d="M0 0C-.269 0-.497 .208-.518 .481-1.077 7.776 4.288 10.468 5.946 11.119 6.214 11.223 6.516 11.093 6.621 10.825 6.726 10.557 6.594 10.255 6.327 10.15 4.417 9.4 .029 6.964 .52 .56 .541 .273 .327 .023 .04 .001 .027 0 .014 0 0 0" fill="#4d4d4f"/>
<path transform="matrix(1,0,0,-1,955.5644,761.14126)" d="M0 0C-4.074 0-9.06 .663-11.879 1.497-16.908 2.863-24.557 7.949-24.492 10.53-24.482 10.918-24.302 11.606-23.199 11.847-19.448 12.667 3.442 13.215 8.666 11.363 8.853 11.297 9.035 11.283 9.21 11.318 13.368 12.16 25.746 13.669 28.011 9.708 29.042 7.905 29.174 5.874 28.38 3.99 27.663 2.286 26.102 1.104 24.309 .903 20.586 .489 9.977 .983 8.724 6.239 8.657 6.518 8.83 6.799 9.11 6.866 9.391 6.933 9.67 6.76 9.736 6.48 10.27 4.242 13.219 3.093 15.599 2.523 18.638 1.796 22.105 1.705 24.194 1.938 25.613 2.096 26.85 3.038 27.421 4.394 27.891 5.511 28.218 7.249 27.108 9.191 25.41 12.159 14.748 11.376 9.417 10.298 9.058 10.225 8.679 10.254 8.318 10.382 3.264 12.173-19.594 11.57-22.977 10.83-23.446 10.728-23.45 10.565-23.451 10.504-23.492 8.893-17.106 3.996-11.595 2.498-8.809 1.674-4.726 1.117-.927 1.04 3.443 .946 5.339 1.559 5.505 1.963 5.864 2.838 5.988 3.573 6.029 4.036 6.054 4.322 6.312 4.532 6.593 4.509 6.879 4.484 7.091 4.231 7.066 3.945 6.998 3.167 6.796 2.367 6.468 1.568 6.002 .435 3.3 0 0 0" fill="#4d4d4f"/>
<path transform="matrix(1,0,0,-1,953.2377,757.3725)" d="M0 0C-.009 0-.018 0-.027 .001-1.49 .077-3.712 .258-5.986 .693-6.268 .747-6.453 1.019-6.399 1.302-6.345 1.584-6.071 1.768-5.79 1.715-4.036 1.38-2.025 1.147 .027 1.04 .314 1.025 .534 .781 .519 .493 .505 .215 .275 0 0 0" fill="#4d4d4f"/>
</svg>
