<?xml version='1.0' encoding='UTF-8'?>
<svg xmlns="http://www.w3.org/2000/svg" xmlns:xlink="http://www.w3.org/1999/xlink" viewBox="993.97 411.86 72.34 27.69" width="72" height="28"><path transform="matrix(1,0,0,-1,1015.4114,454.7044)" d="M0 0C-.238 0-.458 .153-.531 .393-.552 .462-2.684 7.426-4.948 16.552-7.504 26.854-.222 30.891 2.52 32.41 2.667 32.492 2.843 32.503 2.998 32.439 3.154 32.376 3.272 32.246 3.321 32.085 4.699 27.536 3.2 25.438 1.995 23.751 1.55 23.128 1.165 22.589 .977 22.001 .451 20.355 1.962 14.503 3.562 8.306 4.106 6.199 4.669 4.019 5.197 1.842 5.269 1.543 5.086 1.243 4.788 1.171 4.489 1.1 4.189 1.282 4.116 1.58 3.591 3.75 3.029 5.925 2.486 8.028 .507 15.691-.676 20.483-.082 22.34 .159 23.093 .612 23.727 1.091 24.398 2.145 25.873 3.331 27.533 2.444 31.088-1.69 28.671-5.854 24.821-3.869 16.82-1.613 7.725 .51 .788 .532 .719 .622 .426 .457 .115 .163 .025 .109 .008 .054 0 0 0" fill="#4d4d4f"/>
<path transform="matrix(1,0,0,-1,1010.2406,433.4836)" d="M0 0C-3.684 0-7.067 2.587-7.945 6.125-8.243 7.325-8.333 8.974-8.199 10.767-8.188 10.915-8.119 11.052-8.007 11.148-7.894 11.245-7.747 11.289-7.601 11.28-6.6 11.2-5.461 10.917-4.215 10.439-3.097 10.012-1.923 9.432-.82 8.763-.558 8.605-.474 8.263-.633 8-.792 7.738-1.134 7.654-1.396 7.813-2.443 8.448-3.555 8.997-4.612 9.401-5.526 9.752-6.369 9.987-7.126 10.105-7.192 8.669-7.101 7.339-6.866 6.393-6.101 3.31-2.966 .987 .259 1.117 .569 1.128 .824 .889 .836 .583 .848 .276 .609 .018 .302 .006 .201 .002 .1 0 0 0" fill="#4d4d4f"/>
<path transform="matrix(1,0,0,-1,1006.6084,424.3518)" d="M0 0H-.006C-.313 .003-.559 .255-.556 .562-.532 2.746 3.056 8.778 5.54 10.201 5.732 10.311 5.971 10.297 6.148 10.165 7.606 9.079 9.049 7.219 10.01 5.188 10.141 4.91 10.022 4.579 9.745 4.448 9.467 4.316 9.136 4.435 9.005 4.712 8.199 6.417 6.987 8.037 5.783 9.038 3.52 7.428 .573 2.171 .556 .55 .552 .245 .304 0 0 0" fill="#4d4d4f"/>
<path transform="matrix(1,0,0,-1,1003.771,419.8713)" d="M0 0C-.033 0-.066 .003-.099 .009-.401 .063-.602 .352-.548 .654 .061 4.047 2.34 6.981 3.379 7.448 4.755 8.068 7.144 6.683 8.36 5.031 8.542 4.783 8.489 4.436 8.242 4.254 7.995 4.071 7.647 4.124 7.465 4.372 6.337 5.904 4.462 6.716 3.835 6.434 3.235 6.165 1.113 3.615 .546 .458 .498 .189 .264 0 0 0" fill="#4d4d4f"/>
<path transform="matrix(1,0,0,-1,1035.8932,454.0256)" d="M0 0C-.013 0-.025 0-.038 .001-.344 .022-.576 .287-.555 .593-.551 .658-.122 7.164-.293 10.591L-.303 10.787C-.47 14.156-.677 18.319-3.451 21.17-7.719 17.603-8.373 10.341-8.021 .576-8.01 .269-8.25 .012-8.557 0-8.865-.013-9.121 .229-9.132 .536-9.506 10.926-8.734 18.612-3.747 22.353-3.532 22.513-3.234 22.498-3.037 22.317 .394 19.157 .633 14.351 .807 10.842L.817 10.647C.992 7.155 .572 .788 .554 .519 .534 .225 .29 0 0 0" fill="#4d4d4f"/>
<path transform="matrix(1,0,0,-1,1028.2631,439.6293)" d="M0 0C-.239 0-.46 .156-.532 .396-2.727 7.722-.919 17.848 2.042 21.348 2.237 21.578 2.581 21.61 2.816 21.421 7.118 17.946 7.962 12.861 8.368 10.417 8.408 10.175 8.445 9.956 8.48 9.764 8.536 9.462 8.336 9.172 8.034 9.116 7.733 9.062 7.443 9.26 7.387 9.562 7.35 9.76 7.313 9.986 7.271 10.235 6.875 12.627 6.148 17.002 2.552 20.189-.006 16.547-1.424 7.244 .533 .715 .621 .421 .454 .111 .16 .024 .107 .008 .053 0 0 0" fill="#4d4d4f"/>
<path transform="matrix(1,0,0,-1,1034.154,423.42613)" d="M0 0C-.046 0-.093 .005-.139 .018-.436 .094-.615 .397-.539 .694 .903 6.288-1.287 17.868-3.731 21.061-5.334 19.274-8.039 12.607-7.247 4.842-7.216 4.537-7.438 4.264-7.744 4.233-8.048 4.204-8.322 4.424-8.353 4.729-9.249 13.505-5.951 20.944-4.006 22.305-3.788 22.459-3.492 22.435-3.301 22.25-1.656 20.658-.359 16.218 .307 12.594 1.185 7.814 1.271 3.261 .538 .417 .473 .166 .248 0 0 0" fill="#4d4d4f"/>
<path transform="matrix(1,0,0,-1,1049.2089,454.0256)" d="M0 0C-.067 0-.135 .012-.202 .038-.488 .149-.629 .472-.518 .758-.501 .8 1.117 4.952 1.746 6.899 2.403 8.928 4.194 16.846 4.585 19.257 4.965 21.595 4.492 25.936 3.482 27.939 1.524 26.606-2.239 22.531-2.728 20.582-3.302 18.293-4.988 9.433-5.337 1.138-5.35 .831-5.606 .592-5.916 .605-6.222 .618-6.461 .877-6.448 1.184-6.095 9.567-4.388 18.534-3.806 20.853-3.182 23.339 1.369 28.135 3.42 29.198 3.668 29.328 3.973 29.252 4.132 29.022 5.619 26.876 6.091 21.594 5.683 19.079 5.287 16.64 3.471 8.618 2.804 6.556 2.165 4.579 .585 .525 .518 .354 .432 .134 .222 0 0 0" fill="#4d4d4f"/>
<path transform="matrix(1,0,0,-1,1047.6732,430.8655)" d="M0 0C-.012 0-.025 0-.037 .001-.343 .021-.575 .286-.555 .592-.134 7.002 3.202 15.441 8.555 18.456 8.687 18.53 8.843 18.548 8.988 18.504 9.132 18.461 9.253 18.36 9.322 18.226 11.735 13.542 10.167 6.239 9.98 5.421 9.912 5.122 9.614 4.934 9.315 5.003 9.015 5.072 8.828 5.37 8.897 5.669 9.509 8.348 10.087 13.636 8.587 17.176 3.875 14.111 .943 6.426 .554 .519 .535 .225 .29 0 0 0" fill="#4d4d4f"/>
</svg>
