<?xml version='1.0' encoding='UTF-8'?>
<svg xmlns="http://www.w3.org/2000/svg" xmlns:xlink="http://www.w3.org/1999/xlink" viewBox="780.03 276.77 146.44 71.89" width="146" height="72"><path transform="matrix(1,0,0,-1,855.7675,346.30073)" d="M0 0C-3.692 0-6.696 3.004-6.696 6.696-6.696 8.554-5.91 10.337-4.562 11.595-5.91 12.854-6.696 14.636-6.696 16.495-6.696 18.353-5.909 20.136-4.562 21.394-5.91 22.653-6.696 24.435-6.696 26.294-6.696 29.986-3.692 32.99 0 32.99 3.692 32.99 6.696 29.986 6.696 26.294 6.696 24.435 5.91 22.653 4.563 21.395 5.91 20.136 6.696 18.353 6.696 16.495 6.696 14.636 5.91 12.854 4.563 11.595 5.91 10.337 6.696 8.554 6.696 6.696 6.696 3.004 3.692 0 0 0M0 31.801C-3.037 31.801-5.507 29.33-5.507 26.294-5.507 24.535-4.696 22.923-3.281 21.872-3.131 21.759-3.042 21.582-3.042 21.395-3.042 21.207-3.131 21.03-3.281 20.917-4.696 19.866-5.507 18.254-5.507 16.495-5.507 14.736-4.696 13.124-3.281 12.073-3.131 11.96-3.042 11.783-3.042 11.595-3.042 11.407-3.131 11.231-3.281 11.118-4.696 10.067-5.507 8.455-5.507 6.696-5.507 3.659-3.037 1.189 0 1.189 3.036 1.189 5.507 3.659 5.507 6.696 5.507 8.455 4.696 10.067 3.282 11.118 3.131 11.231 3.042 11.407 3.042 11.595 3.042 11.783 3.131 11.96 3.282 12.072 4.696 13.124 5.507 14.736 5.507 16.495 5.507 18.254 4.696 19.866 3.282 20.917 3.131 21.03 3.042 21.207 3.042 21.395 3.042 21.582 3.131 21.759 3.282 21.872 4.696 22.923 5.507 24.535 5.507 26.294 5.507 29.33 3.036 31.801 0 31.801" fill="#4d4d4f"/>
<path transform="matrix(1,0,0,-1,855.6752,355.9147)" d="M0 0C-.328 0-.594 .266-.594 .594V35.538C-.594 35.866-.328 36.133 0 36.133 .328 36.133 .594 35.866 .594 35.538V.594C.594 .266 .328 0 0 0" fill="#4d4d4f"/>
<path transform="matrix(1,0,0,-1,855.6752,329.84565)" d="M0 0C-2.714 0-3.51 1.579-3.552 2.414-3.568 2.741-3.316 3.021-2.988 3.037-2.659 3.052-2.386 2.805-2.365 2.482-2.352 2.342-2.179 1.189 0 1.189 .328 1.189 .594 .923 .594 .594 .594 .266 .328 0 0 0" fill="#4d4d4f"/>
<path transform="matrix(1,0,0,-1,855.9222,341.96684)" d="M0 0C-.184 0-.301 .013-.317 .015-.644 .054-.876 .35-.837 .676-.799 1.001-.503 1.234-.179 1.196-.157 1.193 .867 1.094 1.559 1.715 2.021 2.13 2.255 2.798 2.255 3.702 2.255 4.031 2.521 4.297 2.85 4.297 3.178 4.297 3.444 4.031 3.444 3.702 3.444 2.439 3.073 1.469 2.341 .82 1.532 .101 .51 0 0 0" fill="#4d4d4f"/>
<path transform="matrix(1,0,0,-1,917.8761,358.1604)" d="M0 0H-22.518C-22.846 0-23.112 .266-23.112 .594V68.151C-23.112 68.479-22.846 68.745-22.518 68.745H0C.328 68.745 .594 68.479 .594 68.151V.594C.594 .266 .328 0 0 0M-21.923 1.189H-.59399989V67.556H-21.923Z" fill="#4d4d4f"/>
<path transform="matrix(1,0,0,-1,903.2592,327.344)" d="M0 0H-3.951C-4.279 0-4.545 .266-4.545 .594V30.224C-4.545 30.552-4.279 30.818-3.951 30.818H0C.328 30.818 .594 30.552 .594 30.224V.594C.594 .266 .328 0 0 0M-3.356 1.189H-.595V29.629H-3.356Z" fill="#4d4d4f"/>
<path transform="matrix(1,0,0,-1,899.4073,290.60395)" d="M0 0C-.328 0-.594 .266-.594 .594V6.323C-.594 6.651-.328 6.917 0 6.917H14.419C14.748 6.917 15.014 6.651 15.014 6.323V.891C15.014 .562 14.748 .296 14.419 .296 14.091 .296 13.825 .562 13.825 .891V5.728H.594V.594C.594 .266 .328 0 0 0" fill="#4d4d4f"/>
<path transform="matrix(1,0,0,-1,906.6171,284.7768)" d="M0 0C-.328 0-.594 .266-.594 .594V7.804C-.594 8.133-.328 8.399 0 8.399 .328 8.399 .594 8.133 .594 7.804V.594C.594 .266 .328 0 0 0" fill="#4d4d4f"/>
<path transform="matrix(1,0,0,-1,904.4305,338.00813)" d="M0 0H-5.037C-5.366 0-5.632 .266-5.632 .594V5.632C-5.632 5.96-5.366 6.227-5.037 6.227H0C.328 6.227 .594 5.96 .594 5.632V.594C.594 .266 .328 0 0 0M-4.443 1.189H-.5949998V5.038H-4.443Z" fill="#4d4d4f"/>
<path transform="matrix(1,0,0,-1,904.4305,346.89753)" d="M0 0H-5.037C-5.366 0-5.632 .266-5.632 .594V5.632C-5.632 5.96-5.366 6.226-5.037 6.226H0C.328 6.226 .594 5.96 .594 5.632V.594C.594 .266 .328 0 0 0M-4.443 1.189H-.5949998V5.037H-4.443Z" fill="#4d4d4f"/>
<path transform="matrix(1,0,0,-1,833.1542,314.88783)" d="M0 0H-4.056C-4.384 0-4.65 .266-4.65 .594V15.032H-22.929V1.104C-22.929 .776-23.195 .51-23.523 .51H-44.528C-44.857 .51-45.123 .776-45.123 1.104-45.123 1.432-44.857 1.698-44.528 1.698H-24.118V15.626C-24.118 15.955-23.851 16.221-23.523 16.221H-4.056C-3.727 16.221-3.461 15.955-3.461 15.626V1.189H-.595V25.308C-.595 25.636-.328 25.903 0 25.903H23.793C24.122 25.903 24.388 25.636 24.388 25.308V19.788H30.229V27.092C30.229 27.42 30.495 27.686 30.823 27.686H59.006C59.334 27.686 59.601 27.42 59.601 27.092 59.601 26.763 59.334 26.497 59.006 26.497H31.418V19.193C31.418 18.865 31.151 18.599 30.823 18.599H23.793C23.465 18.599 23.199 18.865 23.199 19.193V24.714H.594V.594C.594 .266 .328 0 0 0" fill="#4d4d4f"/>
<path transform="matrix(1,0,0,-1,816.9314,309.75074)" d="M0 0H-4.326C-4.654 0-4.921 .266-4.921 .594V4.92C-4.921 5.249-4.654 5.515-4.326 5.515H0C.328 5.515 .594 5.249 .594 4.92V.594C.594 .266 .328 0 0 0M-3.732 1.189H-.595V4.326H-3.732Z" fill="#4d4d4f"/>
<path transform="matrix(1,0,0,-1,826.3947,309.75074)" d="M0 0H-4.326C-4.654 0-4.921 .266-4.921 .594V4.92C-4.921 5.249-4.654 5.515-4.326 5.515H0C.328 5.515 .594 5.249 .594 4.92V.594C.594 .266 .328 0 0 0M-3.732 1.189H-.595V4.326H-3.732Z" fill="#4d4d4f"/>
<path transform="matrix(1,0,0,-1,816.9314,319.48414)" d="M0 0H-4.326C-4.654 0-4.921 .266-4.921 .594V4.92C-4.921 5.249-4.654 5.515-4.326 5.515H0C.328 5.515 .594 5.249 .594 4.92V.594C.594 .266 .328 0 0 0M-3.732 1.189H-.595V4.326H-3.732Z" fill="#4d4d4f"/>
<path transform="matrix(1,0,0,-1,826.3947,319.48414)" d="M0 0H-4.326C-4.654 0-4.921 .266-4.921 .594V4.92C-4.921 5.249-4.654 5.515-4.326 5.515H0C.328 5.515 .594 5.249 .594 4.92V.594C.594 .266 .328 0 0 0M-3.732 1.189H-.595V4.326H-3.732Z" fill="#4d4d4f"/>
<path transform="matrix(1,0,0,-1,842.8877,298.12464)" d="M0 0H-4.326C-4.654 0-4.921 .266-4.921 .594V4.921C-4.921 5.249-4.654 5.515-4.326 5.515H0C.328 5.515 .594 5.249 .594 4.921V.594C.594 .266 .328 0 0 0M-3.732 1.189H-.595V4.326H-3.732Z" fill="#4d4d4f"/>
<path transform="matrix(1,0,0,-1,843.158,309.4803)" d="M0 0H-4.326C-4.654 0-4.921 .266-4.921 .594V4.92C-4.921 5.249-4.654 5.515-4.326 5.515H0C.328 5.515 .594 5.249 .594 4.92V.594C.594 .266 .328 0 0 0M-3.732 1.189H-.595V4.326H-3.732Z" fill="#4d4d4f"/>
<path transform="matrix(1,0,0,-1,873.9813,298.3949)" d="M0 0H-4.326C-4.655 0-4.921 .266-4.921 .594V4.921C-4.921 5.249-4.655 5.515-4.326 5.515H0C.328 5.515 .594 5.249 .594 4.921V.594C.594 .266 .328 0 0 0M-3.732 1.189H-.595V4.326H-3.732Z" fill="#4d4d4f"/>
<path transform="matrix(1,0,0,-1,881.0109,306.5061)" d="M0 0H-4.326C-4.654 0-4.92 .266-4.92 .594V4.921C-4.92 5.249-4.654 5.515-4.326 5.515H0C.328 5.515 .594 5.249 .594 4.921V.594C.594 .266 .328 0 0 0M-3.731 1.189H-.59399989V4.326H-3.731Z" fill="#4d4d4f"/>
</svg>
