<?xml version='1.0' encoding='UTF-8'?>
<svg xmlns="http://www.w3.org/2000/svg" xmlns:xlink="http://www.w3.org/1999/xlink" viewBox="459.72 404.37 63.34 22.64" width="63" height="23"><path transform="matrix(1,0,0,-1,481.9614,443.1398)" d="M0 0C-2.8 0-6.644 .875-9.745 3.433-12.338 5.572-13.874 8.513-14.187 11.94-15.149 22.462-3.837 25.384-2.544 25.683 1.269 26.567 10.44 31.465 13.983 36.814 14.014 36.862 14.051 36.915 14.087 36.968L14.132 37.033C14.297 37.277 14.629 37.341 14.873 37.176 15.117 37.011 15.181 36.679 15.016 36.435L14.966 36.363C14.937 36.319 14.906 36.275 14.877 36.23 11.185 30.656 1.656 25.561-2.303 24.643-3.504 24.366-14.003 21.657-13.124 12.038-12.833 8.855-11.467 6.238-9.066 4.256-5.75 1.521-1.527 .857 1.083 1.119 6.051 1.622 15.822 5.344 25.448 24.619 25.8 25.289 26.138 25.936 26.458 26.573 26.463 26.585 26.468 26.597 26.474 26.609 28.087 29.835 29.015 32.265 29.396 34.254 29.452 34.544 29.731 34.734 30.021 34.678 30.311 34.623 30.5 34.343 30.445 34.053 30.041 31.943 29.116 29.509 27.445 26.164 27.44 26.151 27.434 26.139 27.428 26.127 27.101 25.473 26.754 24.81 26.398 24.132 22.173 15.672 13.273 1.28 1.191 .057 .821 .02 .423 0 0 0" fill="#4d4d4f"/>
<path transform="matrix(1,0,0,-1,478.4584,424.96974)" d="M0 0C-.123 0-.246 .042-.347 .128-.571 .32-.597 .657-.405 .881 .891 2.395 3.42 3.454 5.866 4.478 7.003 4.954 8.076 5.404 9.004 5.885 9.265 6.021 9.588 5.919 9.723 5.658 9.859 5.396 9.758 5.074 9.496 4.938 8.529 4.436 7.436 3.978 6.278 3.493 3.947 2.517 1.537 1.508 .406 .187 .3 .063 .15 0 0 0" fill="#4d4d4f"/>
<path transform="matrix(1,0,0,-1,512.9996,412.3804)" d="M0 0C-.099 0-.197 .027-.283 .081-.444 .182-.539 .36-.533 .55-.51 1.335-1.238 2.557-1.941 3.739-2.356 4.436-2.782 5.15-3.083 5.826-3.91 5.207-5.104 4.984-6.189 4.781-6.98 4.633-7.876 4.465-8.105 4.184-8.237 4.023-8.451 3.953-8.652 4.005-8.854 4.057-9.007 4.222-9.044 4.427-9.049 4.456-9.446 6.906-9.151 8.631-10.363 8.543-11.897 8.977-13.287 9.373-14.141 9.616-15.205 9.918-15.503 9.84-15.728 9.782-15.966 9.875-16.09 10.072-16.214 10.27-16.196 10.524-16.045 10.702-12.039 15.419-8.231 14.176-6.798 13.708-6.634 13.655-6.43 13.588-6.368 13.581-5.844 13.539-5.65 13.523-4.292 15.104-4.099 15.327-3.762 15.352-3.539 15.16-3.315 14.968-3.29 14.631-3.482 14.407-4.924 12.732-5.391 12.431-6.455 12.517-6.636 12.532-6.843 12.6-7.129 12.693-8.401 13.108-11.259 14.041-14.506 10.8-14.093 10.709-13.598 10.571-12.995 10.4-11.53 9.983-9.525 9.413-8.611 9.835-8.406 9.93-8.163 9.885-8.005 9.724-7.847 9.562-7.808 9.319-7.908 9.116-8.275 8.367-8.221 6.591-8.1 5.413-7.623 5.598-7.029 5.709-6.385 5.83-5.177 6.056-3.808 6.313-3.336 7.096-3.226 7.28-3.014 7.38-2.804 7.35-2.592 7.319-2.418 7.165-2.363 6.958-2.161 6.195-1.583 5.224-1.024 4.285-.505 3.413-.004 2.571 .285 1.792 .319 1.896 .35 2.008 .376 2.127 .85 4.232 .067 7.852-1.235 9.576-1.868 10.416-2.045 11.368-1.744 12.329-1.289 13.788 .126 14.913 .881 15.376 .53 15.968-.527 17.183-1.269 17.305-1.44 17.334-1.53 17.29-1.628 17.134-1.785 16.885-2.114 16.81-2.364 16.967-2.613 17.124-2.688 17.454-2.531 17.703-2.169 18.278-1.576 18.5-.903 18.316 .402 17.957 2.037 15.967 2.056 15.201 2.064 14.912 1.9 14.67 1.639 14.584 1.371 14.48-.348 13.342-.743 11.954-.917 11.339-.8 10.772-.383 10.22 1.099 8.257 1.957 4.289 1.418 1.893 1.211 .975 .818 .359 .247 .061 .17 .02 .085 0 0 0M1.303 15.597C1.297 15.595 1.291 15.593 1.285 15.591 1.291 15.593 1.297 15.595 1.303 15.597M1.303 15.597Z" fill="#4d4d4f"/>
</svg>
